%TF.GenerationSoftware,KiCad,Pcbnew,(6.0.0-0)*%
%TF.CreationDate,2022-01-05T16:19:23+01:00*%
%TF.ProjectId,IEC-62056-21-Optical-Probe,4945432d-3632-4303-9536-2d32312d4f70,1*%
%TF.SameCoordinates,Original*%
%TF.FileFunction,Legend,Top*%
%TF.FilePolarity,Positive*%
%FSLAX46Y46*%
G04 Gerber Fmt 4.6, Leading zero omitted, Abs format (unit mm)*
G04 Created by KiCad (PCBNEW (6.0.0-0)) date 2022-01-05 16:19:23*
%MOMM*%
%LPD*%
G01*
G04 APERTURE LIST*
%ADD10C,0.150000*%
%ADD11C,0.120000*%
G04 APERTURE END LIST*
D10*
X154890476Y-91061904D02*
X155347619Y-91061904D01*
X155119047Y-91861904D02*
X155119047Y-91061904D01*
X155538095Y-91061904D02*
X156071428Y-91861904D01*
X156071428Y-91061904D02*
X155538095Y-91861904D01*
X142295238Y-102361904D02*
X142295238Y-101561904D01*
X142485714Y-101561904D01*
X142600000Y-101600000D01*
X142676190Y-101676190D01*
X142714285Y-101752380D01*
X142752380Y-101904761D01*
X142752380Y-102019047D01*
X142714285Y-102171428D01*
X142676190Y-102247619D01*
X142600000Y-102323809D01*
X142485714Y-102361904D01*
X142295238Y-102361904D01*
X143095238Y-102057142D02*
X143704761Y-102057142D01*
X143400000Y-102361904D02*
X143400000Y-101752380D01*
X142390476Y-97100000D02*
X142314285Y-97061904D01*
X142200000Y-97061904D01*
X142085714Y-97100000D01*
X142009523Y-97176190D01*
X141971428Y-97252380D01*
X141933333Y-97404761D01*
X141933333Y-97519047D01*
X141971428Y-97671428D01*
X142009523Y-97747619D01*
X142085714Y-97823809D01*
X142200000Y-97861904D01*
X142276190Y-97861904D01*
X142390476Y-97823809D01*
X142428571Y-97785714D01*
X142428571Y-97519047D01*
X142276190Y-97519047D01*
X142771428Y-97861904D02*
X142771428Y-97061904D01*
X143228571Y-97861904D01*
X143228571Y-97061904D01*
X143609523Y-97861904D02*
X143609523Y-97061904D01*
X143800000Y-97061904D01*
X143914285Y-97100000D01*
X143990476Y-97176190D01*
X144028571Y-97252380D01*
X144066666Y-97404761D01*
X144066666Y-97519047D01*
X144028571Y-97671428D01*
X143990476Y-97747619D01*
X143914285Y-97823809D01*
X143800000Y-97861904D01*
X143609523Y-97861904D01*
X158866666Y-91861904D02*
X158600000Y-91480952D01*
X158409523Y-91861904D02*
X158409523Y-91061904D01*
X158714285Y-91061904D01*
X158790476Y-91100000D01*
X158828571Y-91138095D01*
X158866666Y-91214285D01*
X158866666Y-91328571D01*
X158828571Y-91404761D01*
X158790476Y-91442857D01*
X158714285Y-91480952D01*
X158409523Y-91480952D01*
X159133333Y-91061904D02*
X159666666Y-91861904D01*
X159666666Y-91061904D02*
X159133333Y-91861904D01*
X138033333Y-97061904D02*
X138300000Y-97861904D01*
X138566666Y-97061904D01*
X139100000Y-97442857D02*
X139214285Y-97480952D01*
X139252380Y-97519047D01*
X139290476Y-97595238D01*
X139290476Y-97709523D01*
X139252380Y-97785714D01*
X139214285Y-97823809D01*
X139138095Y-97861904D01*
X138833333Y-97861904D01*
X138833333Y-97061904D01*
X139100000Y-97061904D01*
X139176190Y-97100000D01*
X139214285Y-97138095D01*
X139252380Y-97214285D01*
X139252380Y-97290476D01*
X139214285Y-97366666D01*
X139176190Y-97404761D01*
X139100000Y-97442857D01*
X138833333Y-97442857D01*
X139633333Y-97061904D02*
X139633333Y-97709523D01*
X139671428Y-97785714D01*
X139709523Y-97823809D01*
X139785714Y-97861904D01*
X139938095Y-97861904D01*
X140014285Y-97823809D01*
X140052380Y-97785714D01*
X140090476Y-97709523D01*
X140090476Y-97061904D01*
X140433333Y-97823809D02*
X140547619Y-97861904D01*
X140738095Y-97861904D01*
X140814285Y-97823809D01*
X140852380Y-97785714D01*
X140890476Y-97709523D01*
X140890476Y-97633333D01*
X140852380Y-97557142D01*
X140814285Y-97519047D01*
X140738095Y-97480952D01*
X140585714Y-97442857D01*
X140509523Y-97404761D01*
X140471428Y-97366666D01*
X140433333Y-97290476D01*
X140433333Y-97214285D01*
X140471428Y-97138095D01*
X140509523Y-97100000D01*
X140585714Y-97061904D01*
X140776190Y-97061904D01*
X140890476Y-97100000D01*
X139045238Y-102361904D02*
X139045238Y-101561904D01*
X139235714Y-101561904D01*
X139350000Y-101600000D01*
X139426190Y-101676190D01*
X139464285Y-101752380D01*
X139502380Y-101904761D01*
X139502380Y-102019047D01*
X139464285Y-102171428D01*
X139426190Y-102247619D01*
X139350000Y-102323809D01*
X139235714Y-102361904D01*
X139045238Y-102361904D01*
X139845238Y-102057142D02*
X140454761Y-102057142D01*
X141933333Y-92561904D02*
X142200000Y-93361904D01*
X142466666Y-92561904D01*
X143190476Y-93285714D02*
X143152380Y-93323809D01*
X143038095Y-93361904D01*
X142961904Y-93361904D01*
X142847619Y-93323809D01*
X142771428Y-93247619D01*
X142733333Y-93171428D01*
X142695238Y-93019047D01*
X142695238Y-92904761D01*
X142733333Y-92752380D01*
X142771428Y-92676190D01*
X142847619Y-92600000D01*
X142961904Y-92561904D01*
X143038095Y-92561904D01*
X143152380Y-92600000D01*
X143190476Y-92638095D01*
X143990476Y-93285714D02*
X143952380Y-93323809D01*
X143838095Y-93361904D01*
X143761904Y-93361904D01*
X143647619Y-93323809D01*
X143571428Y-93247619D01*
X143533333Y-93171428D01*
X143495238Y-93019047D01*
X143495238Y-92904761D01*
X143533333Y-92752380D01*
X143571428Y-92676190D01*
X143647619Y-92600000D01*
X143761904Y-92561904D01*
X143838095Y-92561904D01*
X143952380Y-92600000D01*
X143990476Y-92638095D01*
D11*
%TO.C,C7*%
X154109420Y-104240000D02*
X154390580Y-104240000D01*
X154109420Y-105260000D02*
X154390580Y-105260000D01*
%TO.C,R7*%
X162272500Y-103487258D02*
X162272500Y-103012742D01*
X161227500Y-103487258D02*
X161227500Y-103012742D01*
%TO.C,U2*%
X156840000Y-100340000D02*
X157340000Y-100340000D01*
X160160000Y-103660000D02*
X160160000Y-103160000D01*
X159660000Y-103660000D02*
X160160000Y-103660000D01*
X156840000Y-103660000D02*
X156840000Y-103160000D01*
X157340000Y-103660000D02*
X156840000Y-103660000D01*
X160160000Y-100340000D02*
X160160000Y-100840000D01*
X159660000Y-100340000D02*
X160160000Y-100340000D01*
%TO.C,J1*%
X145420000Y-108650000D02*
X145420000Y-110570000D01*
X154580000Y-110570000D02*
X154580000Y-108650000D01*
X154580000Y-112580000D02*
X154580000Y-114285000D01*
X145420000Y-114285000D02*
X145420000Y-112580000D01*
X154580000Y-114285000D02*
X145420000Y-114285000D01*
%TO.C,C4*%
X155990000Y-109140580D02*
X155990000Y-108859420D01*
X157010000Y-109140580D02*
X157010000Y-108859420D01*
%TO.C,R5*%
X158762742Y-104727500D02*
X159237258Y-104727500D01*
X158762742Y-105772500D02*
X159237258Y-105772500D01*
%TO.C,JP1*%
X161550000Y-98400000D02*
X160950000Y-98400000D01*
X160250000Y-97700000D02*
X160250000Y-96300000D01*
X162250000Y-96300000D02*
X162250000Y-97700000D01*
X160950000Y-95600000D02*
X161550000Y-95600000D01*
X161550000Y-98400000D02*
G75*
G03*
X162250000Y-97700000I1J699999D01*
G01*
X160950000Y-95600000D02*
G75*
G03*
X160250000Y-96300000I-1J-699999D01*
G01*
X160250000Y-97700000D02*
G75*
G03*
X160950000Y-98400000I699999J-1D01*
G01*
X162250000Y-96300000D02*
G75*
G03*
X161550000Y-95600000I-699999J1D01*
G01*
%TO.C,JP2*%
X157750000Y-97700000D02*
X157750000Y-96300000D01*
X158450000Y-95600000D02*
X159050000Y-95600000D01*
X159750000Y-96300000D02*
X159750000Y-97700000D01*
X159050000Y-98400000D02*
X158450000Y-98400000D01*
X159750000Y-96300000D02*
G75*
G03*
X159050000Y-95600000I-699999J1D01*
G01*
X157750000Y-97700000D02*
G75*
G03*
X158450000Y-98400000I699999J-1D01*
G01*
X159050000Y-98400000D02*
G75*
G03*
X159750000Y-97700000I1J699999D01*
G01*
X158450000Y-95600000D02*
G75*
G03*
X157750000Y-96300000I-1J-699999D01*
G01*
%TO.C,R13*%
X146487258Y-103772500D02*
X146012742Y-103772500D01*
X146487258Y-102727500D02*
X146012742Y-102727500D01*
%TO.C,C6*%
X149640580Y-89510000D02*
X149359420Y-89510000D01*
X149640580Y-88490000D02*
X149359420Y-88490000D01*
%TO.C,TP3*%
X154300000Y-94700000D02*
X154300000Y-92300000D01*
X156700000Y-92300000D02*
X156700000Y-94700000D01*
X156700000Y-94700000D02*
X154300000Y-94700000D01*
X154300000Y-92300000D02*
X156700000Y-92300000D01*
%TO.C,Q2*%
X149560000Y-95500000D02*
X149560000Y-96150000D01*
X146440000Y-95500000D02*
X146440000Y-96150000D01*
X146440000Y-95500000D02*
X146440000Y-94850000D01*
X149560000Y-95500000D02*
X149560000Y-93825000D01*
%TO.C,TP5*%
X138300000Y-98300000D02*
X140700000Y-98300000D01*
X140700000Y-98300000D02*
X140700000Y-100700000D01*
X138300000Y-100700000D02*
X138300000Y-98300000D01*
X140700000Y-100700000D02*
X138300000Y-100700000D01*
%TO.C,C2*%
X146010000Y-95640580D02*
X146010000Y-95359420D01*
X144990000Y-95640580D02*
X144990000Y-95359420D01*
%TO.C,TP2*%
X157800000Y-92300000D02*
X160200000Y-92300000D01*
X160200000Y-92300000D02*
X160200000Y-94700000D01*
X160200000Y-94700000D02*
X157800000Y-94700000D01*
X157800000Y-94700000D02*
X157800000Y-92300000D01*
%TO.C,U3*%
X149500000Y-93060000D02*
X151350000Y-93060000D01*
X149500000Y-89940000D02*
X150250000Y-89940000D01*
X149500000Y-89940000D02*
X148750000Y-89940000D01*
X149500000Y-93060000D02*
X148750000Y-93060000D01*
%TO.C,TP7*%
X144200000Y-102800000D02*
X144200000Y-105200000D01*
X144200000Y-105200000D02*
X141800000Y-105200000D01*
X141800000Y-105200000D02*
X141800000Y-102800000D01*
X141800000Y-102800000D02*
X144200000Y-102800000D01*
%TO.C,C3*%
X155990000Y-105859420D02*
X155990000Y-106140580D01*
X157010000Y-105859420D02*
X157010000Y-106140580D01*
%TO.C,JP3*%
X155950000Y-95600000D02*
X156550000Y-95600000D01*
X156550000Y-98400000D02*
X155950000Y-98400000D01*
X155250000Y-97700000D02*
X155250000Y-96300000D01*
X157250000Y-96300000D02*
X157250000Y-97700000D01*
X155250000Y-97700000D02*
G75*
G03*
X155950000Y-98400000I699999J-1D01*
G01*
X156550000Y-98400000D02*
G75*
G03*
X157250000Y-97700000I1J699999D01*
G01*
X157250000Y-96300000D02*
G75*
G03*
X156550000Y-95600000I-699999J1D01*
G01*
X155950000Y-95600000D02*
G75*
G03*
X155250000Y-96300000I-1J-699999D01*
G01*
%TO.C,C5*%
X154109420Y-103760000D02*
X154390580Y-103760000D01*
X154109420Y-102740000D02*
X154390580Y-102740000D01*
%TO.C,Q4*%
X152000000Y-93940000D02*
X151350000Y-93940000D01*
X152000000Y-97060000D02*
X151350000Y-97060000D01*
X152000000Y-97060000D02*
X153675000Y-97060000D01*
X152000000Y-93940000D02*
X152650000Y-93940000D01*
%TO.C,TP4*%
X141800000Y-100700000D02*
X141800000Y-98300000D01*
X141800000Y-98300000D02*
X144200000Y-98300000D01*
X144200000Y-98300000D02*
X144200000Y-100700000D01*
X144200000Y-100700000D02*
X141800000Y-100700000D01*
%TO.C,R2*%
X142977500Y-107262742D02*
X142977500Y-107737258D01*
X144022500Y-107262742D02*
X144022500Y-107737258D01*
%TO.C,R1*%
X142522500Y-107737258D02*
X142522500Y-107262742D01*
X141477500Y-107737258D02*
X141477500Y-107262742D01*
%TO.C,R15*%
X150237258Y-97977500D02*
X149762742Y-97977500D01*
X150237258Y-99022500D02*
X149762742Y-99022500D01*
%TO.C,R12*%
X162272500Y-100012742D02*
X162272500Y-100487258D01*
X161227500Y-100012742D02*
X161227500Y-100487258D01*
%TO.C,C1*%
X149859420Y-100760000D02*
X150140580Y-100760000D01*
X149859420Y-99740000D02*
X150140580Y-99740000D01*
%TO.C,R4*%
X159237258Y-106227500D02*
X158762742Y-106227500D01*
X159237258Y-107272500D02*
X158762742Y-107272500D01*
%TO.C,TP6*%
X138550000Y-102800000D02*
X140950000Y-102800000D01*
X138550000Y-105200000D02*
X138550000Y-102800000D01*
X140950000Y-102800000D02*
X140950000Y-105200000D01*
X140950000Y-105200000D02*
X138550000Y-105200000D01*
%TO.C,R14*%
X147022500Y-91737258D02*
X147022500Y-91262742D01*
X145977500Y-91737258D02*
X145977500Y-91262742D01*
%TO.C,R16*%
X153272500Y-91262742D02*
X153272500Y-91737258D01*
X152227500Y-91262742D02*
X152227500Y-91737258D01*
%TO.C,D1*%
X148450000Y-102300000D02*
X148450000Y-104700000D01*
X151550000Y-104700000D02*
X151550000Y-101750000D01*
%TO.C,TP1*%
X144200000Y-93800000D02*
X144200000Y-96200000D01*
X141800000Y-93800000D02*
X144200000Y-93800000D01*
X144200000Y-96200000D02*
X141800000Y-96200000D01*
X141800000Y-96200000D02*
X141800000Y-93800000D01*
%TD*%
M02*
