%TF.GenerationSoftware,KiCad,Pcbnew,(6.0.0-0)*%
%TF.CreationDate,2022-01-05T16:19:22+01:00*%
%TF.ProjectId,IEC-62056-21-Optical-Probe,4945432d-3632-4303-9536-2d32312d4f70,1*%
%TF.SameCoordinates,Original*%
%TF.FileFunction,Copper,L2,Bot*%
%TF.FilePolarity,Positive*%
%FSLAX46Y46*%
G04 Gerber Fmt 4.6, Leading zero omitted, Abs format (unit mm)*
G04 Created by KiCad (PCBNEW (6.0.0-0)) date 2022-01-05 16:19:22*
%MOMM*%
%LPD*%
G01*
G04 APERTURE LIST*
%TA.AperFunction,ComponentPad*%
%ADD10O,1.000000X2.100000*%
%TD*%
%TA.AperFunction,ComponentPad*%
%ADD11O,1.000000X1.600000*%
%TD*%
%TA.AperFunction,ComponentPad*%
%ADD12R,1.800000X1.800000*%
%TD*%
%TA.AperFunction,ComponentPad*%
%ADD13C,1.800000*%
%TD*%
%TA.AperFunction,ViaPad*%
%ADD14C,0.600000*%
%TD*%
%TA.AperFunction,Conductor*%
%ADD15C,0.200000*%
%TD*%
%TA.AperFunction,Conductor*%
%ADD16C,0.400000*%
%TD*%
G04 APERTURE END LIST*
D10*
%TO.P,J1,S1,SHIELD*%
%TO.N,GND*%
X145680000Y-107395000D03*
X154320000Y-107395000D03*
D11*
X145680000Y-111575000D03*
X154320000Y-111575000D03*
%TD*%
D12*
%TO.P,Q3,1,C*%
%TO.N,VCC*%
X153250000Y-101270000D03*
D13*
%TO.P,Q3,2,E*%
%TO.N,Net-(Q3-Pad2)*%
X153250000Y-98730000D03*
%TD*%
D12*
%TO.P,D5,1,K*%
%TO.N,Net-(D5-Pad1)*%
X146750000Y-101270000D03*
D13*
%TO.P,D5,2,A*%
%TO.N,Net-(D5-Pad2)*%
X146750000Y-98730000D03*
%TD*%
D14*
%TO.N,+3V3*%
X160000000Y-103973500D03*
%TO.N,GND*%
X161750000Y-100248500D03*
X152750000Y-104750000D03*
%TO.N,+3V3*%
X154351500Y-104723500D03*
%TO.N,GND*%
X158500000Y-102000000D03*
X150750000Y-101500000D03*
X152750000Y-103250000D03*
%TO.N,+3V3*%
X154351500Y-103250000D03*
%TO.N,GND*%
X156500000Y-107348500D03*
X156500000Y-110500000D03*
X160500000Y-105250000D03*
X143000000Y-101000000D03*
X143750000Y-101000000D03*
X151750000Y-91500000D03*
X148500000Y-98500000D03*
X143500000Y-107498500D03*
X146248500Y-103250000D03*
X142000000Y-107498500D03*
X148500000Y-100250000D03*
X145500000Y-97250000D03*
X151750000Y-94500000D03*
X142250000Y-101000000D03*
X151250000Y-89000000D03*
%TO.N,+3V3*%
X155000000Y-101750000D03*
%TO.N,/D+*%
X149726112Y-104697611D03*
X151000000Y-105750000D03*
%TO.N,Net-(J1-PadB5)*%
X151750000Y-109750000D03*
X151688979Y-108250000D03*
%TO.N,Net-(J1-PadA5)*%
X144250000Y-109250000D03*
X149000000Y-108000000D03*
%TD*%
D15*
%TO.N,+3V3*%
X160000000Y-103973500D02*
X154479500Y-103973500D01*
X154479500Y-103973500D02*
X154351500Y-104101500D01*
D16*
X154351500Y-103250000D02*
X154351500Y-104101500D01*
X154351500Y-104101500D02*
X154351500Y-104723500D01*
X155000000Y-101750000D02*
X155000000Y-102601500D01*
X155000000Y-102601500D02*
X154351500Y-103250000D01*
D15*
%TO.N,/D+*%
X150778501Y-105750000D02*
X149726112Y-104697611D01*
X151000000Y-105750000D02*
X150778501Y-105750000D01*
%TO.N,Net-(J1-PadB5)*%
X151750000Y-108188979D02*
X151688979Y-108250000D01*
X151750000Y-109750000D02*
X151750000Y-108188979D01*
%TO.N,Net-(J1-PadA5)*%
X149000000Y-108000000D02*
X149000000Y-109500000D01*
X144500000Y-109500000D02*
X144250000Y-109250000D01*
X149000000Y-109500000D02*
X144500000Y-109500000D01*
%TD*%
%TA.AperFunction,Conductor*%
%TO.N,GND*%
G36*
X150026302Y-86879118D02*
G01*
X150729038Y-86899361D01*
X150735837Y-86899742D01*
X150923097Y-86915302D01*
X151436427Y-86957956D01*
X151443202Y-86958704D01*
X152139617Y-87054721D01*
X152146342Y-87055834D01*
X152715172Y-87165888D01*
X152789071Y-87180185D01*
X152836550Y-87189371D01*
X152843202Y-87190845D01*
X153525204Y-87361520D01*
X153531741Y-87363345D01*
X153950439Y-87492553D01*
X154203512Y-87570651D01*
X154209969Y-87572837D01*
X154374030Y-87633362D01*
X154869532Y-87816162D01*
X154875821Y-87818677D01*
X155521290Y-88097328D01*
X155527452Y-88100188D01*
X155839952Y-88255655D01*
X156156886Y-88413328D01*
X156162904Y-88416528D01*
X156774466Y-88763238D01*
X156780303Y-88766759D01*
X157372240Y-89146046D01*
X157377877Y-89149878D01*
X157837401Y-89480688D01*
X157881000Y-89536720D01*
X157887384Y-89607429D01*
X157854527Y-89670365D01*
X157792860Y-89705546D01*
X157736300Y-89705911D01*
X157597722Y-89674935D01*
X157597713Y-89674934D01*
X157592672Y-89673807D01*
X157587181Y-89673500D01*
X157455134Y-89673500D01*
X157321475Y-89688020D01*
X157247307Y-89712980D01*
X157157743Y-89743121D01*
X157157741Y-89743122D01*
X157151278Y-89745297D01*
X156997352Y-89837786D01*
X156992392Y-89842477D01*
X156992390Y-89842478D01*
X156892137Y-89937283D01*
X156866877Y-89961170D01*
X156765940Y-90109694D01*
X156699252Y-90276427D01*
X156698138Y-90283157D01*
X156698137Y-90283160D01*
X156671518Y-90443951D01*
X156669922Y-90453591D01*
X156670279Y-90460407D01*
X156670279Y-90460411D01*
X156673407Y-90520089D01*
X156679321Y-90632921D01*
X156727008Y-90806049D01*
X156810760Y-90964898D01*
X156926668Y-91102058D01*
X156932091Y-91106205D01*
X156932093Y-91106206D01*
X157063905Y-91206984D01*
X157063909Y-91206987D01*
X157069326Y-91211128D01*
X157075506Y-91214010D01*
X157075508Y-91214011D01*
X157225900Y-91284140D01*
X157225903Y-91284141D01*
X157232077Y-91287020D01*
X157238725Y-91288506D01*
X157238728Y-91288507D01*
X157402290Y-91325067D01*
X157402291Y-91325067D01*
X157407328Y-91326193D01*
X157412819Y-91326500D01*
X157544866Y-91326500D01*
X157678525Y-91311980D01*
X157764080Y-91283188D01*
X157842257Y-91256879D01*
X157842259Y-91256878D01*
X157848722Y-91254703D01*
X158002648Y-91162214D01*
X158025815Y-91140306D01*
X158128165Y-91043519D01*
X158128167Y-91043517D01*
X158133123Y-91038830D01*
X158234060Y-90890306D01*
X158300748Y-90723573D01*
X158305172Y-90696854D01*
X158328963Y-90553146D01*
X158328963Y-90553143D01*
X158330078Y-90546409D01*
X158326722Y-90482363D01*
X158321036Y-90373892D01*
X158320679Y-90367079D01*
X158272992Y-90193951D01*
X158216340Y-90086501D01*
X158202263Y-90016915D01*
X158228041Y-89950764D01*
X158285492Y-89909051D01*
X158356374Y-89905020D01*
X158406835Y-89929609D01*
X158501327Y-90005718D01*
X158506511Y-90010130D01*
X159007477Y-90460411D01*
X159029368Y-90480087D01*
X159034308Y-90484775D01*
X159188761Y-90639498D01*
X159530975Y-90982310D01*
X159535659Y-90987263D01*
X160004706Y-91510943D01*
X160009114Y-91516142D01*
X160449124Y-92064383D01*
X160453246Y-92069812D01*
X160863001Y-92641097D01*
X160866822Y-92646742D01*
X161245051Y-93239301D01*
X161248562Y-93245143D01*
X161594213Y-93857325D01*
X161597403Y-93863350D01*
X161909433Y-94493311D01*
X161912292Y-94499498D01*
X162189806Y-95145430D01*
X162192326Y-95151764D01*
X162434495Y-95811735D01*
X162436669Y-95818195D01*
X162642794Y-96490301D01*
X162644613Y-96496859D01*
X162814099Y-97179167D01*
X162815554Y-97185784D01*
X162890001Y-97574204D01*
X162947894Y-97876258D01*
X162948995Y-97882985D01*
X162977711Y-98093986D01*
X163038522Y-98540810D01*
X163043796Y-98579564D01*
X163044530Y-98586323D01*
X163078676Y-99006136D01*
X163101523Y-99287027D01*
X163101892Y-99293834D01*
X163120948Y-99998087D01*
X163120993Y-100001934D01*
X163120687Y-100089670D01*
X163120615Y-100093501D01*
X163114168Y-100282872D01*
X163096643Y-100797608D01*
X163096227Y-100804412D01*
X163034343Y-101504704D01*
X163033559Y-101511475D01*
X162936548Y-102188877D01*
X162933900Y-102207365D01*
X162932754Y-102214071D01*
X162800054Y-102881202D01*
X162795601Y-102903591D01*
X162794093Y-102910230D01*
X162624538Y-103573002D01*
X162619851Y-103591324D01*
X162617983Y-103597880D01*
X162407172Y-104268524D01*
X162404953Y-104274969D01*
X162291074Y-104578746D01*
X162179685Y-104875880D01*
X162158183Y-104933236D01*
X162155622Y-104939544D01*
X161976092Y-105349497D01*
X161873600Y-105583535D01*
X161870697Y-105589702D01*
X161554279Y-106217463D01*
X161551051Y-106223460D01*
X161221726Y-106797333D01*
X161201132Y-106833219D01*
X161197584Y-106839031D01*
X160823787Y-107415730D01*
X160815216Y-107428953D01*
X160811360Y-107434564D01*
X160397624Y-108002978D01*
X160393487Y-108008350D01*
X160149286Y-108308304D01*
X159949644Y-108553526D01*
X159945200Y-108558694D01*
X159913132Y-108593998D01*
X159472491Y-109079107D01*
X159467792Y-109084005D01*
X159259601Y-109289668D01*
X158967666Y-109578057D01*
X158962689Y-109582714D01*
X158436568Y-110049006D01*
X158431347Y-110053388D01*
X157880787Y-110490539D01*
X157875336Y-110494632D01*
X157301939Y-110901372D01*
X157296275Y-110905164D01*
X156701693Y-111280318D01*
X156695865Y-111283778D01*
X156081869Y-111626225D01*
X156075870Y-111629361D01*
X155444255Y-111938104D01*
X155438059Y-111940928D01*
X155354938Y-111976125D01*
X155249131Y-112020928D01*
X155178602Y-112029071D01*
X155114868Y-111997791D01*
X155078162Y-111937019D01*
X155074000Y-111904901D01*
X155074000Y-111847115D01*
X155069525Y-111831876D01*
X155068135Y-111830671D01*
X155060452Y-111829000D01*
X153584115Y-111829000D01*
X153568876Y-111833475D01*
X153567671Y-111834865D01*
X153566000Y-111842548D01*
X153566000Y-111915363D01*
X153566425Y-111922667D01*
X153580380Y-112042366D01*
X153583725Y-112056519D01*
X153638721Y-112208030D01*
X153645231Y-112221029D01*
X153733608Y-112355826D01*
X153742935Y-112366981D01*
X153748466Y-112372221D01*
X153784165Y-112433589D01*
X153781019Y-112504516D01*
X153740027Y-112562482D01*
X153698127Y-112584349D01*
X153443444Y-112660999D01*
X153436867Y-112662786D01*
X152994830Y-112770135D01*
X152753711Y-112828691D01*
X152747066Y-112830116D01*
X152169232Y-112937733D01*
X152055922Y-112958836D01*
X152049189Y-112959902D01*
X151352128Y-113051053D01*
X151345348Y-113051754D01*
X150644358Y-113105076D01*
X150637550Y-113105409D01*
X150224119Y-113114431D01*
X149934693Y-113120746D01*
X149927895Y-113120710D01*
X149528796Y-113107819D01*
X149225253Y-113098015D01*
X149218449Y-113097611D01*
X148926242Y-113072303D01*
X148518041Y-113036949D01*
X148511291Y-113036179D01*
X148222987Y-112995404D01*
X147815217Y-112937733D01*
X147808496Y-112936597D01*
X147118733Y-112800646D01*
X147112084Y-112799147D01*
X146430716Y-112626101D01*
X146424157Y-112624245D01*
X146296646Y-112584408D01*
X146237589Y-112545002D01*
X146209212Y-112479923D01*
X146220524Y-112409834D01*
X146238195Y-112382561D01*
X146306829Y-112301775D01*
X146314890Y-112289687D01*
X146388195Y-112146129D01*
X146393262Y-112132504D01*
X146431977Y-111974284D01*
X146433660Y-111963225D01*
X146433880Y-111959679D01*
X146434000Y-111955801D01*
X146434000Y-111847115D01*
X146429525Y-111831876D01*
X146428135Y-111830671D01*
X146420452Y-111829000D01*
X144944115Y-111829000D01*
X144928876Y-111833475D01*
X144927671Y-111834865D01*
X144926000Y-111842548D01*
X144926000Y-111904007D01*
X144905998Y-111972128D01*
X144852342Y-112018621D01*
X144782068Y-112028725D01*
X144749659Y-112019514D01*
X144437194Y-111883326D01*
X144431026Y-111880436D01*
X144328534Y-111829000D01*
X143802697Y-111565106D01*
X143796710Y-111561896D01*
X143343535Y-111302885D01*
X144926000Y-111302885D01*
X144930475Y-111318124D01*
X144931865Y-111319329D01*
X144939548Y-111321000D01*
X145407885Y-111321000D01*
X145423124Y-111316525D01*
X145424329Y-111315135D01*
X145426000Y-111307452D01*
X145426000Y-111302885D01*
X145934000Y-111302885D01*
X145938475Y-111318124D01*
X145939865Y-111319329D01*
X145947548Y-111321000D01*
X146415885Y-111321000D01*
X146431124Y-111316525D01*
X146432329Y-111315135D01*
X146434000Y-111307452D01*
X146434000Y-111302885D01*
X153566000Y-111302885D01*
X153570475Y-111318124D01*
X153571865Y-111319329D01*
X153579548Y-111321000D01*
X154047885Y-111321000D01*
X154063124Y-111316525D01*
X154064329Y-111315135D01*
X154066000Y-111307452D01*
X154066000Y-111302885D01*
X154574000Y-111302885D01*
X154578475Y-111318124D01*
X154579865Y-111319329D01*
X154587548Y-111321000D01*
X155055885Y-111321000D01*
X155071124Y-111316525D01*
X155072329Y-111315135D01*
X155074000Y-111307452D01*
X155074000Y-111234637D01*
X155073575Y-111227333D01*
X155059620Y-111107634D01*
X155056275Y-111093481D01*
X155001279Y-110941970D01*
X154994769Y-110928971D01*
X154906392Y-110794174D01*
X154897068Y-110783022D01*
X154780053Y-110672172D01*
X154768408Y-110663460D01*
X154629034Y-110582506D01*
X154615696Y-110576706D01*
X154591338Y-110569329D01*
X154577236Y-110569209D01*
X154574000Y-110576139D01*
X154574000Y-111302885D01*
X154066000Y-111302885D01*
X154066000Y-110581746D01*
X154062027Y-110568215D01*
X154056944Y-110567484D01*
X153950612Y-110612729D01*
X153937988Y-110619929D01*
X153808167Y-110715467D01*
X153797536Y-110725381D01*
X153693172Y-110848225D01*
X153685110Y-110860313D01*
X153611805Y-111003871D01*
X153606738Y-111017496D01*
X153568023Y-111175716D01*
X153566340Y-111186775D01*
X153566120Y-111190321D01*
X153566000Y-111194199D01*
X153566000Y-111302885D01*
X146434000Y-111302885D01*
X146434000Y-111234637D01*
X146433575Y-111227333D01*
X146419620Y-111107634D01*
X146416275Y-111093481D01*
X146361279Y-110941970D01*
X146354769Y-110928971D01*
X146266392Y-110794174D01*
X146257068Y-110783022D01*
X146140053Y-110672172D01*
X146128408Y-110663460D01*
X145989034Y-110582506D01*
X145975696Y-110576706D01*
X145951338Y-110569329D01*
X145937236Y-110569209D01*
X145934000Y-110576139D01*
X145934000Y-111302885D01*
X145426000Y-111302885D01*
X145426000Y-110581746D01*
X145422027Y-110568215D01*
X145416944Y-110567484D01*
X145310612Y-110612729D01*
X145297988Y-110619929D01*
X145168167Y-110715467D01*
X145157536Y-110725381D01*
X145053172Y-110848225D01*
X145045110Y-110860313D01*
X144971805Y-111003871D01*
X144966738Y-111017496D01*
X144928023Y-111175716D01*
X144926340Y-111186775D01*
X144926120Y-111190321D01*
X144926000Y-111194199D01*
X144926000Y-111302885D01*
X143343535Y-111302885D01*
X143186357Y-111213050D01*
X143180534Y-111209510D01*
X143156822Y-111194199D01*
X142589929Y-110828161D01*
X142584306Y-110824311D01*
X142015198Y-110411588D01*
X142009790Y-110407438D01*
X141686867Y-110145474D01*
X141463817Y-109964529D01*
X141458674Y-109960121D01*
X140937462Y-109488342D01*
X140932535Y-109483634D01*
X140700931Y-109250000D01*
X143690715Y-109250000D01*
X143691793Y-109258188D01*
X143705338Y-109361072D01*
X143709772Y-109394754D01*
X143728975Y-109441113D01*
X143762088Y-109521054D01*
X143765645Y-109529642D01*
X143770672Y-109536193D01*
X143839648Y-109626084D01*
X143854526Y-109645474D01*
X143861076Y-109650500D01*
X143861079Y-109650503D01*
X143922092Y-109697320D01*
X143970357Y-109734355D01*
X144105246Y-109790228D01*
X144250000Y-109809285D01*
X144265617Y-109807229D01*
X144326254Y-109816687D01*
X144326865Y-109814949D01*
X144330370Y-109816180D01*
X144334743Y-109818012D01*
X144335392Y-109818113D01*
X144341885Y-109822753D01*
X144351863Y-109825737D01*
X144387586Y-109836420D01*
X144393235Y-109838256D01*
X144408463Y-109843604D01*
X144438208Y-109854050D01*
X144443404Y-109854500D01*
X144446109Y-109854500D01*
X144448365Y-109854597D01*
X144448841Y-109854740D01*
X144448839Y-109854786D01*
X144449038Y-109854799D01*
X144454955Y-109856568D01*
X144505124Y-109854597D01*
X144510070Y-109854500D01*
X148978946Y-109854500D01*
X148989818Y-109854970D01*
X149028198Y-109858294D01*
X149067150Y-109848619D01*
X149076827Y-109846615D01*
X149106144Y-109841735D01*
X149116417Y-109840025D01*
X149125581Y-109835081D01*
X149129158Y-109833856D01*
X149132629Y-109832354D01*
X149142736Y-109829843D01*
X149151485Y-109824194D01*
X149151487Y-109824193D01*
X149176456Y-109808071D01*
X149184961Y-109803040D01*
X149220280Y-109783983D01*
X149227349Y-109776336D01*
X149230338Y-109774017D01*
X149233133Y-109771474D01*
X149241882Y-109765825D01*
X149248330Y-109757646D01*
X149248332Y-109757644D01*
X149266724Y-109734314D01*
X149273147Y-109726793D01*
X149293322Y-109704967D01*
X149300391Y-109697320D01*
X149304603Y-109687792D01*
X149306678Y-109684634D01*
X149308500Y-109681321D01*
X149314946Y-109673143D01*
X149328242Y-109635282D01*
X149331884Y-109626084D01*
X149348111Y-109589380D01*
X149349010Y-109579000D01*
X149350382Y-109573656D01*
X149350717Y-109572553D01*
X149351424Y-109569270D01*
X149354050Y-109561792D01*
X149354500Y-109556596D01*
X149354500Y-109521054D01*
X149354970Y-109510182D01*
X149357395Y-109482180D01*
X149358294Y-109471802D01*
X149355783Y-109461692D01*
X149354966Y-109451312D01*
X149355740Y-109451251D01*
X149354500Y-109441113D01*
X149354500Y-108487115D01*
X149374502Y-108418994D01*
X149390188Y-108399530D01*
X149395474Y-108395474D01*
X149484355Y-108279642D01*
X149496634Y-108250000D01*
X151129694Y-108250000D01*
X151130772Y-108258188D01*
X151135096Y-108291029D01*
X151148751Y-108394754D01*
X151151910Y-108402380D01*
X151187009Y-108487115D01*
X151204624Y-108529642D01*
X151247420Y-108585415D01*
X151287382Y-108637494D01*
X151293505Y-108645474D01*
X151346205Y-108685912D01*
X151388072Y-108743250D01*
X151395500Y-108785874D01*
X151395500Y-109262886D01*
X151375498Y-109331007D01*
X151359813Y-109350470D01*
X151354526Y-109354526D01*
X151265645Y-109470358D01*
X151262486Y-109477984D01*
X151262485Y-109477986D01*
X151238375Y-109536193D01*
X151209772Y-109605246D01*
X151208695Y-109613430D01*
X151208694Y-109613432D01*
X151200833Y-109673143D01*
X151190715Y-109750000D01*
X151191793Y-109758188D01*
X151204854Y-109857395D01*
X151209772Y-109894754D01*
X151265645Y-110029642D01*
X151354526Y-110145474D01*
X151361076Y-110150500D01*
X151361079Y-110150503D01*
X151463804Y-110229327D01*
X151470357Y-110234355D01*
X151605246Y-110290228D01*
X151750000Y-110309285D01*
X151758188Y-110308207D01*
X151886566Y-110291306D01*
X151894754Y-110290228D01*
X152029643Y-110234355D01*
X152036196Y-110229327D01*
X152138921Y-110150503D01*
X152138924Y-110150500D01*
X152145474Y-110145474D01*
X152234355Y-110029642D01*
X152290228Y-109894754D01*
X152295147Y-109857395D01*
X152308207Y-109758188D01*
X152309285Y-109750000D01*
X152299167Y-109673143D01*
X152291306Y-109613432D01*
X152291305Y-109613430D01*
X152290228Y-109605246D01*
X152261625Y-109536193D01*
X152237515Y-109477986D01*
X152237514Y-109477984D01*
X152234355Y-109470358D01*
X152145474Y-109354526D01*
X152140863Y-109350988D01*
X152107379Y-109289668D01*
X152104500Y-109262885D01*
X152104500Y-108662119D01*
X152124502Y-108593998D01*
X152130529Y-108585427D01*
X152173334Y-108529642D01*
X152229207Y-108394754D01*
X152235460Y-108347254D01*
X152264182Y-108282328D01*
X152323446Y-108243235D01*
X152394438Y-108242390D01*
X152454617Y-108280059D01*
X152460343Y-108286994D01*
X152471670Y-108301755D01*
X152471673Y-108301758D01*
X152476696Y-108308304D01*
X152597750Y-108401192D01*
X152738720Y-108459584D01*
X152852020Y-108474500D01*
X152927980Y-108474500D01*
X153041280Y-108459584D01*
X153182250Y-108401192D01*
X153303304Y-108308304D01*
X153396192Y-108187250D01*
X153398137Y-108188742D01*
X153440495Y-108148340D01*
X153510207Y-108134893D01*
X153576122Y-108161269D01*
X153616689Y-108217333D01*
X153638721Y-108278030D01*
X153645231Y-108291029D01*
X153733608Y-108425826D01*
X153742932Y-108436978D01*
X153859947Y-108547828D01*
X153871592Y-108556540D01*
X154010966Y-108637494D01*
X154024304Y-108643294D01*
X154048662Y-108650671D01*
X154062764Y-108650791D01*
X154066000Y-108643861D01*
X154066000Y-108638254D01*
X154574000Y-108638254D01*
X154577973Y-108651785D01*
X154583056Y-108652516D01*
X154689388Y-108607271D01*
X154702012Y-108600071D01*
X154831833Y-108504533D01*
X154842464Y-108494619D01*
X154946828Y-108371775D01*
X154954890Y-108359687D01*
X155028195Y-108216129D01*
X155033262Y-108202504D01*
X155071977Y-108044284D01*
X155073660Y-108033225D01*
X155073880Y-108029679D01*
X155074000Y-108025801D01*
X155074000Y-107667115D01*
X155069525Y-107651876D01*
X155068135Y-107650671D01*
X155060452Y-107649000D01*
X154592115Y-107649000D01*
X154576876Y-107653475D01*
X154575671Y-107654865D01*
X154574000Y-107662548D01*
X154574000Y-108638254D01*
X154066000Y-108638254D01*
X154066000Y-107667115D01*
X154061525Y-107651876D01*
X154060135Y-107650671D01*
X154052452Y-107649000D01*
X153584115Y-107649000D01*
X153540273Y-107661873D01*
X153469276Y-107661873D01*
X153409550Y-107623489D01*
X153398153Y-107607484D01*
X153396192Y-107602750D01*
X153376050Y-107576500D01*
X153308327Y-107488242D01*
X153303304Y-107481696D01*
X153182250Y-107388808D01*
X153041280Y-107330416D01*
X152969385Y-107320951D01*
X152932067Y-107316038D01*
X152932066Y-107316038D01*
X152927980Y-107315500D01*
X152852020Y-107315500D01*
X152847934Y-107316038D01*
X152847933Y-107316038D01*
X152810615Y-107320951D01*
X152738720Y-107330416D01*
X152597750Y-107388808D01*
X152476696Y-107481696D01*
X152383808Y-107602750D01*
X152325416Y-107743720D01*
X152324338Y-107751908D01*
X152317381Y-107804751D01*
X152288658Y-107869678D01*
X152229393Y-107908769D01*
X152158401Y-107909614D01*
X152098223Y-107871943D01*
X152092496Y-107865007D01*
X152089483Y-107861080D01*
X152089479Y-107861076D01*
X152084453Y-107854526D01*
X152077903Y-107849500D01*
X152077900Y-107849497D01*
X151975175Y-107770673D01*
X151975173Y-107770672D01*
X151968622Y-107765645D01*
X151833733Y-107709772D01*
X151688979Y-107690715D01*
X151680791Y-107691793D01*
X151552411Y-107708694D01*
X151552409Y-107708695D01*
X151544225Y-107709772D01*
X151513780Y-107722383D01*
X151416965Y-107762485D01*
X151416963Y-107762486D01*
X151409337Y-107765645D01*
X151293505Y-107854526D01*
X151204624Y-107970358D01*
X151201465Y-107977984D01*
X151201464Y-107977986D01*
X151173176Y-108046280D01*
X151148751Y-108105246D01*
X151147674Y-108113430D01*
X151147673Y-108113432D01*
X151137955Y-108187250D01*
X151129694Y-108250000D01*
X149496634Y-108250000D01*
X149499436Y-108243235D01*
X149537069Y-108152380D01*
X149540228Y-108144754D01*
X149541527Y-108134893D01*
X149558207Y-108008188D01*
X149559285Y-108000000D01*
X149547386Y-107909614D01*
X149541306Y-107863432D01*
X149541305Y-107863430D01*
X149540228Y-107855246D01*
X149519312Y-107804751D01*
X149487515Y-107727986D01*
X149487514Y-107727984D01*
X149484355Y-107720358D01*
X149435899Y-107657209D01*
X149400501Y-107611077D01*
X149400500Y-107611076D01*
X149395474Y-107604526D01*
X149388924Y-107599500D01*
X149388921Y-107599497D01*
X149286196Y-107520673D01*
X149286194Y-107520672D01*
X149279643Y-107515645D01*
X149144754Y-107459772D01*
X149000000Y-107440715D01*
X148991812Y-107441793D01*
X148863432Y-107458694D01*
X148863430Y-107458695D01*
X148855246Y-107459772D01*
X148814444Y-107476673D01*
X148727986Y-107512485D01*
X148727984Y-107512486D01*
X148720358Y-107515645D01*
X148604526Y-107604526D01*
X148515645Y-107720358D01*
X148512486Y-107727984D01*
X148512485Y-107727986D01*
X148480688Y-107804751D01*
X148459772Y-107855246D01*
X148458695Y-107863430D01*
X148458694Y-107863432D01*
X148452614Y-107909614D01*
X148440715Y-108000000D01*
X148441793Y-108008188D01*
X148458474Y-108134893D01*
X148459772Y-108144754D01*
X148462931Y-108152380D01*
X148500565Y-108243235D01*
X148515645Y-108279642D01*
X148604526Y-108395474D01*
X148609137Y-108399012D01*
X148642621Y-108460332D01*
X148645500Y-108487115D01*
X148645500Y-109019500D01*
X148625498Y-109087621D01*
X148571842Y-109134114D01*
X148519500Y-109145500D01*
X144891093Y-109145500D01*
X144822972Y-109125498D01*
X144774684Y-109067719D01*
X144737515Y-108977987D01*
X144734355Y-108970358D01*
X144645474Y-108854526D01*
X144638924Y-108849500D01*
X144638921Y-108849497D01*
X144536196Y-108770673D01*
X144536194Y-108770672D01*
X144529643Y-108765645D01*
X144394754Y-108709772D01*
X144250000Y-108690715D01*
X144241812Y-108691793D01*
X144113432Y-108708694D01*
X144113430Y-108708695D01*
X144105246Y-108709772D01*
X144057430Y-108729578D01*
X143977986Y-108762485D01*
X143977984Y-108762486D01*
X143970358Y-108765645D01*
X143854526Y-108854526D01*
X143765645Y-108970358D01*
X143762486Y-108977984D01*
X143762485Y-108977986D01*
X143729578Y-109057430D01*
X143709772Y-109105246D01*
X143708695Y-109113430D01*
X143708694Y-109113432D01*
X143693841Y-109226255D01*
X143690715Y-109250000D01*
X140700931Y-109250000D01*
X140437611Y-108984372D01*
X140432944Y-108979403D01*
X139965726Y-108454087D01*
X139961336Y-108448873D01*
X139591983Y-107985363D01*
X144926000Y-107985363D01*
X144926425Y-107992667D01*
X144940380Y-108112366D01*
X144943725Y-108126519D01*
X144998721Y-108278030D01*
X145005231Y-108291029D01*
X145093608Y-108425826D01*
X145102932Y-108436978D01*
X145219947Y-108547828D01*
X145231592Y-108556540D01*
X145370966Y-108637494D01*
X145384304Y-108643294D01*
X145408662Y-108650671D01*
X145422764Y-108650791D01*
X145426000Y-108643861D01*
X145426000Y-108638254D01*
X145934000Y-108638254D01*
X145937973Y-108651785D01*
X145943056Y-108652516D01*
X146049388Y-108607271D01*
X146062012Y-108600071D01*
X146191833Y-108504533D01*
X146202464Y-108494619D01*
X146306828Y-108371775D01*
X146314890Y-108359687D01*
X146391522Y-108209613D01*
X146393936Y-108210846D01*
X146428904Y-108164035D01*
X146495399Y-108139157D01*
X146564788Y-108154178D01*
X146604478Y-108188123D01*
X146696696Y-108308304D01*
X146817750Y-108401192D01*
X146958720Y-108459584D01*
X147072020Y-108474500D01*
X147147980Y-108474500D01*
X147261280Y-108459584D01*
X147402250Y-108401192D01*
X147523304Y-108308304D01*
X147616192Y-108187250D01*
X147674584Y-108046280D01*
X147694500Y-107895000D01*
X147674584Y-107743720D01*
X147616192Y-107602750D01*
X147523304Y-107481696D01*
X147402250Y-107388808D01*
X147261280Y-107330416D01*
X147189385Y-107320951D01*
X147152067Y-107316038D01*
X147152066Y-107316038D01*
X147147980Y-107315500D01*
X147072020Y-107315500D01*
X147067934Y-107316038D01*
X147067933Y-107316038D01*
X147030615Y-107320951D01*
X146958720Y-107330416D01*
X146817750Y-107388808D01*
X146696696Y-107481696D01*
X146691673Y-107488242D01*
X146608835Y-107596199D01*
X146603808Y-107602750D01*
X146602392Y-107606169D01*
X146552535Y-107653707D01*
X146482821Y-107667143D01*
X146459624Y-107657209D01*
X146459559Y-107657507D01*
X146420452Y-107649000D01*
X145952115Y-107649000D01*
X145936876Y-107653475D01*
X145935671Y-107654865D01*
X145934000Y-107662548D01*
X145934000Y-108638254D01*
X145426000Y-108638254D01*
X145426000Y-107667115D01*
X145421525Y-107651876D01*
X145420135Y-107650671D01*
X145412452Y-107649000D01*
X144944115Y-107649000D01*
X144928876Y-107653475D01*
X144927671Y-107654865D01*
X144926000Y-107662548D01*
X144926000Y-107985363D01*
X139591983Y-107985363D01*
X139523225Y-107899077D01*
X139519123Y-107893633D01*
X139118125Y-107330416D01*
X139111383Y-107320947D01*
X139107584Y-107315293D01*
X139093793Y-107293519D01*
X138833722Y-106882921D01*
X138731409Y-106721390D01*
X138727919Y-106715535D01*
X138721230Y-106703591D01*
X139419922Y-106703591D01*
X139420279Y-106710407D01*
X139420279Y-106710411D01*
X139427021Y-106839037D01*
X139429321Y-106882921D01*
X139477008Y-107056049D01*
X139560760Y-107214898D01*
X139676668Y-107352058D01*
X139682091Y-107356205D01*
X139682093Y-107356206D01*
X139813905Y-107456984D01*
X139813909Y-107456987D01*
X139819326Y-107461128D01*
X139825506Y-107464010D01*
X139825508Y-107464011D01*
X139975900Y-107534140D01*
X139975903Y-107534141D01*
X139982077Y-107537020D01*
X139988725Y-107538506D01*
X139988728Y-107538507D01*
X140152290Y-107575067D01*
X140152291Y-107575067D01*
X140157328Y-107576193D01*
X140162819Y-107576500D01*
X140294866Y-107576500D01*
X140428525Y-107561980D01*
X140551271Y-107520672D01*
X140592257Y-107506879D01*
X140592259Y-107506878D01*
X140598722Y-107504703D01*
X140752648Y-107412214D01*
X140757610Y-107407522D01*
X140878165Y-107293519D01*
X140878167Y-107293517D01*
X140883123Y-107288830D01*
X140984060Y-107140306D01*
X140991028Y-107122885D01*
X144926000Y-107122885D01*
X144930475Y-107138124D01*
X144931865Y-107139329D01*
X144939548Y-107141000D01*
X145407885Y-107141000D01*
X145423124Y-107136525D01*
X145424329Y-107135135D01*
X145426000Y-107127452D01*
X145426000Y-107122885D01*
X145934000Y-107122885D01*
X145938475Y-107138124D01*
X145939865Y-107139329D01*
X145947548Y-107141000D01*
X146415885Y-107141000D01*
X146431124Y-107136525D01*
X146432329Y-107135135D01*
X146434000Y-107127452D01*
X146434000Y-107122885D01*
X153566000Y-107122885D01*
X153570475Y-107138124D01*
X153571865Y-107139329D01*
X153579548Y-107141000D01*
X154047885Y-107141000D01*
X154063124Y-107136525D01*
X154064329Y-107135135D01*
X154066000Y-107127452D01*
X154066000Y-107122885D01*
X154574000Y-107122885D01*
X154578475Y-107138124D01*
X154579865Y-107139329D01*
X154587548Y-107141000D01*
X155055885Y-107141000D01*
X155071124Y-107136525D01*
X155072329Y-107135135D01*
X155074000Y-107127452D01*
X155074000Y-106804637D01*
X155073575Y-106797333D01*
X155059620Y-106677634D01*
X155056275Y-106663481D01*
X155001279Y-106511970D01*
X154994769Y-106498971D01*
X154906392Y-106364174D01*
X154897068Y-106353022D01*
X154780053Y-106242172D01*
X154768408Y-106233460D01*
X154629034Y-106152506D01*
X154615696Y-106146706D01*
X154591338Y-106139329D01*
X154577236Y-106139209D01*
X154574000Y-106146139D01*
X154574000Y-107122885D01*
X154066000Y-107122885D01*
X154066000Y-106151746D01*
X154062027Y-106138215D01*
X154056944Y-106137484D01*
X153950612Y-106182729D01*
X153937988Y-106189929D01*
X153808167Y-106285467D01*
X153797536Y-106295381D01*
X153693172Y-106418225D01*
X153685110Y-106430313D01*
X153611805Y-106573871D01*
X153606738Y-106587496D01*
X153568023Y-106745716D01*
X153566340Y-106756775D01*
X153566120Y-106760321D01*
X153566000Y-106764199D01*
X153566000Y-107122885D01*
X146434000Y-107122885D01*
X146434000Y-106804637D01*
X146433575Y-106797333D01*
X146419620Y-106677634D01*
X146416275Y-106663481D01*
X146361279Y-106511970D01*
X146354769Y-106498971D01*
X146266392Y-106364174D01*
X146257068Y-106353022D01*
X146140053Y-106242172D01*
X146128408Y-106233460D01*
X145989034Y-106152506D01*
X145975696Y-106146706D01*
X145951338Y-106139329D01*
X145937236Y-106139209D01*
X145934000Y-106146139D01*
X145934000Y-107122885D01*
X145426000Y-107122885D01*
X145426000Y-106151746D01*
X145422027Y-106138215D01*
X145416944Y-106137484D01*
X145310612Y-106182729D01*
X145297988Y-106189929D01*
X145168167Y-106285467D01*
X145157536Y-106295381D01*
X145053172Y-106418225D01*
X145045110Y-106430313D01*
X144971805Y-106573871D01*
X144966738Y-106587496D01*
X144928023Y-106745716D01*
X144926340Y-106756775D01*
X144926120Y-106760321D01*
X144926000Y-106764199D01*
X144926000Y-107122885D01*
X140991028Y-107122885D01*
X141050748Y-106973573D01*
X141080078Y-106796409D01*
X141075996Y-106718514D01*
X141071036Y-106623892D01*
X141070679Y-106617079D01*
X141022992Y-106443951D01*
X140939240Y-106285102D01*
X140823332Y-106147942D01*
X140810610Y-106138215D01*
X140686095Y-106043016D01*
X140686091Y-106043013D01*
X140680674Y-106038872D01*
X140674494Y-106035990D01*
X140674492Y-106035989D01*
X140524100Y-105965860D01*
X140524097Y-105965859D01*
X140517923Y-105962980D01*
X140511275Y-105961494D01*
X140511272Y-105961493D01*
X140347710Y-105924933D01*
X140347709Y-105924933D01*
X140342672Y-105923807D01*
X140337181Y-105923500D01*
X140205134Y-105923500D01*
X140071475Y-105938020D01*
X140060677Y-105941654D01*
X139907743Y-105993121D01*
X139907741Y-105993122D01*
X139901278Y-105995297D01*
X139747352Y-106087786D01*
X139742392Y-106092477D01*
X139742390Y-106092478D01*
X139639339Y-106189929D01*
X139616877Y-106211170D01*
X139515940Y-106359694D01*
X139449252Y-106526427D01*
X139448138Y-106533157D01*
X139448137Y-106533160D01*
X139439142Y-106587496D01*
X139419922Y-106703591D01*
X138721230Y-106703591D01*
X138525478Y-106354051D01*
X138384412Y-106102159D01*
X138381259Y-106096156D01*
X138071413Y-105465076D01*
X138068580Y-105458888D01*
X137793325Y-104811997D01*
X137790827Y-104805655D01*
X137751609Y-104697611D01*
X149166827Y-104697611D01*
X149185884Y-104842365D01*
X149189043Y-104849991D01*
X149226141Y-104939552D01*
X149241757Y-104977253D01*
X149330638Y-105093085D01*
X149337188Y-105098111D01*
X149337191Y-105098114D01*
X149439916Y-105176938D01*
X149446469Y-105181966D01*
X149581358Y-105237839D01*
X149726112Y-105256896D01*
X149731876Y-105256137D01*
X149798910Y-105275820D01*
X149819884Y-105292722D01*
X150468817Y-105941654D01*
X150496131Y-105982532D01*
X150515645Y-106029642D01*
X150525907Y-106043016D01*
X150571302Y-106102175D01*
X150604526Y-106145474D01*
X150611076Y-106150500D01*
X150611079Y-106150503D01*
X150698343Y-106217463D01*
X150720357Y-106234355D01*
X150855246Y-106290228D01*
X151000000Y-106309285D01*
X151008188Y-106308207D01*
X151136566Y-106291306D01*
X151144754Y-106290228D01*
X151279643Y-106234355D01*
X151301657Y-106217463D01*
X151388921Y-106150503D01*
X151388924Y-106150500D01*
X151395474Y-106145474D01*
X151428699Y-106102175D01*
X151474093Y-106043016D01*
X151484355Y-106029642D01*
X151498582Y-105995297D01*
X151537069Y-105902380D01*
X151540228Y-105894754D01*
X151559285Y-105750000D01*
X151556159Y-105726255D01*
X151541306Y-105613432D01*
X151541305Y-105613430D01*
X151540228Y-105605246D01*
X151484355Y-105470358D01*
X151395474Y-105354526D01*
X151388924Y-105349500D01*
X151388921Y-105349497D01*
X151286196Y-105270673D01*
X151286194Y-105270672D01*
X151279643Y-105265645D01*
X151162779Y-105217238D01*
X151152383Y-105212932D01*
X151144754Y-105209772D01*
X151000000Y-105190715D01*
X150991812Y-105191793D01*
X150863432Y-105208694D01*
X150863430Y-105208695D01*
X150855246Y-105209772D01*
X150847621Y-105212931D01*
X150839636Y-105215070D01*
X150839012Y-105212740D01*
X150780665Y-105219010D01*
X150713947Y-105184108D01*
X150525354Y-104995514D01*
X150321223Y-104791383D01*
X150287198Y-104729071D01*
X150284527Y-104704221D01*
X150285397Y-104697611D01*
X150270826Y-104586932D01*
X150267418Y-104561043D01*
X150267417Y-104561041D01*
X150266340Y-104552857D01*
X150245365Y-104502219D01*
X150213627Y-104425597D01*
X150213626Y-104425595D01*
X150210467Y-104417969D01*
X150166027Y-104360053D01*
X150126613Y-104308688D01*
X150126612Y-104308687D01*
X150121586Y-104302137D01*
X150115036Y-104297111D01*
X150115033Y-104297108D01*
X150012308Y-104218284D01*
X150012306Y-104218283D01*
X150005755Y-104213256D01*
X149870866Y-104157383D01*
X149726112Y-104138326D01*
X149717924Y-104139404D01*
X149589544Y-104156305D01*
X149589542Y-104156306D01*
X149581358Y-104157383D01*
X149533542Y-104177189D01*
X149454098Y-104210096D01*
X149454096Y-104210097D01*
X149446470Y-104213256D01*
X149330638Y-104302137D01*
X149241757Y-104417969D01*
X149238598Y-104425595D01*
X149238597Y-104425597D01*
X149206859Y-104502219D01*
X149185884Y-104552857D01*
X149184807Y-104561041D01*
X149184806Y-104561043D01*
X149181398Y-104586932D01*
X149166827Y-104697611D01*
X137751609Y-104697611D01*
X137550958Y-104144826D01*
X137548807Y-104138358D01*
X137345032Y-103465546D01*
X137343233Y-103458971D01*
X137207332Y-102903591D01*
X137176138Y-102776111D01*
X137174698Y-102769454D01*
X137173388Y-102762485D01*
X137107509Y-102412156D01*
X137044773Y-102078541D01*
X137043695Y-102071810D01*
X136951325Y-101374889D01*
X136950613Y-101368110D01*
X136896068Y-100667232D01*
X136895723Y-100660425D01*
X136882910Y-100116709D01*
X136879160Y-99957595D01*
X136879184Y-99950788D01*
X136885282Y-99751221D01*
X136891434Y-99549852D01*
X136900653Y-99248117D01*
X136901045Y-99241312D01*
X136947005Y-98699649D01*
X145590951Y-98699649D01*
X145604829Y-98911377D01*
X145657058Y-99117031D01*
X145745890Y-99309723D01*
X145868350Y-99483000D01*
X146020337Y-99631059D01*
X146025133Y-99634264D01*
X146025136Y-99634266D01*
X146167186Y-99729180D01*
X146196760Y-99748941D01*
X146202063Y-99751219D01*
X146202066Y-99751221D01*
X146283908Y-99786383D01*
X146391711Y-99832699D01*
X146454504Y-99846908D01*
X146541566Y-99866608D01*
X146603593Y-99901151D01*
X146637097Y-99963744D01*
X146631443Y-100034516D01*
X146588424Y-100090995D01*
X146521699Y-100115250D01*
X146513770Y-100115501D01*
X145824934Y-100115501D01*
X145789182Y-100122612D01*
X145762874Y-100127844D01*
X145762872Y-100127845D01*
X145750699Y-100130266D01*
X145740379Y-100137161D01*
X145740378Y-100137162D01*
X145679985Y-100177516D01*
X145666516Y-100186516D01*
X145610266Y-100270699D01*
X145595500Y-100344933D01*
X145595501Y-102195066D01*
X145610266Y-102269301D01*
X145666516Y-102353484D01*
X145750699Y-102409734D01*
X145824933Y-102424500D01*
X146749850Y-102424500D01*
X147675066Y-102424499D01*
X147710818Y-102417388D01*
X147737126Y-102412156D01*
X147737128Y-102412155D01*
X147749301Y-102409734D01*
X147759621Y-102402839D01*
X147759622Y-102402838D01*
X147823168Y-102360377D01*
X147833484Y-102353484D01*
X147889734Y-102269301D01*
X147904500Y-102195067D01*
X147904499Y-100344934D01*
X147889734Y-100270699D01*
X147833484Y-100186516D01*
X147749301Y-100130266D01*
X147675067Y-100115500D01*
X146987750Y-100115500D01*
X146919629Y-100095498D01*
X146873136Y-100041842D01*
X146863032Y-99971568D01*
X146892526Y-99906988D01*
X146952252Y-99868604D01*
X146969665Y-99864805D01*
X147020667Y-99857410D01*
X147026131Y-99855555D01*
X147026136Y-99855554D01*
X147119240Y-99823949D01*
X147221589Y-99789207D01*
X147299221Y-99745731D01*
X147401670Y-99688357D01*
X147401674Y-99688354D01*
X147406717Y-99685530D01*
X147569852Y-99549852D01*
X147705530Y-99386717D01*
X147708354Y-99381674D01*
X147708357Y-99381670D01*
X147806383Y-99206632D01*
X147806384Y-99206630D01*
X147809207Y-99201589D01*
X147877410Y-99000667D01*
X147889545Y-98916979D01*
X147907324Y-98794355D01*
X147907857Y-98790681D01*
X147909446Y-98730000D01*
X147906657Y-98699649D01*
X152090951Y-98699649D01*
X152104829Y-98911377D01*
X152157058Y-99117031D01*
X152245890Y-99309723D01*
X152368350Y-99483000D01*
X152520337Y-99631059D01*
X152525133Y-99634264D01*
X152525136Y-99634266D01*
X152667186Y-99729180D01*
X152696760Y-99748941D01*
X152702063Y-99751219D01*
X152702066Y-99751221D01*
X152783908Y-99786383D01*
X152891711Y-99832699D01*
X152954504Y-99846908D01*
X153041566Y-99866608D01*
X153103593Y-99901151D01*
X153137097Y-99963744D01*
X153131443Y-100034516D01*
X153088424Y-100090995D01*
X153021699Y-100115250D01*
X153013770Y-100115501D01*
X152324934Y-100115501D01*
X152289182Y-100122612D01*
X152262874Y-100127844D01*
X152262872Y-100127845D01*
X152250699Y-100130266D01*
X152240379Y-100137161D01*
X152240378Y-100137162D01*
X152179985Y-100177516D01*
X152166516Y-100186516D01*
X152110266Y-100270699D01*
X152095500Y-100344933D01*
X152095501Y-102195066D01*
X152110266Y-102269301D01*
X152166516Y-102353484D01*
X152250699Y-102409734D01*
X152324933Y-102424500D01*
X153249850Y-102424500D01*
X154175066Y-102424499D01*
X154205287Y-102418488D01*
X154216043Y-102416349D01*
X154286757Y-102422678D01*
X154342823Y-102466233D01*
X154366442Y-102533186D01*
X154350113Y-102602280D01*
X154329717Y-102629023D01*
X154285614Y-102673126D01*
X154223302Y-102707152D01*
X154215825Y-102708455D01*
X154214931Y-102708694D01*
X154206746Y-102709772D01*
X154199124Y-102712929D01*
X154199121Y-102712930D01*
X154079486Y-102762485D01*
X154079484Y-102762486D01*
X154071858Y-102765645D01*
X153956026Y-102854526D01*
X153867145Y-102970358D01*
X153811272Y-103105246D01*
X153792215Y-103250000D01*
X153811272Y-103394754D01*
X153814431Y-103402380D01*
X153852453Y-103494172D01*
X153867145Y-103529642D01*
X153872171Y-103536192D01*
X153876301Y-103543345D01*
X153874696Y-103544272D01*
X153896563Y-103600842D01*
X153897000Y-103611322D01*
X153897000Y-104362178D01*
X153876998Y-104430299D01*
X153872637Y-104436501D01*
X153872171Y-104437308D01*
X153867145Y-104443858D01*
X153863986Y-104451484D01*
X153863985Y-104451486D01*
X153838204Y-104513728D01*
X153811272Y-104578746D01*
X153792215Y-104723500D01*
X153793293Y-104731688D01*
X153808868Y-104849991D01*
X153811272Y-104868254D01*
X153814431Y-104875880D01*
X153853262Y-104969625D01*
X153867145Y-105003142D01*
X153872172Y-105009693D01*
X153940020Y-105098114D01*
X153956026Y-105118974D01*
X153962576Y-105124000D01*
X153962579Y-105124003D01*
X154065304Y-105202827D01*
X154071857Y-105207855D01*
X154206746Y-105263728D01*
X154351500Y-105282785D01*
X154359688Y-105281707D01*
X154488066Y-105264806D01*
X154496254Y-105263728D01*
X154631143Y-105207855D01*
X154637696Y-105202827D01*
X154740421Y-105124003D01*
X154740424Y-105124000D01*
X154746974Y-105118974D01*
X154762981Y-105098114D01*
X154830828Y-105009693D01*
X154835855Y-105003142D01*
X154849739Y-104969625D01*
X154888569Y-104875880D01*
X154891728Y-104868254D01*
X154894133Y-104849991D01*
X154909707Y-104731688D01*
X154910785Y-104723500D01*
X154891728Y-104578746D01*
X154860029Y-104502218D01*
X154852440Y-104431629D01*
X154884219Y-104368142D01*
X154945277Y-104331914D01*
X154976438Y-104328000D01*
X159512886Y-104328000D01*
X159581007Y-104348002D01*
X159600468Y-104363686D01*
X159604526Y-104368974D01*
X159611076Y-104374000D01*
X159712057Y-104451486D01*
X159720357Y-104457855D01*
X159855246Y-104513728D01*
X160000000Y-104532785D01*
X160008188Y-104531707D01*
X160136566Y-104514806D01*
X160144754Y-104513728D01*
X160279643Y-104457855D01*
X160286196Y-104452827D01*
X160388921Y-104374003D01*
X160388924Y-104374000D01*
X160395474Y-104368974D01*
X160411567Y-104348002D01*
X160450619Y-104297108D01*
X160484355Y-104253142D01*
X160500877Y-104213256D01*
X160531467Y-104139404D01*
X160540228Y-104118254D01*
X160559285Y-103973500D01*
X160540228Y-103828746D01*
X160484355Y-103693858D01*
X160439915Y-103635942D01*
X160400501Y-103584577D01*
X160400500Y-103584576D01*
X160395474Y-103578026D01*
X160388924Y-103573000D01*
X160388921Y-103572997D01*
X160286196Y-103494173D01*
X160286194Y-103494172D01*
X160279643Y-103489145D01*
X160144754Y-103433272D01*
X160000000Y-103414215D01*
X159991812Y-103415293D01*
X159863432Y-103432194D01*
X159863430Y-103432195D01*
X159855246Y-103433272D01*
X159827459Y-103444782D01*
X159727986Y-103485985D01*
X159727984Y-103485986D01*
X159720358Y-103489145D01*
X159677522Y-103522014D01*
X159647121Y-103545342D01*
X159604526Y-103578026D01*
X159600989Y-103582635D01*
X159539673Y-103616120D01*
X159512886Y-103619000D01*
X154987415Y-103619000D01*
X154919294Y-103598998D01*
X154872801Y-103545342D01*
X154862697Y-103475068D01*
X154871006Y-103444782D01*
X154888569Y-103402382D01*
X154888570Y-103402378D01*
X154891728Y-103394754D01*
X154892806Y-103386568D01*
X154894943Y-103378591D01*
X154896732Y-103379070D01*
X154921274Y-103323602D01*
X154928374Y-103315886D01*
X155297011Y-102947249D01*
X155308100Y-102937394D01*
X155327662Y-102921972D01*
X155335059Y-102916141D01*
X155368753Y-102867390D01*
X155371026Y-102864210D01*
X155400609Y-102824158D01*
X155400610Y-102824157D01*
X155406208Y-102816577D01*
X155408621Y-102809705D01*
X155412764Y-102803711D01*
X155430635Y-102747203D01*
X155431886Y-102743454D01*
X155451492Y-102687627D01*
X155451775Y-102680424D01*
X155451808Y-102680255D01*
X155453975Y-102673403D01*
X155454500Y-102666732D01*
X155454500Y-102613552D01*
X155454597Y-102608605D01*
X155456488Y-102560475D01*
X155456858Y-102551063D01*
X155454961Y-102543908D01*
X155454500Y-102535533D01*
X155454500Y-102111322D01*
X155474502Y-102043201D01*
X155478863Y-102036999D01*
X155479329Y-102036192D01*
X155484355Y-102029642D01*
X155540228Y-101894754D01*
X155559285Y-101750000D01*
X155540228Y-101605246D01*
X155520422Y-101557430D01*
X155487515Y-101477986D01*
X155487514Y-101477984D01*
X155484355Y-101470358D01*
X155411099Y-101374889D01*
X155400501Y-101361077D01*
X155400500Y-101361076D01*
X155395474Y-101354526D01*
X155388924Y-101349500D01*
X155388921Y-101349497D01*
X155286196Y-101270673D01*
X155286194Y-101270672D01*
X155279643Y-101265645D01*
X155144754Y-101209772D01*
X155000000Y-101190715D01*
X154991812Y-101191793D01*
X154863432Y-101208694D01*
X154863430Y-101208695D01*
X154855246Y-101209772D01*
X154807430Y-101229578D01*
X154727986Y-101262485D01*
X154727984Y-101262486D01*
X154720358Y-101265645D01*
X154713807Y-101270671D01*
X154713803Y-101270674D01*
X154607202Y-101352471D01*
X154540982Y-101378071D01*
X154471433Y-101363806D01*
X154420638Y-101314205D01*
X154404499Y-101252508D01*
X154404499Y-100344934D01*
X154389734Y-100270699D01*
X154333484Y-100186516D01*
X154249301Y-100130266D01*
X154175067Y-100115500D01*
X153487750Y-100115500D01*
X153419629Y-100095498D01*
X153373136Y-100041842D01*
X153363032Y-99971568D01*
X153392526Y-99906988D01*
X153452252Y-99868604D01*
X153469665Y-99864805D01*
X153520667Y-99857410D01*
X153526131Y-99855555D01*
X153526136Y-99855554D01*
X153619240Y-99823949D01*
X153721589Y-99789207D01*
X153799221Y-99745731D01*
X153901670Y-99688357D01*
X153901674Y-99688354D01*
X153906717Y-99685530D01*
X154069852Y-99549852D01*
X154205530Y-99386717D01*
X154208354Y-99381674D01*
X154208357Y-99381670D01*
X154306383Y-99206632D01*
X154306384Y-99206630D01*
X154309207Y-99201589D01*
X154377410Y-99000667D01*
X154389545Y-98916979D01*
X154407324Y-98794355D01*
X154407857Y-98790681D01*
X154409446Y-98730000D01*
X154391750Y-98537416D01*
X154390560Y-98524462D01*
X154390559Y-98524459D01*
X154390031Y-98518708D01*
X154332436Y-98314492D01*
X154238590Y-98124191D01*
X154111636Y-97954179D01*
X154087524Y-97931890D01*
X153960066Y-97814069D01*
X153960063Y-97814067D01*
X153955826Y-97810150D01*
X153776377Y-97696926D01*
X153579300Y-97618300D01*
X153573643Y-97617175D01*
X153573637Y-97617173D01*
X153376863Y-97578033D01*
X153376859Y-97578033D01*
X153371195Y-97576906D01*
X153365420Y-97576830D01*
X153365416Y-97576830D01*
X153258804Y-97575434D01*
X153159031Y-97574128D01*
X153153334Y-97575107D01*
X153153333Y-97575107D01*
X153136305Y-97578033D01*
X152949913Y-97610061D01*
X152750846Y-97683501D01*
X152745885Y-97686453D01*
X152745884Y-97686453D01*
X152573463Y-97789032D01*
X152573460Y-97789034D01*
X152568495Y-97791988D01*
X152564155Y-97795794D01*
X152564151Y-97795797D01*
X152464733Y-97882985D01*
X152408968Y-97931890D01*
X152277607Y-98098520D01*
X152178812Y-98286299D01*
X152115891Y-98488938D01*
X152090951Y-98699649D01*
X147906657Y-98699649D01*
X147891750Y-98537416D01*
X147890560Y-98524462D01*
X147890559Y-98524459D01*
X147890031Y-98518708D01*
X147832436Y-98314492D01*
X147738590Y-98124191D01*
X147611636Y-97954179D01*
X147587524Y-97931890D01*
X147460066Y-97814069D01*
X147460063Y-97814067D01*
X147455826Y-97810150D01*
X147276377Y-97696926D01*
X147079300Y-97618300D01*
X147073643Y-97617175D01*
X147073637Y-97617173D01*
X146876863Y-97578033D01*
X146876859Y-97578033D01*
X146871195Y-97576906D01*
X146865420Y-97576830D01*
X146865416Y-97576830D01*
X146758804Y-97575434D01*
X146659031Y-97574128D01*
X146653334Y-97575107D01*
X146653333Y-97575107D01*
X146636305Y-97578033D01*
X146449913Y-97610061D01*
X146250846Y-97683501D01*
X146245885Y-97686453D01*
X146245884Y-97686453D01*
X146073463Y-97789032D01*
X146073460Y-97789034D01*
X146068495Y-97791988D01*
X146064155Y-97795794D01*
X146064151Y-97795797D01*
X145964733Y-97882985D01*
X145908968Y-97931890D01*
X145777607Y-98098520D01*
X145678812Y-98286299D01*
X145615891Y-98488938D01*
X145590951Y-98699649D01*
X136947005Y-98699649D01*
X136960483Y-98540810D01*
X136961243Y-98534036D01*
X136995840Y-98286299D01*
X137058477Y-97837779D01*
X137059600Y-97831065D01*
X137063685Y-97810150D01*
X137194343Y-97141087D01*
X137195830Y-97134435D01*
X137223209Y-97025835D01*
X137367691Y-96452749D01*
X137369525Y-96446222D01*
X137578005Y-95774805D01*
X137580202Y-95768352D01*
X137824677Y-95109218D01*
X137827220Y-95102893D01*
X137889693Y-94958873D01*
X138106977Y-94457959D01*
X138109857Y-94451782D01*
X138424092Y-93822898D01*
X138427303Y-93816885D01*
X138756084Y-93239301D01*
X138775084Y-93205922D01*
X138778598Y-93200119D01*
X139158918Y-92608845D01*
X139162759Y-92603214D01*
X139574489Y-92033386D01*
X139578629Y-92027971D01*
X139943868Y-91576131D01*
X140020582Y-91481229D01*
X140024989Y-91476068D01*
X140362342Y-91102058D01*
X140495862Y-90954029D01*
X140500563Y-90949093D01*
X140747354Y-90703591D01*
X141919922Y-90703591D01*
X141920279Y-90710407D01*
X141920279Y-90710411D01*
X141927631Y-90850669D01*
X141929321Y-90882921D01*
X141977008Y-91056049D01*
X142060760Y-91214898D01*
X142176668Y-91352058D01*
X142182091Y-91356205D01*
X142182093Y-91356206D01*
X142313905Y-91456984D01*
X142313909Y-91456987D01*
X142319326Y-91461128D01*
X142325506Y-91464010D01*
X142325508Y-91464011D01*
X142475900Y-91534140D01*
X142475903Y-91534141D01*
X142482077Y-91537020D01*
X142488725Y-91538506D01*
X142488728Y-91538507D01*
X142652290Y-91575067D01*
X142652291Y-91575067D01*
X142657328Y-91576193D01*
X142662819Y-91576500D01*
X142794866Y-91576500D01*
X142928525Y-91561980D01*
X143011251Y-91534140D01*
X143092257Y-91506879D01*
X143092259Y-91506878D01*
X143098722Y-91504703D01*
X143252648Y-91412214D01*
X143311875Y-91356206D01*
X143378165Y-91293519D01*
X143378167Y-91293517D01*
X143383123Y-91288830D01*
X143484060Y-91140306D01*
X143550748Y-90973573D01*
X143552185Y-90964898D01*
X143578963Y-90803146D01*
X143578963Y-90803143D01*
X143580078Y-90796409D01*
X143570679Y-90617079D01*
X143522992Y-90443951D01*
X143439240Y-90285102D01*
X143323332Y-90147942D01*
X143317907Y-90143794D01*
X143186095Y-90043016D01*
X143186091Y-90043013D01*
X143180674Y-90038872D01*
X143174494Y-90035990D01*
X143174492Y-90035989D01*
X143024100Y-89965860D01*
X143024097Y-89965859D01*
X143017923Y-89962980D01*
X143011275Y-89961494D01*
X143011272Y-89961493D01*
X142847710Y-89924933D01*
X142847709Y-89924933D01*
X142842672Y-89923807D01*
X142837181Y-89923500D01*
X142705134Y-89923500D01*
X142571475Y-89938020D01*
X142501726Y-89961493D01*
X142407743Y-89993121D01*
X142407741Y-89993122D01*
X142401278Y-89995297D01*
X142247352Y-90087786D01*
X142242392Y-90092477D01*
X142242390Y-90092478D01*
X142135086Y-90193951D01*
X142116877Y-90211170D01*
X142015940Y-90359694D01*
X141949252Y-90526427D01*
X141948138Y-90533157D01*
X141948137Y-90533160D01*
X141921037Y-90696854D01*
X141919922Y-90703591D01*
X140747354Y-90703591D01*
X140998960Y-90453299D01*
X141003921Y-90448624D01*
X141528400Y-89980508D01*
X141533606Y-89976108D01*
X142082645Y-89537031D01*
X142088082Y-89532919D01*
X142287883Y-89390139D01*
X142660079Y-89124164D01*
X142665700Y-89120373D01*
X143258946Y-88743161D01*
X143264791Y-88739662D01*
X143877573Y-88395082D01*
X143883603Y-88391903D01*
X144514109Y-88080972D01*
X144520301Y-88078124D01*
X145166693Y-87801748D01*
X145173031Y-87799238D01*
X145833457Y-87558209D01*
X145839921Y-87556047D01*
X146512363Y-87351102D01*
X146518931Y-87349292D01*
X146679853Y-87309617D01*
X147201520Y-87181001D01*
X147208180Y-87179549D01*
X147553514Y-87113985D01*
X147898861Y-87048419D01*
X147905561Y-87047333D01*
X148602338Y-86953745D01*
X148609114Y-86953021D01*
X149309897Y-86897253D01*
X149316704Y-86896896D01*
X149621349Y-86889184D01*
X150019502Y-86879106D01*
X150026302Y-86879118D01*
G37*
%TD.AperFunction*%
%TD*%
M02*
