%TF.GenerationSoftware,KiCad,Pcbnew,(6.0.0-0)*%
%TF.CreationDate,2022-01-05T16:19:23+01:00*%
%TF.ProjectId,IEC-62056-21-Optical-Probe,4945432d-3632-4303-9536-2d32312d4f70,1*%
%TF.SameCoordinates,Original*%
%TF.FileFunction,Soldermask,Top*%
%TF.FilePolarity,Negative*%
%FSLAX46Y46*%
G04 Gerber Fmt 4.6, Leading zero omitted, Abs format (unit mm)*
G04 Created by KiCad (PCBNEW (6.0.0-0)) date 2022-01-05 16:19:23*
%MOMM*%
%LPD*%
G01*
G04 APERTURE LIST*
G04 Aperture macros list*
%AMRoundRect*
0 Rectangle with rounded corners*
0 $1 Rounding radius*
0 $2 $3 $4 $5 $6 $7 $8 $9 X,Y pos of 4 corners*
0 Add a 4 corners polygon primitive as box body*
4,1,4,$2,$3,$4,$5,$6,$7,$8,$9,$2,$3,0*
0 Add four circle primitives for the rounded corners*
1,1,$1+$1,$2,$3*
1,1,$1+$1,$4,$5*
1,1,$1+$1,$6,$7*
1,1,$1+$1,$8,$9*
0 Add four rect primitives between the rounded corners*
20,1,$1+$1,$2,$3,$4,$5,0*
20,1,$1+$1,$4,$5,$6,$7,0*
20,1,$1+$1,$6,$7,$8,$9,0*
20,1,$1+$1,$8,$9,$2,$3,0*%
%AMFreePoly0*
4,1,22,0.500000,-0.750000,0.000000,-0.750000,0.000000,-0.745033,-0.079941,-0.743568,-0.215256,-0.701293,-0.333266,-0.622738,-0.424486,-0.514219,-0.481581,-0.384460,-0.499164,-0.250000,-0.500000,-0.250000,-0.500000,0.250000,-0.499164,0.250000,-0.499963,0.256109,-0.478152,0.396186,-0.417904,0.524511,-0.324060,0.630769,-0.204165,0.706417,-0.067858,0.745374,0.000000,0.744959,0.000000,0.750000,
0.500000,0.750000,0.500000,-0.750000,0.500000,-0.750000,$1*%
%AMFreePoly1*
4,1,20,0.000000,0.744959,0.073905,0.744508,0.209726,0.703889,0.328688,0.626782,0.421226,0.519385,0.479903,0.390333,0.500000,0.250000,0.500000,-0.250000,0.499851,-0.262216,0.476331,-0.402017,0.414519,-0.529596,0.319384,-0.634700,0.198574,-0.708877,0.061801,-0.746166,0.000000,-0.745033,0.000000,-0.750000,-0.500000,-0.750000,-0.500000,0.750000,0.000000,0.750000,0.000000,0.744959,
0.000000,0.744959,$1*%
G04 Aperture macros list end*
%ADD10C,1.448000*%
%ADD11RoundRect,0.225000X-0.225000X-0.250000X0.225000X-0.250000X0.225000X0.250000X-0.225000X0.250000X0*%
%ADD12RoundRect,0.200000X0.275000X-0.200000X0.275000X0.200000X-0.275000X0.200000X-0.275000X-0.200000X0*%
%ADD13R,1.800000X1.800000*%
%ADD14R,0.300000X0.900000*%
%ADD15R,0.300000X0.300000*%
%ADD16R,0.900000X0.300000*%
%ADD17O,1.000000X2.100000*%
%ADD18O,1.000000X1.600000*%
%ADD19C,0.650000*%
%ADD20R,0.300000X1.150000*%
%ADD21RoundRect,0.225000X0.250000X-0.225000X0.250000X0.225000X-0.250000X0.225000X-0.250000X-0.225000X0*%
%ADD22RoundRect,0.200000X-0.200000X-0.275000X0.200000X-0.275000X0.200000X0.275000X-0.200000X0.275000X0*%
%ADD23FreePoly0,90.000000*%
%ADD24FreePoly1,90.000000*%
%ADD25RoundRect,0.200000X0.200000X0.275000X-0.200000X0.275000X-0.200000X-0.275000X0.200000X-0.275000X0*%
%ADD26RoundRect,0.225000X0.225000X0.250000X-0.225000X0.250000X-0.225000X-0.250000X0.225000X-0.250000X0*%
%ADD27R,2.000000X2.000000*%
%ADD28RoundRect,0.150000X-0.150000X0.587500X-0.150000X-0.587500X0.150000X-0.587500X0.150000X0.587500X0*%
%ADD29RoundRect,0.125000X0.587500X0.125000X-0.587500X0.125000X-0.587500X-0.125000X0.587500X-0.125000X0*%
%ADD30RoundRect,0.225000X-0.250000X0.225000X-0.250000X-0.225000X0.250000X-0.225000X0.250000X0.225000X0*%
%ADD31RoundRect,0.150000X0.587500X0.150000X-0.587500X0.150000X-0.587500X-0.150000X0.587500X-0.150000X0*%
%ADD32RoundRect,0.200000X-0.275000X0.200000X-0.275000X-0.200000X0.275000X-0.200000X0.275000X0.200000X0*%
%ADD33R,1.200000X1.400000*%
%ADD34R,1.000000X1.400000*%
%ADD35C,1.800000*%
G04 APERTURE END LIST*
D10*
%TO.C,H3*%
X142750000Y-90750000D03*
%TD*%
%TO.C,H2*%
X157500000Y-90500000D03*
%TD*%
%TO.C,H1*%
X140250000Y-106750000D03*
%TD*%
D11*
%TO.C,C7*%
X153475000Y-104750000D03*
X155025000Y-104750000D03*
%TD*%
D12*
%TO.C,R7*%
X161750000Y-104075000D03*
X161750000Y-102425000D03*
%TD*%
D13*
%TO.C,U2*%
X158500000Y-102000000D03*
D14*
X157750000Y-100450000D03*
X158250000Y-100450000D03*
X158750000Y-100450000D03*
X159250000Y-100450000D03*
D15*
X159750000Y-100750000D03*
D16*
X160050000Y-101250000D03*
X160050000Y-101750000D03*
X160050000Y-102250000D03*
X160050000Y-102750000D03*
D15*
X159750000Y-103250000D03*
D14*
X159250000Y-103550000D03*
X158750000Y-103550000D03*
X158250000Y-103550000D03*
X157750000Y-103550000D03*
D15*
X157250000Y-103250000D03*
D16*
X156950000Y-102750000D03*
X156950000Y-102250000D03*
X156950000Y-101750000D03*
X156950000Y-101250000D03*
D15*
X157250000Y-100750000D03*
%TD*%
D17*
%TO.C,J1*%
X145680000Y-107395000D03*
X154320000Y-107395000D03*
D18*
X145680000Y-111575000D03*
X154320000Y-111575000D03*
D19*
X152890000Y-107895000D03*
X147110000Y-107895000D03*
D20*
X153050000Y-106830000D03*
X152250000Y-106830000D03*
X151750000Y-106830000D03*
X151250000Y-106830000D03*
X150750000Y-106830000D03*
X150250000Y-106830000D03*
X149750000Y-106830000D03*
X149250000Y-106830000D03*
X148750000Y-106830000D03*
X148250000Y-106830000D03*
X147450000Y-106830000D03*
X146650000Y-106830000D03*
X146950000Y-106830000D03*
X147750000Y-106830000D03*
X152550000Y-106830000D03*
X153350000Y-106830000D03*
%TD*%
D21*
%TO.C,C4*%
X156500000Y-109775000D03*
X156500000Y-108225000D03*
%TD*%
D22*
%TO.C,R5*%
X159825000Y-105250000D03*
X158175000Y-105250000D03*
%TD*%
D23*
%TO.C,JP1*%
X161250000Y-97650000D03*
D24*
X161250000Y-96350000D03*
%TD*%
D23*
%TO.C,JP2*%
X158750000Y-97650000D03*
D24*
X158750000Y-96350000D03*
%TD*%
D25*
%TO.C,R13*%
X147075000Y-103250000D03*
X145425000Y-103250000D03*
%TD*%
D26*
%TO.C,C6*%
X150275000Y-89000000D03*
X148725000Y-89000000D03*
%TD*%
D27*
%TO.C,TP3*%
X155500000Y-93500000D03*
%TD*%
D28*
%TO.C,Q2*%
X148950000Y-94562500D03*
X147050000Y-94562500D03*
X148000000Y-96437500D03*
%TD*%
D27*
%TO.C,TP5*%
X139500000Y-99500000D03*
%TD*%
D21*
%TO.C,C2*%
X145500000Y-96275000D03*
X145500000Y-94725000D03*
%TD*%
D27*
%TO.C,TP2*%
X159000000Y-93500000D03*
%TD*%
D29*
%TO.C,U3*%
X150637500Y-92450000D03*
X150637500Y-91500000D03*
X150637500Y-90550000D03*
X148362500Y-90550000D03*
X148362500Y-91500000D03*
X148362500Y-92450000D03*
%TD*%
D27*
%TO.C,TP7*%
X143000000Y-104000000D03*
%TD*%
D30*
%TO.C,C3*%
X156500000Y-105225000D03*
X156500000Y-106775000D03*
%TD*%
D23*
%TO.C,JP3*%
X156250000Y-97650000D03*
D24*
X156250000Y-96350000D03*
%TD*%
D11*
%TO.C,C5*%
X153475000Y-103250000D03*
X155025000Y-103250000D03*
%TD*%
D31*
%TO.C,Q4*%
X152937500Y-96450000D03*
X152937500Y-94550000D03*
X151062500Y-95500000D03*
%TD*%
D27*
%TO.C,TP4*%
X143000000Y-99500000D03*
%TD*%
D32*
%TO.C,R2*%
X143500000Y-106675000D03*
X143500000Y-108325000D03*
%TD*%
D12*
%TO.C,R1*%
X142000000Y-108325000D03*
X142000000Y-106675000D03*
%TD*%
D25*
%TO.C,R15*%
X150825000Y-98500000D03*
X149175000Y-98500000D03*
%TD*%
D32*
%TO.C,R12*%
X161750000Y-99425000D03*
X161750000Y-101075000D03*
%TD*%
D11*
%TO.C,C1*%
X149225000Y-100250000D03*
X150775000Y-100250000D03*
%TD*%
D25*
%TO.C,R4*%
X159825000Y-106750000D03*
X158175000Y-106750000D03*
%TD*%
D27*
%TO.C,TP6*%
X139750000Y-104000000D03*
%TD*%
D12*
%TO.C,R14*%
X146500000Y-92325000D03*
X146500000Y-90675000D03*
%TD*%
D32*
%TO.C,R16*%
X152750000Y-90675000D03*
X152750000Y-92325000D03*
%TD*%
D33*
%TO.C,D1*%
X150770000Y-102400000D03*
D34*
X149050000Y-102400000D03*
X149050000Y-104600000D03*
X150950000Y-104600000D03*
%TD*%
D27*
%TO.C,TP1*%
X143000000Y-95000000D03*
%TD*%
D13*
%TO.C,Q3*%
X153250000Y-101270000D03*
D35*
X153250000Y-98730000D03*
%TD*%
D13*
%TO.C,D5*%
X146750000Y-101270000D03*
D35*
X146750000Y-98730000D03*
%TD*%
M02*
