M48
; DRILL file {KiCad (6.0.0-0)} date 2022 January 05, Wednesday 16:19:26
; FORMAT={-:-/ absolute / inch / decimal}
; #@! TF.CreationDate,2022-01-05T16:19:26+01:00
; #@! TF.GenerationSoftware,Kicad,Pcbnew,(6.0.0-0)
; #@! TF.FileFunction,MixedPlating,1,2
FMAT,2
INCH
; #@! TA.AperFunction,Plated,PTH,ViaDrill
T1C0.0118
; #@! TA.AperFunction,Plated,PTH,ComponentDrill
T2C0.0236
; #@! TA.AperFunction,Plated,PTH,ComponentDrill
T3C0.0354
; #@! TA.AperFunction,NonPlated,NPTH,ComponentDrill
T4C0.0256
; #@! TA.AperFunction,NonPlated,NPTH,ComponentDrill
T5C0.0454
%
G90
G05
T1
X5.5906Y-4.2322
X5.6004Y-3.9764
X5.6299Y-3.9764
X5.6496Y-4.2322
X5.6594Y-3.9764
X5.6791Y-4.3012
X5.7283Y-3.8287
X5.7578Y-4.065
X5.8465Y-3.878
X5.8465Y-3.9469
X5.8661Y-4.252
X5.8947Y-4.122
X5.935Y-3.9961
X5.9449Y-4.1634
X5.9547Y-3.5039
X5.972Y-4.2618
X5.9744Y-3.6024
X5.9744Y-3.7205
X5.9744Y-4.3209
X6.0138Y-4.065
X6.0138Y-4.124
X6.0768Y-4.065
X6.0768Y-4.123
X6.1024Y-4.0059
X6.1614Y-4.2263
X6.1614Y-4.3504
X6.2402Y-4.0157
X6.2992Y-4.0934
X6.3189Y-4.1437
X6.3681Y-3.9468
T3
X5.7776Y-3.887
X5.7776Y-3.987
X6.0335Y-3.887
X6.0335Y-3.987
T4
X5.7917Y-4.2478
X6.0193Y-4.2478
T5
X5.5217Y-4.2028
X5.6201Y-3.5728
X6.2008Y-3.563
T2
G00X5.7354Y-4.2065
M15
G01X5.7354Y-4.2498
M16
G05
G00X5.7354Y-4.3809
M15
G01X5.7354Y-4.4045
M16
G05
G00X6.0756Y-4.2065
M15
G01X6.0756Y-4.2498
M16
G05
G00X6.0756Y-4.3809
M15
G01X6.0756Y-4.4045
M16
G05
T0
M30
