%TF.GenerationSoftware,KiCad,Pcbnew,(6.0.0-0)*%
%TF.CreationDate,2022-01-05T16:19:22+01:00*%
%TF.ProjectId,IEC-62056-21-Optical-Probe,4945432d-3632-4303-9536-2d32312d4f70,1*%
%TF.SameCoordinates,Original*%
%TF.FileFunction,Copper,L1,Top*%
%TF.FilePolarity,Positive*%
%FSLAX46Y46*%
G04 Gerber Fmt 4.6, Leading zero omitted, Abs format (unit mm)*
G04 Created by KiCad (PCBNEW (6.0.0-0)) date 2022-01-05 16:19:22*
%MOMM*%
%LPD*%
G01*
G04 APERTURE LIST*
G04 Aperture macros list*
%AMRoundRect*
0 Rectangle with rounded corners*
0 $1 Rounding radius*
0 $2 $3 $4 $5 $6 $7 $8 $9 X,Y pos of 4 corners*
0 Add a 4 corners polygon primitive as box body*
4,1,4,$2,$3,$4,$5,$6,$7,$8,$9,$2,$3,0*
0 Add four circle primitives for the rounded corners*
1,1,$1+$1,$2,$3*
1,1,$1+$1,$4,$5*
1,1,$1+$1,$6,$7*
1,1,$1+$1,$8,$9*
0 Add four rect primitives between the rounded corners*
20,1,$1+$1,$2,$3,$4,$5,0*
20,1,$1+$1,$4,$5,$6,$7,0*
20,1,$1+$1,$6,$7,$8,$9,0*
20,1,$1+$1,$8,$9,$2,$3,0*%
%AMFreePoly0*
4,1,22,0.500000,-0.750000,0.000000,-0.750000,0.000000,-0.745033,-0.079941,-0.743568,-0.215256,-0.701293,-0.333266,-0.622738,-0.424486,-0.514219,-0.481581,-0.384460,-0.499164,-0.250000,-0.500000,-0.250000,-0.500000,0.250000,-0.499164,0.250000,-0.499963,0.256109,-0.478152,0.396186,-0.417904,0.524511,-0.324060,0.630769,-0.204165,0.706417,-0.067858,0.745374,0.000000,0.744959,0.000000,0.750000,
0.500000,0.750000,0.500000,-0.750000,0.500000,-0.750000,$1*%
%AMFreePoly1*
4,1,20,0.000000,0.744959,0.073905,0.744508,0.209726,0.703889,0.328688,0.626782,0.421226,0.519385,0.479903,0.390333,0.500000,0.250000,0.500000,-0.250000,0.499851,-0.262216,0.476331,-0.402017,0.414519,-0.529596,0.319384,-0.634700,0.198574,-0.708877,0.061801,-0.746166,0.000000,-0.745033,0.000000,-0.750000,-0.500000,-0.750000,-0.500000,0.750000,0.000000,0.750000,0.000000,0.744959,
0.000000,0.744959,$1*%
G04 Aperture macros list end*
%TA.AperFunction,SMDPad,CuDef*%
%ADD10RoundRect,0.225000X-0.225000X-0.250000X0.225000X-0.250000X0.225000X0.250000X-0.225000X0.250000X0*%
%TD*%
%TA.AperFunction,SMDPad,CuDef*%
%ADD11RoundRect,0.200000X0.275000X-0.200000X0.275000X0.200000X-0.275000X0.200000X-0.275000X-0.200000X0*%
%TD*%
%TA.AperFunction,SMDPad,CuDef*%
%ADD12R,1.800000X1.800000*%
%TD*%
%TA.AperFunction,SMDPad,CuDef*%
%ADD13R,0.300000X0.900000*%
%TD*%
%TA.AperFunction,SMDPad,CuDef*%
%ADD14R,0.300000X0.300000*%
%TD*%
%TA.AperFunction,SMDPad,CuDef*%
%ADD15R,0.900000X0.300000*%
%TD*%
%TA.AperFunction,ComponentPad*%
%ADD16O,1.000000X2.100000*%
%TD*%
%TA.AperFunction,ComponentPad*%
%ADD17O,1.000000X1.600000*%
%TD*%
%TA.AperFunction,SMDPad,CuDef*%
%ADD18R,0.300000X1.150000*%
%TD*%
%TA.AperFunction,SMDPad,CuDef*%
%ADD19RoundRect,0.225000X0.250000X-0.225000X0.250000X0.225000X-0.250000X0.225000X-0.250000X-0.225000X0*%
%TD*%
%TA.AperFunction,SMDPad,CuDef*%
%ADD20RoundRect,0.200000X-0.200000X-0.275000X0.200000X-0.275000X0.200000X0.275000X-0.200000X0.275000X0*%
%TD*%
%TA.AperFunction,SMDPad,CuDef*%
%ADD21FreePoly0,90.000000*%
%TD*%
%TA.AperFunction,SMDPad,CuDef*%
%ADD22FreePoly1,90.000000*%
%TD*%
%TA.AperFunction,SMDPad,CuDef*%
%ADD23RoundRect,0.200000X0.200000X0.275000X-0.200000X0.275000X-0.200000X-0.275000X0.200000X-0.275000X0*%
%TD*%
%TA.AperFunction,SMDPad,CuDef*%
%ADD24RoundRect,0.225000X0.225000X0.250000X-0.225000X0.250000X-0.225000X-0.250000X0.225000X-0.250000X0*%
%TD*%
%TA.AperFunction,SMDPad,CuDef*%
%ADD25R,2.000000X2.000000*%
%TD*%
%TA.AperFunction,SMDPad,CuDef*%
%ADD26RoundRect,0.150000X-0.150000X0.587500X-0.150000X-0.587500X0.150000X-0.587500X0.150000X0.587500X0*%
%TD*%
%TA.AperFunction,SMDPad,CuDef*%
%ADD27RoundRect,0.125000X0.587500X0.125000X-0.587500X0.125000X-0.587500X-0.125000X0.587500X-0.125000X0*%
%TD*%
%TA.AperFunction,SMDPad,CuDef*%
%ADD28RoundRect,0.225000X-0.250000X0.225000X-0.250000X-0.225000X0.250000X-0.225000X0.250000X0.225000X0*%
%TD*%
%TA.AperFunction,SMDPad,CuDef*%
%ADD29RoundRect,0.150000X0.587500X0.150000X-0.587500X0.150000X-0.587500X-0.150000X0.587500X-0.150000X0*%
%TD*%
%TA.AperFunction,SMDPad,CuDef*%
%ADD30RoundRect,0.200000X-0.275000X0.200000X-0.275000X-0.200000X0.275000X-0.200000X0.275000X0.200000X0*%
%TD*%
%TA.AperFunction,SMDPad,CuDef*%
%ADD31R,1.200000X1.400000*%
%TD*%
%TA.AperFunction,SMDPad,CuDef*%
%ADD32R,1.000000X1.400000*%
%TD*%
%TA.AperFunction,ComponentPad*%
%ADD33R,1.800000X1.800000*%
%TD*%
%TA.AperFunction,ComponentPad*%
%ADD34C,1.800000*%
%TD*%
%TA.AperFunction,ViaPad*%
%ADD35C,0.600000*%
%TD*%
%TA.AperFunction,Conductor*%
%ADD36C,0.200000*%
%TD*%
%TA.AperFunction,Conductor*%
%ADD37C,0.400000*%
%TD*%
G04 APERTURE END LIST*
%TO.C,JP1*%
G36*
X161550000Y-97250000D02*
G01*
X160950000Y-97250000D01*
X160950000Y-96750000D01*
X161550000Y-96750000D01*
X161550000Y-97250000D01*
G37*
%TO.C,JP2*%
G36*
X159050000Y-97250000D02*
G01*
X158450000Y-97250000D01*
X158450000Y-96750000D01*
X159050000Y-96750000D01*
X159050000Y-97250000D01*
G37*
%TO.C,JP3*%
G36*
X156550000Y-97250000D02*
G01*
X155950000Y-97250000D01*
X155950000Y-96750000D01*
X156550000Y-96750000D01*
X156550000Y-97250000D01*
G37*
%TD*%
D10*
%TO.P,C7,1*%
%TO.N,GND*%
X153475000Y-104750000D03*
%TO.P,C7,2*%
%TO.N,+3V3*%
X155025000Y-104750000D03*
%TD*%
D11*
%TO.P,R7,1*%
%TO.N,Net-(R7-Pad1)*%
X161750000Y-104075000D03*
%TO.P,R7,2*%
%TO.N,+3V3*%
X161750000Y-102425000D03*
%TD*%
D12*
%TO.P,U2,21,GND*%
%TO.N,GND*%
X158500000Y-102000000D03*
D13*
%TO.P,U2,20,~{TXT}/GPIO.2*%
%TO.N,unconnected-(U2-Pad20)*%
X157750000Y-100450000D03*
%TO.P,U2,19,~{RXT}/GPIO.3*%
%TO.N,unconnected-(U2-Pad19)*%
X158250000Y-100450000D03*
%TO.P,U2,18,TXD*%
%TO.N,/TXD_USB*%
X158750000Y-100450000D03*
%TO.P,U2,17,RXD*%
%TO.N,/RXD_USB*%
X159250000Y-100450000D03*
D14*
%TO.P,U2,16,~{RTS}*%
%TO.N,unconnected-(U2-Pad16)*%
X159750000Y-100750000D03*
D15*
%TO.P,U2,15,~{CTS}*%
%TO.N,unconnected-(U2-Pad15)*%
X160050000Y-101250000D03*
%TO.P,U2,14,SUSPEND*%
%TO.N,unconnected-(U2-Pad14)*%
X160050000Y-101750000D03*
%TO.P,U2,13,~{WAKEUP}*%
%TO.N,unconnected-(U2-Pad13)*%
X160050000Y-102250000D03*
%TO.P,U2,12,GND*%
%TO.N,GND*%
X160050000Y-102750000D03*
D14*
%TO.P,U2,11,~{SUSPEND}*%
%TO.N,Net-(R12-Pad2)*%
X159750000Y-103250000D03*
D13*
%TO.P,U2,10,NC*%
%TO.N,unconnected-(U2-Pad10)*%
X159250000Y-103550000D03*
%TO.P,U2,9,~{RST}*%
%TO.N,Net-(R7-Pad1)*%
X158750000Y-103550000D03*
%TO.P,U2,8,VBUS*%
%TO.N,Net-(R4-Pad2)*%
X158250000Y-103550000D03*
%TO.P,U2,7,VREGIN*%
%TO.N,/VBUS*%
X157750000Y-103550000D03*
D14*
%TO.P,U2,6,VDD*%
%TO.N,+3V3*%
X157250000Y-103250000D03*
D15*
%TO.P,U2,5,D-*%
%TO.N,/D-*%
X156950000Y-102750000D03*
%TO.P,U2,4,D+*%
%TO.N,/D+*%
X156950000Y-102250000D03*
%TO.P,U2,3,GND*%
%TO.N,GND*%
X156950000Y-101750000D03*
%TO.P,U2,2,CLK/GPIO.0*%
%TO.N,unconnected-(U2-Pad2)*%
X156950000Y-101250000D03*
D14*
%TO.P,U2,1,RS485/GPIO.1*%
%TO.N,unconnected-(U2-Pad1)*%
X157250000Y-100750000D03*
%TD*%
D16*
%TO.P,J1,S1,SHIELD*%
%TO.N,GND*%
X145680000Y-107395000D03*
X154320000Y-107395000D03*
D17*
X145680000Y-111575000D03*
X154320000Y-111575000D03*
D18*
%TO.P,J1,B1,GND*%
X153050000Y-106830000D03*
%TO.P,J1,B4,VBUS*%
%TO.N,/VBUS*%
X152250000Y-106830000D03*
%TO.P,J1,B5,CC2*%
%TO.N,Net-(J1-PadB5)*%
X151750000Y-106830000D03*
%TO.P,J1,A8,SBU1*%
%TO.N,unconnected-(J1-PadA8)*%
X151250000Y-106830000D03*
%TO.P,J1,B6,D+*%
%TO.N,/D+*%
X150750000Y-106830000D03*
%TO.P,J1,A7,D-*%
%TO.N,/D-*%
X150250000Y-106830000D03*
%TO.P,J1,A6,D+*%
%TO.N,/D+*%
X149750000Y-106830000D03*
%TO.P,J1,B7,D-*%
%TO.N,/D-*%
X149250000Y-106830000D03*
%TO.P,J1,A5,CC1*%
%TO.N,Net-(J1-PadA5)*%
X148750000Y-106830000D03*
%TO.P,J1,B8,SBU2*%
%TO.N,unconnected-(J1-PadB8)*%
X148250000Y-106830000D03*
%TO.P,J1,A4,VBUS*%
%TO.N,/VBUS*%
X147450000Y-106830000D03*
%TO.P,J1,A1,GND*%
%TO.N,GND*%
X146650000Y-106830000D03*
%TO.P,J1,B12,GND*%
X146950000Y-106830000D03*
%TO.P,J1,B9,VBUS*%
%TO.N,/VBUS*%
X147750000Y-106830000D03*
%TO.P,J1,A9,VBUS*%
X152550000Y-106830000D03*
%TO.P,J1,A12,GND*%
%TO.N,GND*%
X153350000Y-106830000D03*
%TD*%
D19*
%TO.P,C4,1*%
%TO.N,GND*%
X156500000Y-109775000D03*
%TO.P,C4,2*%
%TO.N,/VBUS*%
X156500000Y-108225000D03*
%TD*%
D20*
%TO.P,R5,2*%
%TO.N,GND*%
X159825000Y-105250000D03*
%TO.P,R5,1*%
%TO.N,Net-(R4-Pad2)*%
X158175000Y-105250000D03*
%TD*%
D21*
%TO.P,JP1,1,A*%
%TO.N,/RXD_USB*%
X161250000Y-97650000D03*
D22*
%TO.P,JP1,2,B*%
%TO.N,/RXD*%
X161250000Y-96350000D03*
%TD*%
D21*
%TO.P,JP2,1,A*%
%TO.N,/TXD_USB*%
X158750000Y-97650000D03*
D22*
%TO.P,JP2,2,B*%
%TO.N,/TXD*%
X158750000Y-96350000D03*
%TD*%
D23*
%TO.P,R13,1*%
%TO.N,Net-(D5-Pad1)*%
X147075000Y-103250000D03*
%TO.P,R13,2*%
%TO.N,GND*%
X145425000Y-103250000D03*
%TD*%
D24*
%TO.P,C6,1*%
%TO.N,GND*%
X150275000Y-89000000D03*
%TO.P,C6,2*%
%TO.N,VCC*%
X148725000Y-89000000D03*
%TD*%
D25*
%TO.P,TP3,1,1*%
%TO.N,/TXD*%
X155500000Y-93500000D03*
%TD*%
D26*
%TO.P,Q2,1,B*%
%TO.N,Net-(Q2-Pad1)*%
X148950000Y-94562500D03*
%TO.P,Q2,2,E*%
%TO.N,VCC*%
X147050000Y-94562500D03*
%TO.P,Q2,3,C*%
%TO.N,Net-(D5-Pad2)*%
X148000000Y-96437500D03*
%TD*%
D25*
%TO.P,TP5,1,1*%
%TO.N,/VBUS*%
X139500000Y-99500000D03*
%TD*%
D19*
%TO.P,C2,1*%
%TO.N,GND*%
X145500000Y-96275000D03*
%TO.P,C2,2*%
%TO.N,VCC*%
X145500000Y-94725000D03*
%TD*%
D25*
%TO.P,TP2,1,1*%
%TO.N,/RXD*%
X159000000Y-93500000D03*
%TD*%
D27*
%TO.P,U3,1*%
%TO.N,Net-(Q4-Pad3)*%
X150637500Y-92450000D03*
%TO.P,U3,2,GND*%
%TO.N,GND*%
X150637500Y-91500000D03*
%TO.P,U3,3*%
%TO.N,/TXD*%
X150637500Y-90550000D03*
%TO.P,U3,4*%
%TO.N,Net-(R14-Pad2)*%
X148362500Y-90550000D03*
%TO.P,U3,5,VCC*%
%TO.N,VCC*%
X148362500Y-91500000D03*
%TO.P,U3,6*%
%TO.N,/RXD*%
X148362500Y-92450000D03*
%TD*%
D25*
%TO.P,TP7,1,1*%
%TO.N,/D+*%
X143000000Y-104000000D03*
%TD*%
D28*
%TO.P,C3,1*%
%TO.N,/VBUS*%
X156500000Y-105225000D03*
%TO.P,C3,2*%
%TO.N,GND*%
X156500000Y-106775000D03*
%TD*%
D21*
%TO.P,JP3,1,A*%
%TO.N,+3V3*%
X156250000Y-97650000D03*
D22*
%TO.P,JP3,2,B*%
%TO.N,VCC*%
X156250000Y-96350000D03*
%TD*%
D10*
%TO.P,C5,1*%
%TO.N,GND*%
X153475000Y-103250000D03*
%TO.P,C5,2*%
%TO.N,+3V3*%
X155025000Y-103250000D03*
%TD*%
D29*
%TO.P,Q4,1,B*%
%TO.N,Net-(Q3-Pad2)*%
X152937500Y-96450000D03*
%TO.P,Q4,2,E*%
%TO.N,GND*%
X152937500Y-94550000D03*
%TO.P,Q4,3,C*%
%TO.N,Net-(Q4-Pad3)*%
X151062500Y-95500000D03*
%TD*%
D25*
%TO.P,TP4,1,1*%
%TO.N,GND*%
X143000000Y-99500000D03*
%TD*%
D30*
%TO.P,R2,1*%
%TO.N,GND*%
X143500000Y-106675000D03*
%TO.P,R2,2*%
%TO.N,Net-(J1-PadA5)*%
X143500000Y-108325000D03*
%TD*%
D11*
%TO.P,R1,1*%
%TO.N,Net-(J1-PadB5)*%
X142000000Y-108325000D03*
%TO.P,R1,2*%
%TO.N,GND*%
X142000000Y-106675000D03*
%TD*%
D23*
%TO.P,R15,1*%
%TO.N,Net-(Q3-Pad2)*%
X150825000Y-98500000D03*
%TO.P,R15,2*%
%TO.N,GND*%
X149175000Y-98500000D03*
%TD*%
D30*
%TO.P,R12,1*%
%TO.N,GND*%
X161750000Y-99425000D03*
%TO.P,R12,2*%
%TO.N,Net-(R12-Pad2)*%
X161750000Y-101075000D03*
%TD*%
D10*
%TO.P,C1,1*%
%TO.N,GND*%
X149225000Y-100250000D03*
%TO.P,C1,2*%
%TO.N,VCC*%
X150775000Y-100250000D03*
%TD*%
D23*
%TO.P,R4,1*%
%TO.N,/VBUS*%
X159825000Y-106750000D03*
%TO.P,R4,2*%
%TO.N,Net-(R4-Pad2)*%
X158175000Y-106750000D03*
%TD*%
D25*
%TO.P,TP6,1,1*%
%TO.N,/D-*%
X139750000Y-104000000D03*
%TD*%
D11*
%TO.P,R14,1*%
%TO.N,Net-(Q2-Pad1)*%
X146500000Y-92325000D03*
%TO.P,R14,2*%
%TO.N,Net-(R14-Pad2)*%
X146500000Y-90675000D03*
%TD*%
D30*
%TO.P,R16,1*%
%TO.N,VCC*%
X152750000Y-90675000D03*
%TO.P,R16,2*%
%TO.N,Net-(Q4-Pad3)*%
X152750000Y-92325000D03*
%TD*%
D31*
%TO.P,D1,1,A*%
%TO.N,GND*%
X150770000Y-102400000D03*
D32*
%TO.P,D1,2,K*%
%TO.N,/VBUS*%
X149050000Y-102400000D03*
%TO.P,D1,3,K*%
%TO.N,/D+*%
X149050000Y-104600000D03*
%TO.P,D1,4,K*%
%TO.N,/D-*%
X150950000Y-104600000D03*
%TD*%
D25*
%TO.P,TP1,1,1*%
%TO.N,VCC*%
X143000000Y-95000000D03*
%TD*%
D33*
%TO.P,Q3,1,C*%
%TO.N,VCC*%
X153250000Y-101270000D03*
D34*
%TO.P,Q3,2,E*%
%TO.N,Net-(Q3-Pad2)*%
X153250000Y-98730000D03*
%TD*%
D33*
%TO.P,D5,1,K*%
%TO.N,Net-(D5-Pad1)*%
X146750000Y-101270000D03*
D34*
%TO.P,D5,2,A*%
%TO.N,Net-(D5-Pad2)*%
X146750000Y-98730000D03*
%TD*%
D35*
%TO.N,+3V3*%
X160000000Y-103973500D03*
%TO.N,GND*%
X161750000Y-100248500D03*
X152750000Y-104750000D03*
%TO.N,+3V3*%
X154351500Y-104723500D03*
%TO.N,GND*%
X158500000Y-102000000D03*
X150750000Y-101500000D03*
X152750000Y-103250000D03*
%TO.N,+3V3*%
X154351500Y-103250000D03*
%TO.N,GND*%
X156500000Y-107348500D03*
X156500000Y-110500000D03*
X160500000Y-105250000D03*
X143000000Y-101000000D03*
X143750000Y-101000000D03*
X151750000Y-91500000D03*
X148500000Y-98500000D03*
X143500000Y-107498500D03*
X146248500Y-103250000D03*
X142000000Y-107498500D03*
X148500000Y-100250000D03*
X145500000Y-97250000D03*
X151750000Y-94500000D03*
X142250000Y-101000000D03*
X151250000Y-89000000D03*
%TO.N,+3V3*%
X155000000Y-101750000D03*
%TO.N,/D+*%
X149726112Y-104697611D03*
X151000000Y-105750000D03*
%TO.N,Net-(J1-PadB5)*%
X151750000Y-109750000D03*
X151688979Y-108250000D03*
%TO.N,Net-(J1-PadA5)*%
X144250000Y-109250000D03*
X149000000Y-108000000D03*
%TD*%
D36*
%TO.N,/RXD*%
X159000000Y-93500000D02*
X153625000Y-88125000D01*
X153625000Y-88125000D02*
X146125000Y-88125000D01*
X146125000Y-88125000D02*
X145798480Y-88451520D01*
X145798480Y-88451520D02*
X145798480Y-91051670D01*
X145798480Y-91051670D02*
X146048330Y-91301520D01*
X146048330Y-91301520D02*
X146801520Y-91301520D01*
X146801520Y-91301520D02*
X147950000Y-92450000D01*
X147950000Y-92450000D02*
X148362500Y-92450000D01*
%TO.N,+3V3*%
X160500000Y-104000000D02*
X160026500Y-104000000D01*
X160026500Y-104000000D02*
X160000000Y-103973500D01*
X161750000Y-102425000D02*
X161750000Y-102750000D01*
X161750000Y-102750000D02*
X160500000Y-104000000D01*
%TO.N,Net-(R12-Pad2)*%
X161750000Y-101075000D02*
X161175000Y-101075000D01*
X161175000Y-101075000D02*
X161000000Y-101250000D01*
X161000000Y-101250000D02*
X161000000Y-102750000D01*
X161000000Y-102750000D02*
X160500000Y-103250000D01*
X160500000Y-103250000D02*
X159750000Y-103250000D01*
%TO.N,GND*%
X161750000Y-99425000D02*
X161750000Y-100248500D01*
%TO.N,Net-(R7-Pad1)*%
X159000000Y-104500000D02*
X161325000Y-104500000D01*
X161325000Y-104500000D02*
X161750000Y-104075000D01*
D37*
%TO.N,GND*%
X153475000Y-104750000D02*
X152750000Y-104750000D01*
D36*
%TO.N,+3V3*%
X155025000Y-104750000D02*
X154378000Y-104750000D01*
X154378000Y-104750000D02*
X154351500Y-104723500D01*
%TO.N,GND*%
X156950000Y-101750000D02*
X158250000Y-101750000D01*
X158250000Y-101750000D02*
X158500000Y-102000000D01*
X160050000Y-102750000D02*
X159250000Y-102750000D01*
X159250000Y-102750000D02*
X158500000Y-102000000D01*
%TO.N,/VBUS*%
X156500000Y-108975000D02*
X159275000Y-108975000D01*
X159825000Y-108425000D02*
X159825000Y-106750000D01*
X159275000Y-108975000D02*
X159825000Y-108425000D01*
%TO.N,+3V3*%
X156250000Y-98500000D02*
X156250000Y-97650000D01*
X155000000Y-101750000D02*
X155000000Y-98900000D01*
X155000000Y-98900000D02*
X155200000Y-98700000D01*
X155200000Y-98700000D02*
X156050000Y-98700000D01*
X156050000Y-98700000D02*
X156250000Y-98500000D01*
X155829815Y-104670185D02*
X156500000Y-104000000D01*
X156500000Y-103750000D02*
X156500000Y-104000000D01*
X157250000Y-103250000D02*
X156500000Y-103250000D01*
X156500000Y-103250000D02*
X156500000Y-103750000D01*
%TO.N,GND*%
X150770000Y-101520000D02*
X150750000Y-101500000D01*
X150770000Y-102400000D02*
X150770000Y-101520000D01*
%TO.N,/D+*%
X152500000Y-102500000D02*
X156000000Y-102500000D01*
X152500000Y-102500000D02*
X151500000Y-103500000D01*
X149826511Y-104597212D02*
X149826511Y-103673489D01*
X151500000Y-103500000D02*
X150000000Y-103500000D01*
X150000000Y-103500000D02*
X149826511Y-103673489D01*
D37*
%TO.N,GND*%
X153475000Y-103250000D02*
X152750000Y-103250000D01*
%TO.N,+3V3*%
X155025000Y-103250000D02*
X154351500Y-103250000D01*
D36*
%TO.N,/D-*%
X156950000Y-102750000D02*
X156250000Y-102750000D01*
X155750000Y-103750000D02*
X155500000Y-104000000D01*
X156250000Y-102750000D02*
X155750000Y-103250000D01*
X155750000Y-103250000D02*
X155750000Y-103750000D01*
X151650000Y-104600000D02*
X150950000Y-104600000D01*
X155500000Y-104000000D02*
X152250000Y-104000000D01*
X152250000Y-104000000D02*
X151650000Y-104600000D01*
%TO.N,/D+*%
X149726112Y-104697611D02*
X149826511Y-104597212D01*
X156000000Y-102500000D02*
X156250000Y-102250000D01*
X156250000Y-102250000D02*
X156950000Y-102250000D01*
%TO.N,Net-(R7-Pad1)*%
X158750000Y-104250000D02*
X159000000Y-104500000D01*
X158750000Y-103550000D02*
X158750000Y-104250000D01*
%TO.N,GND*%
X156500000Y-106775000D02*
X156500000Y-107348500D01*
X156500000Y-109775000D02*
X156500000Y-110500000D01*
%TO.N,/VBUS*%
X155475000Y-108975000D02*
X155475000Y-106025000D01*
X155475000Y-106025000D02*
X155525000Y-105975000D01*
X157475000Y-105975000D02*
X157500000Y-105950000D01*
X155525000Y-105975000D02*
X157475000Y-105975000D01*
X157500000Y-105950000D02*
X157500000Y-105250000D01*
X157500000Y-104500000D02*
X157500000Y-105250000D01*
X156525000Y-105250000D02*
X156500000Y-105225000D01*
X157750000Y-103550000D02*
X157750000Y-104250000D01*
X157750000Y-104250000D02*
X157500000Y-104500000D01*
X157500000Y-105250000D02*
X156525000Y-105250000D01*
%TO.N,GND*%
X159825000Y-105250000D02*
X160500000Y-105250000D01*
%TO.N,Net-(R4-Pad2)*%
X158175000Y-105250000D02*
X158175000Y-106750000D01*
X158250000Y-103550000D02*
X158250000Y-105175000D01*
X158250000Y-105175000D02*
X158175000Y-105250000D01*
%TO.N,/TXD_USB*%
X158750000Y-100450000D02*
X158750000Y-97650000D01*
%TO.N,/RXD_USB*%
X159750000Y-98750000D02*
X161000000Y-98750000D01*
X159250000Y-100450000D02*
X159250000Y-99250000D01*
X159250000Y-99250000D02*
X159750000Y-98750000D01*
%TO.N,+3V3*%
X155250000Y-104670185D02*
X155829815Y-104670185D01*
%TO.N,Net-(Q3-Pad2)*%
X152937500Y-96450000D02*
X152937500Y-98417500D01*
X152937500Y-98417500D02*
X153250000Y-98730000D01*
X150825000Y-98500000D02*
X153020000Y-98500000D01*
X153020000Y-98500000D02*
X153250000Y-98730000D01*
D37*
%TO.N,GND*%
X143000000Y-101000000D02*
X143000000Y-99500000D01*
D36*
%TO.N,/D+*%
X149050000Y-104600000D02*
X149628501Y-104600000D01*
X149628501Y-104600000D02*
X149726112Y-104697611D01*
%TO.N,Net-(Q4-Pad3)*%
X150637500Y-92450000D02*
X152625000Y-92450000D01*
X152625000Y-92450000D02*
X152750000Y-92325000D01*
X151062500Y-92875000D02*
X150637500Y-92450000D01*
%TO.N,/TXD*%
X151546810Y-90550000D02*
X152496810Y-91500000D01*
X150637500Y-90550000D02*
X151546810Y-90550000D01*
X155500000Y-91750000D02*
X155500000Y-93500000D01*
X152496810Y-91500000D02*
X155250000Y-91500000D01*
X155250000Y-91500000D02*
X155500000Y-91750000D01*
%TO.N,GND*%
X153050000Y-106830000D02*
X153350000Y-106830000D01*
X146950000Y-106830000D02*
X146245000Y-106830000D01*
X145500000Y-96275000D02*
X145500000Y-97250000D01*
D37*
X143750000Y-100250000D02*
X143000000Y-99500000D01*
D36*
X149225000Y-100250000D02*
X148500000Y-100250000D01*
D37*
X143750000Y-101000000D02*
X143750000Y-100250000D01*
D36*
X142000000Y-106675000D02*
X142000000Y-107498500D01*
X150637500Y-91500000D02*
X151750000Y-91500000D01*
D37*
X153755000Y-106830000D02*
X154320000Y-107395000D01*
D36*
X145425000Y-103250000D02*
X146248500Y-103250000D01*
X146650000Y-106830000D02*
X146950000Y-106830000D01*
X150275000Y-89000000D02*
X151250000Y-89000000D01*
X153050000Y-106830000D02*
X153755000Y-106830000D01*
X143500000Y-106675000D02*
X143500000Y-107498500D01*
D37*
X142250000Y-101000000D02*
X142250000Y-100250000D01*
X142250000Y-100250000D02*
X143000000Y-99500000D01*
X153350000Y-106830000D02*
X153755000Y-106830000D01*
D36*
X152937500Y-94550000D02*
X151800000Y-94550000D01*
X149175000Y-98500000D02*
X148500000Y-98500000D01*
D37*
X146650000Y-106830000D02*
X146245000Y-106830000D01*
D36*
X151800000Y-94550000D02*
X151750000Y-94500000D01*
D37*
X146245000Y-106830000D02*
X145680000Y-107395000D01*
D36*
%TO.N,+3V3*%
X155170185Y-104750000D02*
X155250000Y-104670185D01*
X154325000Y-104750000D02*
X155170185Y-104750000D01*
%TO.N,/VBUS*%
X147784521Y-106864521D02*
X147750000Y-106830000D01*
X145000000Y-100000000D02*
X147606511Y-100000000D01*
X147784521Y-108784521D02*
X147784521Y-106864521D01*
X147975000Y-108975000D02*
X147784521Y-108784521D01*
X147876511Y-100376511D02*
X149050000Y-101550000D01*
X147250000Y-105750000D02*
X147450000Y-105950000D01*
X137976545Y-103773455D02*
X137976545Y-105226545D01*
X144750000Y-101750000D02*
X145000000Y-101500000D01*
X137976545Y-99773455D02*
X137976545Y-103773455D01*
X153525000Y-108975000D02*
X152275000Y-108975000D01*
X156500000Y-108975000D02*
X155475000Y-108975000D01*
X147750000Y-106830000D02*
X147450000Y-106830000D01*
X156500000Y-108975000D02*
X153525000Y-108975000D01*
X152215479Y-108915479D02*
X152215479Y-106864521D01*
X138250000Y-99500000D02*
X137976545Y-99773455D01*
X141250000Y-99750000D02*
X141250000Y-101750000D01*
X138500000Y-105750000D02*
X147250000Y-105750000D01*
X149050000Y-101550000D02*
X149050000Y-102400000D01*
X152275000Y-108975000D02*
X152215479Y-108915479D01*
X147606511Y-100000000D02*
X147876511Y-100270000D01*
X137976545Y-105226545D02*
X138500000Y-105750000D01*
X141000000Y-99500000D02*
X141250000Y-99750000D01*
X155475000Y-108975000D02*
X147975000Y-108975000D01*
X147876511Y-100270000D02*
X147876511Y-100376511D01*
X147450000Y-105950000D02*
X147450000Y-106830000D01*
X139500000Y-99500000D02*
X138250000Y-99500000D01*
X152250000Y-106830000D02*
X152550000Y-106830000D01*
X141250000Y-101750000D02*
X144750000Y-101750000D01*
X145000000Y-101500000D02*
X145000000Y-100000000D01*
X139500000Y-99500000D02*
X141000000Y-99500000D01*
X152215479Y-106864521D02*
X152250000Y-106830000D01*
X149334521Y-108915479D02*
X152215479Y-108915479D01*
%TO.N,/D+*%
X150750000Y-106000000D02*
X150750000Y-106830000D01*
X151000000Y-105750000D02*
X150750000Y-106000000D01*
X149050000Y-104600000D02*
X149050000Y-104700000D01*
X149050000Y-104700000D02*
X148826520Y-104923480D01*
X149750000Y-106830000D02*
X149750000Y-104721499D01*
X143923480Y-104923480D02*
X143000000Y-104000000D01*
X149050000Y-104600000D02*
X149650000Y-104600000D01*
X148826520Y-104923480D02*
X143923480Y-104923480D01*
%TO.N,/D-*%
X149000000Y-105750000D02*
X149250000Y-106000000D01*
X148000000Y-105250000D02*
X148500000Y-105750000D01*
X150000000Y-107750000D02*
X150250000Y-107500000D01*
X149250000Y-106000000D02*
X149250000Y-106830000D01*
X150250000Y-106830000D02*
X150250000Y-104750000D01*
X149250000Y-106830000D02*
X149250000Y-107500000D01*
X149500000Y-107750000D02*
X150000000Y-107750000D01*
X149250000Y-107500000D02*
X149500000Y-107750000D01*
X150250000Y-104750000D02*
X150400000Y-104600000D01*
X139750000Y-104000000D02*
X139750000Y-105000000D01*
X150400000Y-104600000D02*
X150950000Y-104600000D01*
X140000000Y-105250000D02*
X148000000Y-105250000D01*
X148500000Y-105750000D02*
X149000000Y-105750000D01*
X150250000Y-107500000D02*
X150250000Y-106830000D01*
X139750000Y-105000000D02*
X140000000Y-105250000D01*
%TO.N,/RXD_USB*%
X161250000Y-98500000D02*
X161250000Y-97650000D01*
X161000000Y-98750000D02*
X161250000Y-98500000D01*
%TO.N,/RXD*%
X161000000Y-95000000D02*
X161250000Y-95250000D01*
X161250000Y-95250000D02*
X161250000Y-96350000D01*
X159000000Y-94750000D02*
X159250000Y-95000000D01*
X159250000Y-95000000D02*
X161000000Y-95000000D01*
X159000000Y-93500000D02*
X159000000Y-94750000D01*
%TO.N,Net-(J1-PadB5)*%
X151750000Y-110000000D02*
X151750000Y-109750000D01*
X151750000Y-106830000D02*
X151750000Y-108188979D01*
X143675000Y-110000000D02*
X151750000Y-110000000D01*
X151750000Y-108188979D02*
X151688979Y-108250000D01*
X142000000Y-108325000D02*
X143675000Y-110000000D01*
%TO.N,Net-(J1-PadA5)*%
X148750000Y-106830000D02*
X148750000Y-107750000D01*
X144250000Y-109250000D02*
X144250000Y-109075000D01*
X144250000Y-109075000D02*
X143500000Y-108325000D01*
X148750000Y-107750000D02*
X149000000Y-108000000D01*
%TO.N,/TXD*%
X158750000Y-96350000D02*
X158750000Y-95250000D01*
X158500000Y-95000000D02*
X155750000Y-95000000D01*
X158750000Y-95250000D02*
X158500000Y-95000000D01*
X155750000Y-95000000D02*
X155500000Y-94750000D01*
X155500000Y-94750000D02*
X155500000Y-93500000D01*
%TO.N,Net-(Q4-Pad3)*%
X151062500Y-95500000D02*
X151062500Y-92875000D01*
%TO.N,Net-(Q2-Pad1)*%
X146500000Y-92325000D02*
X148737500Y-94562500D01*
X148737500Y-94562500D02*
X148950000Y-94562500D01*
%TO.N,Net-(R14-Pad2)*%
X146500000Y-90675000D02*
X148237500Y-90675000D01*
X148237500Y-90675000D02*
X148362500Y-90550000D01*
%TO.N,VCC*%
X152750000Y-90000000D02*
X152250000Y-90000000D01*
X148750000Y-89025000D02*
X148750000Y-89750000D01*
X148750000Y-89750000D02*
X149000000Y-90000000D01*
X150775000Y-100250000D02*
X150775000Y-99525000D01*
X156250000Y-96350000D02*
X156250000Y-95750000D01*
X148725000Y-89000000D02*
X148750000Y-89025000D01*
X152250000Y-90000000D02*
X152500000Y-90000000D01*
X149500000Y-93000000D02*
X149698480Y-93198480D01*
X149666240Y-96833760D02*
X149541240Y-96708760D01*
X149541240Y-96708760D02*
X147394979Y-94562500D01*
X150000000Y-98753190D02*
X150000000Y-97167521D01*
X153250000Y-100000000D02*
X152000000Y-100000000D01*
X149698480Y-93198480D02*
X149698480Y-96551520D01*
X152332479Y-95500000D02*
X150998719Y-96833760D01*
X145500000Y-94725000D02*
X146400000Y-94725000D01*
X149500000Y-90000000D02*
X152250000Y-90000000D01*
X150000000Y-97167521D02*
X149666240Y-96833760D01*
X156000000Y-95500000D02*
X152332479Y-95500000D01*
X144500000Y-95000000D02*
X143000000Y-95000000D01*
X153250000Y-101270000D02*
X153250000Y-100000000D01*
X148362500Y-91500000D02*
X148622124Y-91500000D01*
X147050000Y-94562500D02*
X146562500Y-94562500D01*
X144750000Y-94750000D02*
X144500000Y-95000000D01*
X149000000Y-90000000D02*
X149500000Y-90000000D01*
X150775000Y-99525000D02*
X150771810Y-99525000D01*
X146400000Y-94725000D02*
X146562500Y-94562500D01*
X152750000Y-90675000D02*
X152750000Y-90000000D01*
X145500000Y-94725000D02*
X145475000Y-94750000D01*
X149500000Y-90000000D02*
X149500000Y-93000000D01*
X150771810Y-99525000D02*
X150000000Y-98753190D01*
X145475000Y-94750000D02*
X144750000Y-94750000D01*
X152000000Y-100000000D02*
X151750000Y-100250000D01*
X156250000Y-95750000D02*
X156000000Y-95500000D01*
X150998719Y-96833760D02*
X149666240Y-96833760D01*
X147394979Y-94562500D02*
X147050000Y-94562500D01*
X151750000Y-100250000D02*
X150775000Y-100250000D01*
X149698480Y-96551520D02*
X149541240Y-96708760D01*
%TO.N,Net-(D5-Pad1)*%
X146750000Y-102925000D02*
X147075000Y-103250000D01*
X146750000Y-101270000D02*
X146750000Y-102925000D01*
%TO.N,Net-(D5-Pad2)*%
X148000000Y-97480000D02*
X146750000Y-98730000D01*
X148000000Y-96437500D02*
X148000000Y-97480000D01*
%TD*%
%TA.AperFunction,Conductor*%
%TO.N,/VBUS*%
G36*
X146197107Y-97768306D02*
G01*
X146215413Y-97812500D01*
X146197107Y-97856694D01*
X146187236Y-97864715D01*
X146184656Y-97866064D01*
X146182282Y-97867972D01*
X146182280Y-97867974D01*
X146110566Y-97925634D01*
X146027617Y-97992327D01*
X145898093Y-98146687D01*
X145869972Y-98197839D01*
X145806411Y-98313457D01*
X145801018Y-98323266D01*
X145740090Y-98515337D01*
X145717629Y-98715584D01*
X145723842Y-98789574D01*
X145734000Y-98910541D01*
X145734490Y-98916381D01*
X145735332Y-98919317D01*
X145786059Y-99096221D01*
X145790032Y-99110078D01*
X145882139Y-99289299D01*
X146007302Y-99447215D01*
X146009626Y-99449193D01*
X146009628Y-99449195D01*
X146040388Y-99475374D01*
X146160754Y-99577814D01*
X146336651Y-99676119D01*
X146339555Y-99677063D01*
X146339556Y-99677063D01*
X146525379Y-99737441D01*
X146525384Y-99737442D01*
X146528292Y-99738387D01*
X146728378Y-99762246D01*
X146731420Y-99762012D01*
X146731423Y-99762012D01*
X146926236Y-99747021D01*
X146926238Y-99747021D01*
X146929287Y-99746786D01*
X147123367Y-99692598D01*
X147126090Y-99691223D01*
X147126094Y-99691221D01*
X147300506Y-99603119D01*
X147303226Y-99601745D01*
X147305624Y-99599872D01*
X147305628Y-99599869D01*
X147388608Y-99535038D01*
X147462013Y-99477687D01*
X147593679Y-99325150D01*
X147693210Y-99149944D01*
X147753198Y-98969614D01*
X147755851Y-98961638D01*
X147756814Y-98958743D01*
X147757592Y-98952589D01*
X147781849Y-98760570D01*
X147781849Y-98760569D01*
X147782069Y-98758828D01*
X147782472Y-98730000D01*
X147782303Y-98728280D01*
X147782303Y-98728271D01*
X147763107Y-98532498D01*
X147762809Y-98529458D01*
X147704568Y-98336556D01*
X147643179Y-98221100D01*
X147638594Y-98173485D01*
X147654169Y-98147564D01*
X148033428Y-97768306D01*
X148077622Y-97750000D01*
X149687500Y-97750000D01*
X149731694Y-97768306D01*
X149750000Y-97812500D01*
X149750000Y-97985957D01*
X149731694Y-98030151D01*
X149687500Y-98048457D01*
X149643306Y-98030151D01*
X149565744Y-97952589D01*
X149560789Y-97950279D01*
X149560787Y-97950277D01*
X149507939Y-97925634D01*
X149461071Y-97903779D01*
X149447705Y-97902019D01*
X149415407Y-97897767D01*
X149415399Y-97897767D01*
X149413375Y-97897500D01*
X149411328Y-97897500D01*
X149174358Y-97897501D01*
X148936626Y-97897501D01*
X148934615Y-97897766D01*
X148934610Y-97897766D01*
X148893669Y-97903155D01*
X148893668Y-97903155D01*
X148888929Y-97903779D01*
X148884595Y-97905800D01*
X148789213Y-97950277D01*
X148789211Y-97950279D01*
X148784256Y-97952589D01*
X148702589Y-98034256D01*
X148700278Y-98039213D01*
X148700276Y-98039215D01*
X148692634Y-98055604D01*
X148657367Y-98087922D01*
X148618083Y-98089071D01*
X148563838Y-98072848D01*
X148503488Y-98072479D01*
X148445838Y-98072127D01*
X148445837Y-98072127D01*
X148441385Y-98072100D01*
X148323644Y-98105751D01*
X148220080Y-98171095D01*
X148217137Y-98174427D01*
X148217135Y-98174429D01*
X148141970Y-98259536D01*
X148139018Y-98262879D01*
X148137126Y-98266909D01*
X148088868Y-98369695D01*
X148088867Y-98369698D01*
X148086976Y-98373726D01*
X148068136Y-98494724D01*
X148068713Y-98499137D01*
X148068713Y-98499138D01*
X148071167Y-98517901D01*
X148084014Y-98616145D01*
X148085807Y-98620220D01*
X148127769Y-98715584D01*
X148133333Y-98728230D01*
X148212127Y-98821968D01*
X148215832Y-98824434D01*
X148215834Y-98824436D01*
X148273288Y-98862680D01*
X148314064Y-98889823D01*
X148430948Y-98926340D01*
X148435398Y-98926422D01*
X148435401Y-98926422D01*
X148485074Y-98927332D01*
X148553383Y-98928584D01*
X148619566Y-98910541D01*
X148667019Y-98916578D01*
X148692648Y-98944424D01*
X148702589Y-98965744D01*
X148784256Y-99047411D01*
X148789211Y-99049721D01*
X148789213Y-99049723D01*
X148838015Y-99072479D01*
X148888929Y-99096221D01*
X148902295Y-99097981D01*
X148934593Y-99102233D01*
X148934601Y-99102233D01*
X148936625Y-99102500D01*
X148938672Y-99102500D01*
X149175642Y-99102499D01*
X149413374Y-99102499D01*
X149415385Y-99102234D01*
X149415390Y-99102234D01*
X149456331Y-99096845D01*
X149456332Y-99096845D01*
X149461071Y-99096221D01*
X149468198Y-99092898D01*
X149560787Y-99049723D01*
X149560789Y-99049721D01*
X149565744Y-99047411D01*
X149643306Y-98969849D01*
X149687500Y-98951543D01*
X149731694Y-98969849D01*
X149750000Y-99014043D01*
X149750000Y-99654706D01*
X149731694Y-99698900D01*
X149687500Y-99717206D01*
X149658138Y-99707808D01*
X149657528Y-99709056D01*
X149556458Y-99659651D01*
X149556457Y-99659651D01*
X149552098Y-99657520D01*
X149547295Y-99656819D01*
X149547294Y-99656819D01*
X149525341Y-99653617D01*
X149483411Y-99647500D01*
X149225683Y-99647500D01*
X148966590Y-99647501D01*
X148897305Y-99657699D01*
X148791964Y-99709419D01*
X148788318Y-99713071D01*
X148788317Y-99713072D01*
X148712704Y-99788817D01*
X148712702Y-99788819D01*
X148709056Y-99792472D01*
X148706788Y-99797111D01*
X148706787Y-99797113D01*
X148700856Y-99809246D01*
X148665001Y-99840910D01*
X148626798Y-99841677D01*
X148563838Y-99822848D01*
X148502612Y-99822474D01*
X148445838Y-99822127D01*
X148445837Y-99822127D01*
X148441385Y-99822100D01*
X148323644Y-99855751D01*
X148220080Y-99921095D01*
X148217137Y-99924427D01*
X148217135Y-99924429D01*
X148141965Y-100009542D01*
X148139018Y-100012879D01*
X148137126Y-100016909D01*
X148088868Y-100119695D01*
X148088867Y-100119698D01*
X148086976Y-100123726D01*
X148068136Y-100244724D01*
X148068713Y-100249137D01*
X148068713Y-100249138D01*
X148072498Y-100278078D01*
X148084014Y-100366145D01*
X148085807Y-100370220D01*
X148130812Y-100472500D01*
X148133333Y-100478230D01*
X148212127Y-100571968D01*
X148215832Y-100574434D01*
X148215834Y-100574436D01*
X148258128Y-100602589D01*
X148314064Y-100639823D01*
X148430948Y-100676340D01*
X148435398Y-100676422D01*
X148435401Y-100676422D01*
X148485074Y-100677332D01*
X148553383Y-100678584D01*
X148628450Y-100658119D01*
X148675903Y-100664156D01*
X148700991Y-100690872D01*
X148709419Y-100708036D01*
X148713071Y-100711682D01*
X148713072Y-100711683D01*
X148788817Y-100787296D01*
X148788819Y-100787298D01*
X148792472Y-100790944D01*
X148828942Y-100808771D01*
X148893158Y-100840161D01*
X148897902Y-100842480D01*
X148902705Y-100843181D01*
X148902706Y-100843181D01*
X148920304Y-100845748D01*
X148966589Y-100852500D01*
X149224317Y-100852500D01*
X149483410Y-100852499D01*
X149552695Y-100842301D01*
X149588789Y-100824580D01*
X149658036Y-100790581D01*
X149659050Y-100792646D01*
X149697705Y-100783649D01*
X149738317Y-100808925D01*
X149750000Y-100845310D01*
X149750000Y-101411223D01*
X149731694Y-101455417D01*
X149687500Y-101473723D01*
X149660339Y-101465483D01*
X149659912Y-101466513D01*
X149643067Y-101459536D01*
X149578030Y-101446599D01*
X149571946Y-101446000D01*
X149316431Y-101446000D01*
X149307641Y-101449641D01*
X149304000Y-101458431D01*
X149304000Y-103341568D01*
X149307641Y-103350358D01*
X149316431Y-103353999D01*
X149571945Y-103353999D01*
X149578030Y-103353400D01*
X149643068Y-103340464D01*
X149654224Y-103335843D01*
X149693766Y-103309422D01*
X149740682Y-103300090D01*
X149764401Y-103315939D01*
X149748889Y-103278489D01*
X149759422Y-103243766D01*
X149785843Y-103204225D01*
X149790464Y-103193067D01*
X149803401Y-103128030D01*
X149804000Y-103121946D01*
X149804000Y-102562500D01*
X149822306Y-102518306D01*
X149866500Y-102500000D01*
X149980000Y-102500000D01*
X150024194Y-102518306D01*
X150042500Y-102562500D01*
X150042500Y-103112558D01*
X150043099Y-103115569D01*
X150044722Y-103123726D01*
X150049898Y-103149748D01*
X150065385Y-103172926D01*
X150066956Y-103175277D01*
X150076288Y-103222193D01*
X150049712Y-103261967D01*
X150014989Y-103272500D01*
X150007572Y-103272500D01*
X150004301Y-103272414D01*
X150001134Y-103272248D01*
X149963615Y-103270282D01*
X149957481Y-103272637D01*
X149957479Y-103272637D01*
X149939774Y-103279433D01*
X149930372Y-103282218D01*
X149922157Y-103283964D01*
X149905400Y-103287526D01*
X149900082Y-103291389D01*
X149900083Y-103291389D01*
X149897166Y-103293508D01*
X149882833Y-103301290D01*
X149873326Y-103304940D01*
X149855583Y-103322683D01*
X149811389Y-103340989D01*
X149780783Y-103328312D01*
X149789788Y-103373582D01*
X149772683Y-103405583D01*
X149671004Y-103507262D01*
X149668652Y-103509496D01*
X149638348Y-103536781D01*
X149635678Y-103542779D01*
X149635676Y-103542781D01*
X149627964Y-103560104D01*
X149623283Y-103568725D01*
X149612957Y-103584626D01*
X149609377Y-103590139D01*
X149607785Y-103600191D01*
X149603153Y-103615829D01*
X149599011Y-103625132D01*
X149599011Y-103650666D01*
X149598242Y-103660443D01*
X149594248Y-103685661D01*
X149595948Y-103692005D01*
X149596436Y-103693826D01*
X149596155Y-103695958D01*
X149596292Y-103698564D01*
X149595809Y-103698589D01*
X149590191Y-103741252D01*
X149552239Y-103770371D01*
X149536065Y-103772500D01*
X148537442Y-103772500D01*
X148534431Y-103773099D01*
X148506287Y-103778697D01*
X148506285Y-103778698D01*
X148500252Y-103779898D01*
X148458078Y-103808078D01*
X148429898Y-103850252D01*
X148428698Y-103856285D01*
X148428697Y-103856287D01*
X148426739Y-103866132D01*
X148422500Y-103887442D01*
X148422500Y-104633480D01*
X148404194Y-104677674D01*
X148360000Y-104695980D01*
X144190000Y-104695980D01*
X144145806Y-104677674D01*
X144127500Y-104633480D01*
X144127500Y-102987442D01*
X144125986Y-102979833D01*
X144121303Y-102956287D01*
X144121302Y-102956285D01*
X144120102Y-102950252D01*
X144110997Y-102936625D01*
X144897500Y-102936625D01*
X144897501Y-103563374D01*
X144897766Y-103565385D01*
X144897766Y-103565390D01*
X144903155Y-103606330D01*
X144903779Y-103611071D01*
X144905800Y-103615404D01*
X144905800Y-103615405D01*
X144950277Y-103710787D01*
X144950279Y-103710789D01*
X144952589Y-103715744D01*
X145034256Y-103797411D01*
X145039211Y-103799721D01*
X145039213Y-103799723D01*
X145088015Y-103822479D01*
X145138929Y-103846221D01*
X145152295Y-103847981D01*
X145184593Y-103852233D01*
X145184601Y-103852233D01*
X145186625Y-103852500D01*
X145188672Y-103852500D01*
X145425642Y-103852499D01*
X145663374Y-103852499D01*
X145665385Y-103852234D01*
X145665390Y-103852234D01*
X145706331Y-103846845D01*
X145706332Y-103846845D01*
X145711071Y-103846221D01*
X145727281Y-103838662D01*
X145810787Y-103799723D01*
X145810789Y-103799721D01*
X145815744Y-103797411D01*
X145897411Y-103715744D01*
X145905539Y-103698313D01*
X145932813Y-103639825D01*
X145968081Y-103607508D01*
X146015871Y-103609595D01*
X146024089Y-103614212D01*
X146062564Y-103639823D01*
X146179448Y-103676340D01*
X146183898Y-103676422D01*
X146183901Y-103676422D01*
X146233574Y-103677332D01*
X146301883Y-103678584D01*
X146368425Y-103660443D01*
X146415726Y-103647548D01*
X146415729Y-103647547D01*
X146420027Y-103646375D01*
X146477081Y-103611344D01*
X146524319Y-103603820D01*
X146563044Y-103631903D01*
X146566424Y-103638189D01*
X146570789Y-103647548D01*
X146600277Y-103710787D01*
X146600279Y-103710789D01*
X146602589Y-103715744D01*
X146684256Y-103797411D01*
X146689211Y-103799721D01*
X146689213Y-103799723D01*
X146738015Y-103822479D01*
X146788929Y-103846221D01*
X146802295Y-103847981D01*
X146834593Y-103852233D01*
X146834601Y-103852233D01*
X146836625Y-103852500D01*
X146838672Y-103852500D01*
X147075642Y-103852499D01*
X147313374Y-103852499D01*
X147315385Y-103852234D01*
X147315390Y-103852234D01*
X147356331Y-103846845D01*
X147356332Y-103846845D01*
X147361071Y-103846221D01*
X147377281Y-103838662D01*
X147460787Y-103799723D01*
X147460789Y-103799721D01*
X147465744Y-103797411D01*
X147547411Y-103715744D01*
X147549721Y-103710789D01*
X147549723Y-103710787D01*
X147579211Y-103647548D01*
X147596221Y-103611071D01*
X147598995Y-103590000D01*
X147602233Y-103565407D01*
X147602233Y-103565399D01*
X147602500Y-103563375D01*
X147602499Y-103121945D01*
X148296001Y-103121945D01*
X148296600Y-103128030D01*
X148309536Y-103193068D01*
X148314157Y-103204224D01*
X148363457Y-103278007D01*
X148371993Y-103286543D01*
X148445775Y-103335843D01*
X148456933Y-103340464D01*
X148521970Y-103353401D01*
X148528054Y-103354000D01*
X148783569Y-103354000D01*
X148792359Y-103350359D01*
X148796000Y-103341569D01*
X148796000Y-102666431D01*
X148792359Y-102657641D01*
X148783569Y-102654000D01*
X148308432Y-102654000D01*
X148299642Y-102657641D01*
X148296001Y-102666431D01*
X148296001Y-103121945D01*
X147602499Y-103121945D01*
X147602499Y-102936626D01*
X147602232Y-102934593D01*
X147596845Y-102893669D01*
X147596845Y-102893668D01*
X147596221Y-102888929D01*
X147580750Y-102855751D01*
X147549723Y-102789213D01*
X147549721Y-102789211D01*
X147547411Y-102784256D01*
X147465744Y-102702589D01*
X147460789Y-102700279D01*
X147460787Y-102700277D01*
X147386007Y-102665407D01*
X147361071Y-102653779D01*
X147347705Y-102652019D01*
X147315407Y-102647767D01*
X147315399Y-102647767D01*
X147313375Y-102647500D01*
X147302723Y-102647500D01*
X147040000Y-102647501D01*
X146995806Y-102629195D01*
X146977500Y-102585001D01*
X146977500Y-102360000D01*
X146995806Y-102315806D01*
X147040000Y-102297500D01*
X147662558Y-102297500D01*
X147667616Y-102296494D01*
X147693713Y-102291303D01*
X147693715Y-102291302D01*
X147699748Y-102290102D01*
X147741922Y-102261922D01*
X147770102Y-102219748D01*
X147772042Y-102210000D01*
X147776901Y-102185569D01*
X147777500Y-102182558D01*
X147777500Y-102133569D01*
X148296000Y-102133569D01*
X148299641Y-102142359D01*
X148308431Y-102146000D01*
X148783569Y-102146000D01*
X148792359Y-102142359D01*
X148796000Y-102133569D01*
X148796000Y-101458432D01*
X148792359Y-101449642D01*
X148783569Y-101446001D01*
X148528055Y-101446001D01*
X148521970Y-101446600D01*
X148456932Y-101459536D01*
X148445776Y-101464157D01*
X148371993Y-101513457D01*
X148363457Y-101521993D01*
X148314157Y-101595775D01*
X148309536Y-101606933D01*
X148296599Y-101671970D01*
X148296000Y-101678054D01*
X148296000Y-102133569D01*
X147777500Y-102133569D01*
X147777500Y-100357442D01*
X147770102Y-100320252D01*
X147741922Y-100278078D01*
X147699748Y-100249898D01*
X147693715Y-100248698D01*
X147693713Y-100248697D01*
X147667616Y-100243506D01*
X147662558Y-100242500D01*
X145837442Y-100242500D01*
X145832384Y-100243506D01*
X145806287Y-100248697D01*
X145806285Y-100248698D01*
X145800252Y-100249898D01*
X145758078Y-100278078D01*
X145729898Y-100320252D01*
X145722500Y-100357442D01*
X145722500Y-102182558D01*
X145723099Y-102185569D01*
X145727959Y-102210000D01*
X145729898Y-102219748D01*
X145758078Y-102261922D01*
X145800252Y-102290102D01*
X145806285Y-102291302D01*
X145806287Y-102291303D01*
X145832384Y-102296494D01*
X145837442Y-102297500D01*
X146460000Y-102297500D01*
X146504194Y-102315806D01*
X146522500Y-102360000D01*
X146522500Y-102803800D01*
X146504194Y-102847994D01*
X146460000Y-102866300D01*
X146433782Y-102860535D01*
X146433396Y-102860357D01*
X146429660Y-102857935D01*
X146312338Y-102822848D01*
X146251112Y-102822474D01*
X146194338Y-102822127D01*
X146194337Y-102822127D01*
X146189885Y-102822100D01*
X146072144Y-102855751D01*
X146022901Y-102886821D01*
X145975758Y-102894922D01*
X145936693Y-102867314D01*
X145932907Y-102860377D01*
X145899723Y-102789213D01*
X145899721Y-102789211D01*
X145897411Y-102784256D01*
X145815744Y-102702589D01*
X145810789Y-102700279D01*
X145810787Y-102700277D01*
X145736007Y-102665407D01*
X145711071Y-102653779D01*
X145697705Y-102652019D01*
X145665407Y-102647767D01*
X145665399Y-102647767D01*
X145663375Y-102647500D01*
X145661328Y-102647500D01*
X145424358Y-102647501D01*
X145186626Y-102647501D01*
X145184615Y-102647766D01*
X145184610Y-102647766D01*
X145143669Y-102653155D01*
X145143668Y-102653155D01*
X145138929Y-102653779D01*
X145134595Y-102655800D01*
X145039213Y-102700277D01*
X145039211Y-102700279D01*
X145034256Y-102702589D01*
X144952589Y-102784256D01*
X144950279Y-102789211D01*
X144950277Y-102789213D01*
X144943475Y-102803800D01*
X144903779Y-102888929D01*
X144903155Y-102893669D01*
X144903155Y-102893670D01*
X144897767Y-102934593D01*
X144897767Y-102934601D01*
X144897500Y-102936625D01*
X144110997Y-102936625D01*
X144091922Y-102908078D01*
X144049748Y-102879898D01*
X144043715Y-102878698D01*
X144043713Y-102878697D01*
X144015569Y-102873099D01*
X144012558Y-102872500D01*
X141987442Y-102872500D01*
X141984431Y-102873099D01*
X141956287Y-102878697D01*
X141956285Y-102878698D01*
X141950252Y-102879898D01*
X141908078Y-102908078D01*
X141879898Y-102950252D01*
X141878698Y-102956285D01*
X141878697Y-102956287D01*
X141874014Y-102979833D01*
X141872500Y-102987442D01*
X141872500Y-104960000D01*
X141854194Y-105004194D01*
X141810000Y-105022500D01*
X140940000Y-105022500D01*
X140895806Y-105004194D01*
X140877500Y-104960000D01*
X140877500Y-102987442D01*
X140875986Y-102979833D01*
X140871303Y-102956287D01*
X140871302Y-102956285D01*
X140870102Y-102950252D01*
X140841922Y-102908078D01*
X140799748Y-102879898D01*
X140793715Y-102878698D01*
X140793713Y-102878697D01*
X140765569Y-102873099D01*
X140762558Y-102872500D01*
X138737442Y-102872500D01*
X138734431Y-102873099D01*
X138706287Y-102878697D01*
X138706285Y-102878698D01*
X138700252Y-102879898D01*
X138658078Y-102908078D01*
X138629898Y-102950252D01*
X138628698Y-102956285D01*
X138628697Y-102956287D01*
X138624014Y-102979833D01*
X138622500Y-102987442D01*
X138622500Y-105012558D01*
X138629898Y-105049748D01*
X138658078Y-105091922D01*
X138700252Y-105120102D01*
X138706285Y-105121302D01*
X138706287Y-105121303D01*
X138732384Y-105126494D01*
X138737442Y-105127500D01*
X139529584Y-105127500D01*
X139573778Y-105145806D01*
X139580147Y-105153263D01*
X139594372Y-105172842D01*
X139600059Y-105176125D01*
X139600063Y-105176129D01*
X139603188Y-105177933D01*
X139616132Y-105187865D01*
X139833772Y-105405506D01*
X139836024Y-105407879D01*
X139863292Y-105438163D01*
X139869290Y-105440833D01*
X139869292Y-105440835D01*
X139886615Y-105448547D01*
X139895236Y-105453228D01*
X139911137Y-105463554D01*
X139916650Y-105467134D01*
X139926702Y-105468726D01*
X139942340Y-105473358D01*
X139951643Y-105477500D01*
X139977177Y-105477500D01*
X139986954Y-105478269D01*
X140005686Y-105481236D01*
X140005687Y-105481236D01*
X140012172Y-105482263D01*
X140022005Y-105479628D01*
X140038175Y-105477500D01*
X147879879Y-105477500D01*
X147924073Y-105495806D01*
X148333754Y-105905487D01*
X148336007Y-105907860D01*
X148363292Y-105938163D01*
X148369293Y-105940835D01*
X148386621Y-105948550D01*
X148395239Y-105953229D01*
X148411142Y-105963557D01*
X148411144Y-105963558D01*
X148416651Y-105967134D01*
X148426702Y-105968726D01*
X148442344Y-105973360D01*
X148445643Y-105974829D01*
X148445645Y-105974829D01*
X148451643Y-105977500D01*
X148477178Y-105977500D01*
X148486957Y-105978270D01*
X148512172Y-105982264D01*
X148522008Y-105979628D01*
X148538179Y-105977500D01*
X148879879Y-105977500D01*
X148924073Y-105995806D01*
X148949073Y-106020806D01*
X148967379Y-106065000D01*
X148949073Y-106109194D01*
X148904879Y-106127500D01*
X148587442Y-106127500D01*
X148584431Y-106128099D01*
X148556287Y-106133697D01*
X148556285Y-106133698D01*
X148550252Y-106134898D01*
X148545135Y-106138317D01*
X148534723Y-106145274D01*
X148487806Y-106154606D01*
X148465277Y-106145274D01*
X148454865Y-106138317D01*
X148449748Y-106134898D01*
X148443715Y-106133698D01*
X148443713Y-106133697D01*
X148415569Y-106128099D01*
X148412558Y-106127500D01*
X148153698Y-106127500D01*
X148109504Y-106109194D01*
X148101731Y-106099723D01*
X148086543Y-106076993D01*
X148078007Y-106068457D01*
X148004225Y-106019157D01*
X147993067Y-106014536D01*
X147928030Y-106001599D01*
X147921946Y-106001000D01*
X147912431Y-106001000D01*
X147903641Y-106004641D01*
X147900000Y-106013431D01*
X147900000Y-107646568D01*
X147903641Y-107655358D01*
X147912431Y-107658999D01*
X147921945Y-107658999D01*
X147928030Y-107658400D01*
X147993068Y-107645464D01*
X148004224Y-107640843D01*
X148078007Y-107591543D01*
X148086543Y-107583007D01*
X148101731Y-107560277D01*
X148141505Y-107533701D01*
X148153698Y-107532500D01*
X148412558Y-107532500D01*
X148447807Y-107525488D01*
X148494722Y-107534819D01*
X148521299Y-107574593D01*
X148522500Y-107586787D01*
X148522500Y-107742427D01*
X148522414Y-107745698D01*
X148520282Y-107786384D01*
X148529435Y-107810231D01*
X148532216Y-107819619D01*
X148537526Y-107844600D01*
X148541388Y-107849916D01*
X148541389Y-107849918D01*
X148543508Y-107852835D01*
X148551291Y-107867168D01*
X148552586Y-107870541D01*
X148554940Y-107876673D01*
X148559817Y-107881550D01*
X148559960Y-107881896D01*
X148563162Y-107886826D01*
X148562248Y-107887419D01*
X148578123Y-107925744D01*
X148577379Y-107935359D01*
X148574842Y-107951656D01*
X148568136Y-107994724D01*
X148584014Y-108116145D01*
X148585807Y-108120220D01*
X148615846Y-108188487D01*
X148633333Y-108228230D01*
X148712127Y-108321968D01*
X148715832Y-108324434D01*
X148715834Y-108324436D01*
X148727650Y-108332301D01*
X148814064Y-108389823D01*
X148930948Y-108426340D01*
X148935398Y-108426422D01*
X148935401Y-108426422D01*
X148985074Y-108427332D01*
X149053383Y-108428584D01*
X149106088Y-108414215D01*
X149167226Y-108397548D01*
X149167229Y-108397547D01*
X149171527Y-108396375D01*
X149175323Y-108394044D01*
X149175326Y-108394043D01*
X149272083Y-108334633D01*
X149275881Y-108332301D01*
X149358058Y-108241513D01*
X149411451Y-108131311D01*
X149413406Y-108119695D01*
X149426195Y-108043670D01*
X149428220Y-108031638D01*
X149453603Y-107991094D01*
X149499628Y-107980277D01*
X149505684Y-107981236D01*
X149505687Y-107981236D01*
X149512172Y-107982263D01*
X149522005Y-107979628D01*
X149538175Y-107977500D01*
X149992427Y-107977500D01*
X149995698Y-107977586D01*
X150036384Y-107979718D01*
X150060231Y-107970565D01*
X150069619Y-107967784D01*
X150094600Y-107962474D01*
X150099916Y-107958612D01*
X150099918Y-107958611D01*
X150102835Y-107956492D01*
X150117168Y-107948709D01*
X150120541Y-107947414D01*
X150126673Y-107945060D01*
X150144727Y-107927006D01*
X150152185Y-107920636D01*
X150167528Y-107909489D01*
X150167528Y-107909488D01*
X150172842Y-107905628D01*
X150176125Y-107899941D01*
X150176129Y-107899937D01*
X150177933Y-107896812D01*
X150187865Y-107883868D01*
X150294650Y-107777084D01*
X150405506Y-107666228D01*
X150407879Y-107663976D01*
X150433282Y-107641103D01*
X150438163Y-107636708D01*
X150440833Y-107630710D01*
X150440835Y-107630708D01*
X150448547Y-107613385D01*
X150453228Y-107604764D01*
X150463554Y-107588863D01*
X150463554Y-107588862D01*
X150467134Y-107583350D01*
X150468700Y-107573463D01*
X150493694Y-107532677D01*
X150540208Y-107521511D01*
X150548289Y-107523790D01*
X150550252Y-107525102D01*
X150556285Y-107526302D01*
X150556287Y-107526303D01*
X150582384Y-107531494D01*
X150587442Y-107532500D01*
X150912558Y-107532500D01*
X150917616Y-107531494D01*
X150943713Y-107526303D01*
X150943715Y-107526302D01*
X150949748Y-107525102D01*
X150965277Y-107514726D01*
X151012194Y-107505394D01*
X151034724Y-107514726D01*
X151050252Y-107525102D01*
X151056285Y-107526302D01*
X151056287Y-107526303D01*
X151082384Y-107531494D01*
X151087442Y-107532500D01*
X151412558Y-107532500D01*
X151447807Y-107525488D01*
X151494722Y-107534819D01*
X151521299Y-107574593D01*
X151522500Y-107586787D01*
X151522500Y-107815053D01*
X151504194Y-107859247D01*
X151493353Y-107867910D01*
X151409059Y-107921095D01*
X151406116Y-107924427D01*
X151406114Y-107924429D01*
X151330944Y-108009542D01*
X151327997Y-108012879D01*
X151326105Y-108016909D01*
X151277847Y-108119695D01*
X151277846Y-108119698D01*
X151275955Y-108123726D01*
X151257115Y-108244724D01*
X151257692Y-108249137D01*
X151257692Y-108249138D01*
X151262234Y-108283870D01*
X151272993Y-108366145D01*
X151274786Y-108370220D01*
X151318911Y-108470500D01*
X151322312Y-108478230D01*
X151401106Y-108571968D01*
X151404811Y-108574434D01*
X151404813Y-108574436D01*
X151466360Y-108615405D01*
X151503043Y-108639823D01*
X151619927Y-108676340D01*
X151624377Y-108676422D01*
X151624380Y-108676422D01*
X151674053Y-108677332D01*
X151742362Y-108678584D01*
X151795067Y-108664215D01*
X151856205Y-108647548D01*
X151856208Y-108647547D01*
X151860506Y-108646375D01*
X151864302Y-108644044D01*
X151864305Y-108644043D01*
X151961062Y-108584633D01*
X151964860Y-108582301D01*
X152047037Y-108491513D01*
X152100430Y-108381311D01*
X152101529Y-108374784D01*
X152120346Y-108262928D01*
X152120746Y-108260552D01*
X152120875Y-108250000D01*
X152103515Y-108128781D01*
X152065530Y-108045236D01*
X152054675Y-108021362D01*
X152054674Y-108021360D01*
X152052831Y-108017307D01*
X151992651Y-107947465D01*
X151977500Y-107906669D01*
X151977500Y-107895000D01*
X152309534Y-107895000D01*
X152310069Y-107899064D01*
X152323358Y-108000000D01*
X152329313Y-108045236D01*
X152330881Y-108049020D01*
X152330881Y-108049022D01*
X152385732Y-108181444D01*
X152385734Y-108181447D01*
X152387302Y-108185233D01*
X152479549Y-108305451D01*
X152599767Y-108397698D01*
X152603553Y-108399266D01*
X152603556Y-108399268D01*
X152735978Y-108454119D01*
X152735980Y-108454119D01*
X152739764Y-108455687D01*
X152743826Y-108456222D01*
X152743827Y-108456222D01*
X152850249Y-108470233D01*
X152850255Y-108470233D01*
X152852280Y-108470500D01*
X152927720Y-108470500D01*
X152929745Y-108470233D01*
X152929751Y-108470233D01*
X153036173Y-108456222D01*
X153036174Y-108456222D01*
X153040236Y-108455687D01*
X153044020Y-108454119D01*
X153044022Y-108454119D01*
X153176444Y-108399268D01*
X153176447Y-108399266D01*
X153180233Y-108397698D01*
X153300451Y-108305451D01*
X153392698Y-108185233D01*
X153394266Y-108181447D01*
X153394268Y-108181444D01*
X153449119Y-108049022D01*
X153449119Y-108049020D01*
X153450687Y-108045236D01*
X153456643Y-108000000D01*
X153469931Y-107899064D01*
X153470466Y-107895000D01*
X153464915Y-107852835D01*
X153451222Y-107748827D01*
X153451222Y-107748826D01*
X153450687Y-107744764D01*
X153448019Y-107738323D01*
X153398560Y-107618918D01*
X153398560Y-107571082D01*
X153432384Y-107537258D01*
X153456302Y-107532500D01*
X153512558Y-107532500D01*
X153517616Y-107531494D01*
X153543713Y-107526303D01*
X153543715Y-107526302D01*
X153549748Y-107525102D01*
X153591922Y-107496922D01*
X153592908Y-107498398D01*
X153630000Y-107483034D01*
X153674194Y-107501340D01*
X153692500Y-107545534D01*
X153692500Y-107984476D01*
X153692747Y-107986428D01*
X153692747Y-107986434D01*
X153697160Y-108021362D01*
X153707384Y-108102293D01*
X153708831Y-108105949D01*
X153708832Y-108105951D01*
X153715870Y-108123726D01*
X153765747Y-108249703D01*
X153768056Y-108252881D01*
X153768057Y-108252883D01*
X153853308Y-108370220D01*
X153858937Y-108377967D01*
X153861966Y-108380473D01*
X153861968Y-108380475D01*
X153915804Y-108425011D01*
X153981097Y-108479026D01*
X154124551Y-108546531D01*
X154128409Y-108547267D01*
X154276421Y-108575502D01*
X154276423Y-108575502D01*
X154280286Y-108576239D01*
X154284212Y-108575992D01*
X154434592Y-108566531D01*
X154434593Y-108566531D01*
X154438516Y-108566284D01*
X154442254Y-108565069D01*
X154442256Y-108565069D01*
X154585564Y-108518505D01*
X154585565Y-108518505D01*
X154589300Y-108517291D01*
X154626541Y-108493657D01*
X155771000Y-108493657D01*
X155771183Y-108497025D01*
X155776940Y-108550020D01*
X155778738Y-108557584D01*
X155823962Y-108678222D01*
X155828197Y-108685957D01*
X155905145Y-108788627D01*
X155911373Y-108794855D01*
X156014043Y-108871803D01*
X156021778Y-108876038D01*
X156142416Y-108921262D01*
X156149980Y-108923060D01*
X156202975Y-108928817D01*
X156206343Y-108929000D01*
X156233569Y-108929000D01*
X156242359Y-108925359D01*
X156246000Y-108916569D01*
X156754000Y-108916569D01*
X156757641Y-108925359D01*
X156766431Y-108929000D01*
X156793657Y-108929000D01*
X156797025Y-108928817D01*
X156850020Y-108923060D01*
X156857584Y-108921262D01*
X156978222Y-108876038D01*
X156985957Y-108871803D01*
X157088627Y-108794855D01*
X157094855Y-108788627D01*
X157171803Y-108685957D01*
X157176038Y-108678222D01*
X157221262Y-108557584D01*
X157223060Y-108550020D01*
X157228817Y-108497025D01*
X157229000Y-108493657D01*
X157229000Y-108491431D01*
X157225359Y-108482641D01*
X157216569Y-108479000D01*
X156766431Y-108479000D01*
X156757641Y-108482641D01*
X156754000Y-108491431D01*
X156754000Y-108916569D01*
X156246000Y-108916569D01*
X156246000Y-108491431D01*
X156242359Y-108482641D01*
X156233569Y-108479000D01*
X155783431Y-108479000D01*
X155774641Y-108482641D01*
X155771000Y-108491431D01*
X155771000Y-108493657D01*
X154626541Y-108493657D01*
X154723162Y-108432340D01*
X154725851Y-108429476D01*
X154725854Y-108429474D01*
X154828998Y-108319637D01*
X154828998Y-108319636D01*
X154831693Y-108316767D01*
X154908072Y-108177834D01*
X154947500Y-108024272D01*
X154947500Y-107958569D01*
X155771000Y-107958569D01*
X155774641Y-107967359D01*
X155783431Y-107971000D01*
X157216569Y-107971000D01*
X157225359Y-107967359D01*
X157229000Y-107958569D01*
X157229000Y-107956343D01*
X157228817Y-107952975D01*
X157223060Y-107899980D01*
X157221262Y-107892416D01*
X157176038Y-107771778D01*
X157171803Y-107764043D01*
X157094855Y-107661373D01*
X157088627Y-107655145D01*
X156985957Y-107578197D01*
X156978220Y-107573961D01*
X156946840Y-107562198D01*
X156911883Y-107529544D01*
X156909237Y-107484672D01*
X156909510Y-107483818D01*
X156911451Y-107479811D01*
X156912201Y-107475358D01*
X156929382Y-107373226D01*
X156931767Y-107359052D01*
X156931848Y-107352425D01*
X156931867Y-107350911D01*
X156931867Y-107350905D01*
X156931896Y-107348500D01*
X156931555Y-107346121D01*
X156931471Y-107344826D01*
X156946871Y-107299538D01*
X156955254Y-107291947D01*
X156958036Y-107290581D01*
X157013081Y-107235440D01*
X157037296Y-107211183D01*
X157037298Y-107211181D01*
X157040944Y-107207528D01*
X157089965Y-107107244D01*
X157090349Y-107106458D01*
X157090349Y-107106457D01*
X157092480Y-107102098D01*
X157102500Y-107033411D01*
X157102499Y-106516590D01*
X157092301Y-106447305D01*
X157088715Y-106440000D01*
X157065967Y-106393669D01*
X157040581Y-106341964D01*
X157036928Y-106338317D01*
X156961183Y-106262704D01*
X156961181Y-106262702D01*
X156957528Y-106259056D01*
X156884238Y-106223231D01*
X156856458Y-106209651D01*
X156856457Y-106209651D01*
X156852098Y-106207520D01*
X156847295Y-106206819D01*
X156847294Y-106206819D01*
X156818296Y-106202589D01*
X156783411Y-106197500D01*
X156500749Y-106197500D01*
X156216590Y-106197501D01*
X156147305Y-106207699D01*
X156142947Y-106209839D01*
X156142946Y-106209839D01*
X156134455Y-106214008D01*
X156041964Y-106259419D01*
X156038318Y-106263071D01*
X156038317Y-106263072D01*
X155962704Y-106338817D01*
X155962702Y-106338819D01*
X155959056Y-106342472D01*
X155934030Y-106393669D01*
X155909943Y-106442946D01*
X155907520Y-106447902D01*
X155897500Y-106516589D01*
X155897501Y-107033410D01*
X155907699Y-107102695D01*
X155909839Y-107107053D01*
X155909839Y-107107054D01*
X155909932Y-107107244D01*
X155959419Y-107208036D01*
X155963071Y-107211682D01*
X155963072Y-107211683D01*
X156038817Y-107287296D01*
X156038819Y-107287298D01*
X156042472Y-107290944D01*
X156043499Y-107291446D01*
X156067935Y-107330549D01*
X156068654Y-107339898D01*
X156068136Y-107343224D01*
X156068713Y-107347637D01*
X156068713Y-107347640D01*
X156073166Y-107381690D01*
X156084014Y-107464645D01*
X156085807Y-107468721D01*
X156085808Y-107468723D01*
X156089873Y-107477962D01*
X156090916Y-107525786D01*
X156054605Y-107561656D01*
X156021778Y-107573962D01*
X156014043Y-107578197D01*
X155911373Y-107655145D01*
X155905145Y-107661373D01*
X155828197Y-107764043D01*
X155823962Y-107771778D01*
X155778738Y-107892416D01*
X155776940Y-107899980D01*
X155771183Y-107952975D01*
X155771000Y-107956343D01*
X155771000Y-107958569D01*
X154947500Y-107958569D01*
X154947500Y-106805524D01*
X154946349Y-106796409D01*
X154935050Y-106706976D01*
X154932616Y-106687707D01*
X154874253Y-106540297D01*
X154855397Y-106514343D01*
X154783376Y-106415216D01*
X154783374Y-106415214D01*
X154781063Y-106412033D01*
X154778034Y-106409527D01*
X154778032Y-106409525D01*
X154696364Y-106341964D01*
X154658903Y-106310974D01*
X154515449Y-106243469D01*
X154511591Y-106242733D01*
X154363579Y-106214498D01*
X154363577Y-106214498D01*
X154359714Y-106213761D01*
X154355788Y-106214008D01*
X154205408Y-106223469D01*
X154205407Y-106223469D01*
X154201484Y-106223716D01*
X154197746Y-106224931D01*
X154197744Y-106224931D01*
X154092719Y-106259056D01*
X154050700Y-106272709D01*
X153916838Y-106357660D01*
X153914149Y-106360524D01*
X153914146Y-106360526D01*
X153828143Y-106452110D01*
X153808307Y-106473233D01*
X153807168Y-106475305D01*
X153762465Y-106500596D01*
X153753286Y-106501399D01*
X153743422Y-106502262D01*
X153737975Y-106502500D01*
X153690000Y-106502500D01*
X153645806Y-106484194D01*
X153627500Y-106440000D01*
X153627500Y-106242442D01*
X153623726Y-106223469D01*
X153621303Y-106211287D01*
X153621302Y-106211285D01*
X153620102Y-106205252D01*
X153591922Y-106163078D01*
X153549748Y-106134898D01*
X153543715Y-106133698D01*
X153543713Y-106133697D01*
X153515569Y-106128099D01*
X153512558Y-106127500D01*
X152953698Y-106127500D01*
X152909504Y-106109194D01*
X152901731Y-106099723D01*
X152886543Y-106076993D01*
X152878007Y-106068457D01*
X152804225Y-106019157D01*
X152793067Y-106014536D01*
X152728030Y-106001599D01*
X152721946Y-106001000D01*
X152712431Y-106001000D01*
X152703641Y-106004641D01*
X152700000Y-106013431D01*
X152700000Y-106917500D01*
X152681694Y-106961694D01*
X152637500Y-106980000D01*
X152412431Y-106980000D01*
X152403641Y-106983641D01*
X152400000Y-106992431D01*
X152400000Y-107567097D01*
X152391626Y-107598348D01*
X152389797Y-107601515D01*
X152387302Y-107604767D01*
X152385734Y-107608552D01*
X152385733Y-107608554D01*
X152331981Y-107738323D01*
X152329313Y-107744764D01*
X152328778Y-107748826D01*
X152328778Y-107748827D01*
X152315085Y-107852835D01*
X152309534Y-107895000D01*
X151977500Y-107895000D01*
X151977500Y-107715766D01*
X151995806Y-107671572D01*
X152040000Y-107653266D01*
X152052193Y-107654467D01*
X152071970Y-107658401D01*
X152078054Y-107659000D01*
X152087569Y-107659000D01*
X152096359Y-107655359D01*
X152100000Y-107646569D01*
X152100000Y-106013432D01*
X152096359Y-106004642D01*
X152087569Y-106001001D01*
X152078055Y-106001001D01*
X152071970Y-106001600D01*
X152006932Y-106014536D01*
X151995776Y-106019157D01*
X151921993Y-106068457D01*
X151913457Y-106076993D01*
X151898269Y-106099723D01*
X151858495Y-106126299D01*
X151846302Y-106127500D01*
X151587442Y-106127500D01*
X151584431Y-106128099D01*
X151556287Y-106133697D01*
X151556285Y-106133698D01*
X151550252Y-106134898D01*
X151545135Y-106138317D01*
X151534723Y-106145274D01*
X151487806Y-106154606D01*
X151465277Y-106145274D01*
X151454865Y-106138317D01*
X151449748Y-106134898D01*
X151443715Y-106133698D01*
X151443713Y-106133697D01*
X151415569Y-106128099D01*
X151412558Y-106127500D01*
X151375842Y-106127500D01*
X151331648Y-106109194D01*
X151313342Y-106065000D01*
X151329505Y-106023058D01*
X151355071Y-105994813D01*
X151358058Y-105991513D01*
X151411451Y-105881311D01*
X151412339Y-105876038D01*
X151431367Y-105762928D01*
X151431767Y-105760552D01*
X151431896Y-105750000D01*
X151414536Y-105628781D01*
X151363852Y-105517307D01*
X151365879Y-105516385D01*
X151361826Y-105493657D01*
X155771000Y-105493657D01*
X155771183Y-105497025D01*
X155776940Y-105550020D01*
X155778738Y-105557584D01*
X155823962Y-105678222D01*
X155828197Y-105685957D01*
X155905145Y-105788627D01*
X155911373Y-105794855D01*
X156014043Y-105871803D01*
X156021778Y-105876038D01*
X156142416Y-105921262D01*
X156149980Y-105923060D01*
X156202975Y-105928817D01*
X156206343Y-105929000D01*
X156233569Y-105929000D01*
X156242359Y-105925359D01*
X156246000Y-105916569D01*
X156754000Y-105916569D01*
X156757641Y-105925359D01*
X156766431Y-105929000D01*
X156793657Y-105929000D01*
X156797025Y-105928817D01*
X156850020Y-105923060D01*
X156857584Y-105921262D01*
X156978222Y-105876038D01*
X156985957Y-105871803D01*
X157088627Y-105794855D01*
X157094855Y-105788627D01*
X157171803Y-105685957D01*
X157176038Y-105678222D01*
X157221262Y-105557584D01*
X157223060Y-105550020D01*
X157228817Y-105497025D01*
X157229000Y-105493657D01*
X157229000Y-105491431D01*
X157225359Y-105482641D01*
X157216569Y-105479000D01*
X156766431Y-105479000D01*
X156757641Y-105482641D01*
X156754000Y-105491431D01*
X156754000Y-105916569D01*
X156246000Y-105916569D01*
X156246000Y-105491431D01*
X156242359Y-105482641D01*
X156233569Y-105479000D01*
X155783431Y-105479000D01*
X155774641Y-105482641D01*
X155771000Y-105491431D01*
X155771000Y-105493657D01*
X151361826Y-105493657D01*
X151358783Y-105476590D01*
X151386144Y-105437353D01*
X151419827Y-105427500D01*
X151462558Y-105427500D01*
X151467616Y-105426494D01*
X151493713Y-105421303D01*
X151493715Y-105421302D01*
X151499748Y-105420102D01*
X151541922Y-105391922D01*
X151570102Y-105349748D01*
X151571409Y-105343181D01*
X151576901Y-105315569D01*
X151577500Y-105312558D01*
X151577500Y-104890000D01*
X151595806Y-104845806D01*
X151640000Y-104827500D01*
X151642427Y-104827500D01*
X151645698Y-104827586D01*
X151686384Y-104829718D01*
X151710231Y-104820565D01*
X151719619Y-104817784D01*
X151744600Y-104812474D01*
X151749916Y-104808612D01*
X151749918Y-104808611D01*
X151752835Y-104806492D01*
X151767168Y-104798709D01*
X151770541Y-104797414D01*
X151776673Y-104795060D01*
X151794727Y-104777006D01*
X151802185Y-104770636D01*
X151817528Y-104759489D01*
X151817528Y-104759488D01*
X151822842Y-104755628D01*
X151826125Y-104749941D01*
X151826129Y-104749937D01*
X151827933Y-104746812D01*
X151837865Y-104733868D01*
X152325928Y-104245806D01*
X152370122Y-104227500D01*
X152576262Y-104227500D01*
X152620456Y-104245806D01*
X152638762Y-104290000D01*
X152620456Y-104334194D01*
X152593437Y-104350094D01*
X152573644Y-104355751D01*
X152470080Y-104421095D01*
X152467137Y-104424427D01*
X152467135Y-104424429D01*
X152424685Y-104472494D01*
X152389018Y-104512879D01*
X152387126Y-104516909D01*
X152338868Y-104619695D01*
X152338867Y-104619698D01*
X152336976Y-104623726D01*
X152318136Y-104744724D01*
X152318713Y-104749137D01*
X152318713Y-104749138D01*
X152322357Y-104777006D01*
X152334014Y-104866145D01*
X152335807Y-104870220D01*
X152380152Y-104971000D01*
X152383333Y-104978230D01*
X152462127Y-105071968D01*
X152465832Y-105074434D01*
X152465834Y-105074436D01*
X152529301Y-105116683D01*
X152564064Y-105139823D01*
X152680948Y-105176340D01*
X152685398Y-105176422D01*
X152685401Y-105176422D01*
X152735074Y-105177332D01*
X152803383Y-105178584D01*
X152878450Y-105158119D01*
X152925903Y-105164156D01*
X152950991Y-105190872D01*
X152956891Y-105202887D01*
X152959419Y-105208036D01*
X152963071Y-105211682D01*
X152963072Y-105211683D01*
X153038817Y-105287296D01*
X153038819Y-105287298D01*
X153042472Y-105290944D01*
X153115762Y-105326769D01*
X153143158Y-105340161D01*
X153147902Y-105342480D01*
X153152705Y-105343181D01*
X153152706Y-105343181D01*
X153173540Y-105346220D01*
X153216589Y-105352500D01*
X153474317Y-105352500D01*
X153733410Y-105352499D01*
X153802695Y-105342301D01*
X153815991Y-105335773D01*
X153870387Y-105309066D01*
X153918125Y-105306021D01*
X153937148Y-105316504D01*
X153974024Y-105346220D01*
X153974028Y-105346222D01*
X153977507Y-105349026D01*
X153985894Y-105352500D01*
X154018863Y-105366157D01*
X154018868Y-105366159D01*
X154021701Y-105367332D01*
X154024709Y-105367930D01*
X154024711Y-105367931D01*
X154044086Y-105371785D01*
X154070302Y-105377000D01*
X154291949Y-105377000D01*
X154314602Y-105374963D01*
X154322132Y-105373598D01*
X154332136Y-105371785D01*
X154332139Y-105371784D01*
X154336541Y-105370986D01*
X154340540Y-105368978D01*
X154340543Y-105368977D01*
X154396582Y-105340838D01*
X154400583Y-105338829D01*
X154403853Y-105335775D01*
X154403855Y-105335773D01*
X154434318Y-105307316D01*
X154434322Y-105307312D01*
X154435539Y-105306175D01*
X154438930Y-105302249D01*
X154449260Y-105290288D01*
X154449261Y-105290287D01*
X154453285Y-105285627D01*
X154455219Y-105279783D01*
X154458258Y-105274426D01*
X154459876Y-105275344D01*
X154485967Y-105245125D01*
X154533675Y-105241627D01*
X154558198Y-105256731D01*
X154588814Y-105287293D01*
X154588816Y-105287295D01*
X154592472Y-105290944D01*
X154665762Y-105326769D01*
X154693158Y-105340161D01*
X154697902Y-105342480D01*
X154702705Y-105343181D01*
X154702706Y-105343181D01*
X154723540Y-105346220D01*
X154766589Y-105352500D01*
X155024317Y-105352500D01*
X155283410Y-105352499D01*
X155352695Y-105342301D01*
X155458036Y-105290581D01*
X155462145Y-105286465D01*
X155537296Y-105211183D01*
X155537298Y-105211181D01*
X155540944Y-105207528D01*
X155592480Y-105102098D01*
X155593965Y-105091922D01*
X155600117Y-105049748D01*
X155602500Y-105033411D01*
X155602500Y-104960185D01*
X155620806Y-104915991D01*
X155665000Y-104897685D01*
X155708500Y-104897685D01*
X155752694Y-104915991D01*
X155765671Y-104947319D01*
X155766242Y-104947082D01*
X155774641Y-104967359D01*
X155783431Y-104971000D01*
X156233569Y-104971000D01*
X156242359Y-104967359D01*
X156246000Y-104958569D01*
X156754000Y-104958569D01*
X156757641Y-104967359D01*
X156766431Y-104971000D01*
X157216569Y-104971000D01*
X157225359Y-104967359D01*
X157229000Y-104958569D01*
X157229000Y-104956343D01*
X157228817Y-104952975D01*
X157223060Y-104899980D01*
X157221262Y-104892416D01*
X157176038Y-104771778D01*
X157171803Y-104764043D01*
X157094855Y-104661373D01*
X157088627Y-104655145D01*
X156985957Y-104578197D01*
X156978222Y-104573962D01*
X156857584Y-104528738D01*
X156850020Y-104526940D01*
X156797025Y-104521183D01*
X156793657Y-104521000D01*
X156766431Y-104521000D01*
X156757641Y-104524641D01*
X156754000Y-104533431D01*
X156754000Y-104958569D01*
X156246000Y-104958569D01*
X156246000Y-104601621D01*
X156264306Y-104557427D01*
X156426427Y-104395306D01*
X156470621Y-104377000D01*
X157402378Y-104377000D01*
X157426679Y-104372166D01*
X157447969Y-104367931D01*
X157447971Y-104367930D01*
X157450979Y-104367332D01*
X157453812Y-104366159D01*
X157453817Y-104366157D01*
X157492334Y-104350202D01*
X157495173Y-104349026D01*
X157536375Y-104321497D01*
X157571497Y-104286375D01*
X157584723Y-104266580D01*
X157592172Y-104260466D01*
X157597660Y-104247217D01*
X157599026Y-104245173D01*
X157617332Y-104200979D01*
X157618510Y-104195060D01*
X157626401Y-104155388D01*
X157627000Y-104152378D01*
X157627000Y-104098792D01*
X157626489Y-104095341D01*
X157621868Y-104064194D01*
X157621532Y-104061926D01*
X157610999Y-104027203D01*
X157610018Y-104025130D01*
X157610016Y-104025124D01*
X157606003Y-104016642D01*
X157600000Y-103989915D01*
X157600000Y-103462500D01*
X157618306Y-103418306D01*
X157662500Y-103400000D01*
X157837500Y-103400000D01*
X157881694Y-103418306D01*
X157900000Y-103462500D01*
X157900000Y-104241568D01*
X157903641Y-104250358D01*
X157912431Y-104253999D01*
X157921945Y-104253999D01*
X157928030Y-104253400D01*
X157947808Y-104249466D01*
X157994724Y-104258799D01*
X158021299Y-104298573D01*
X158022500Y-104310765D01*
X158022500Y-104585001D01*
X158004194Y-104629195D01*
X157960000Y-104647501D01*
X157936626Y-104647501D01*
X157934615Y-104647766D01*
X157934610Y-104647766D01*
X157893669Y-104653155D01*
X157893668Y-104653155D01*
X157888929Y-104653779D01*
X157884595Y-104655800D01*
X157789213Y-104700277D01*
X157789211Y-104700279D01*
X157784256Y-104702589D01*
X157702589Y-104784256D01*
X157700279Y-104789211D01*
X157700277Y-104789213D01*
X157682487Y-104827364D01*
X157653779Y-104888929D01*
X157653155Y-104893669D01*
X157653155Y-104893670D01*
X157647767Y-104934593D01*
X157647767Y-104934601D01*
X157647500Y-104936625D01*
X157647500Y-104938672D01*
X157647501Y-105250843D01*
X157647501Y-105563374D01*
X157647766Y-105565385D01*
X157647766Y-105565390D01*
X157651597Y-105594493D01*
X157653779Y-105611071D01*
X157655800Y-105615404D01*
X157655800Y-105615405D01*
X157700277Y-105710787D01*
X157700279Y-105710789D01*
X157702589Y-105715744D01*
X157784256Y-105797411D01*
X157789211Y-105799721D01*
X157789213Y-105799723D01*
X157815840Y-105812139D01*
X157888929Y-105846221D01*
X157893671Y-105846845D01*
X157898260Y-105848183D01*
X157897876Y-105849501D01*
X157934587Y-105870698D01*
X157947500Y-105908743D01*
X157947500Y-106091257D01*
X157929194Y-106135451D01*
X157897979Y-106150842D01*
X157898263Y-106151816D01*
X157893669Y-106153155D01*
X157888929Y-106153779D01*
X157884595Y-106155800D01*
X157789213Y-106200277D01*
X157789211Y-106200279D01*
X157784256Y-106202589D01*
X157702589Y-106284256D01*
X157700279Y-106289211D01*
X157700277Y-106289213D01*
X157690130Y-106310974D01*
X157653779Y-106388929D01*
X157653155Y-106393669D01*
X157653155Y-106393670D01*
X157647767Y-106434593D01*
X157647767Y-106434601D01*
X157647500Y-106436625D01*
X157647501Y-107063374D01*
X157647766Y-107065385D01*
X157647766Y-107065390D01*
X157653155Y-107106330D01*
X157653779Y-107111071D01*
X157655800Y-107115404D01*
X157655800Y-107115405D01*
X157700277Y-107210787D01*
X157700279Y-107210789D01*
X157702589Y-107215744D01*
X157784256Y-107297411D01*
X157789211Y-107299721D01*
X157789213Y-107299723D01*
X157838015Y-107322479D01*
X157888929Y-107346221D01*
X157899708Y-107347640D01*
X157934593Y-107352233D01*
X157934601Y-107352233D01*
X157936625Y-107352500D01*
X157938672Y-107352500D01*
X158175642Y-107352499D01*
X158413374Y-107352499D01*
X158415385Y-107352234D01*
X158415390Y-107352234D01*
X158456331Y-107346845D01*
X158456332Y-107346845D01*
X158461071Y-107346221D01*
X158494680Y-107330549D01*
X158560787Y-107299723D01*
X158560789Y-107299721D01*
X158565744Y-107297411D01*
X158647411Y-107215744D01*
X158649721Y-107210789D01*
X158649723Y-107210787D01*
X158694200Y-107115404D01*
X158696221Y-107111071D01*
X158700217Y-107080717D01*
X158700605Y-107077772D01*
X159171001Y-107077772D01*
X159171140Y-107080720D01*
X159173645Y-107107238D01*
X159175266Y-107114626D01*
X159217693Y-107235440D01*
X159222009Y-107243591D01*
X159297575Y-107345900D01*
X159304100Y-107352425D01*
X159406409Y-107427991D01*
X159414560Y-107432307D01*
X159535379Y-107474736D01*
X159542756Y-107476354D01*
X159560832Y-107478063D01*
X159567359Y-107475359D01*
X159571000Y-107466569D01*
X159571000Y-107466568D01*
X160079000Y-107466568D01*
X160082641Y-107475358D01*
X160089169Y-107478062D01*
X160107238Y-107476355D01*
X160114626Y-107474734D01*
X160235440Y-107432307D01*
X160243591Y-107427991D01*
X160345900Y-107352425D01*
X160352425Y-107345900D01*
X160427991Y-107243591D01*
X160432307Y-107235440D01*
X160474736Y-107114621D01*
X160476354Y-107107244D01*
X160478861Y-107080717D01*
X160479000Y-107077775D01*
X160479000Y-107016431D01*
X160475359Y-107007641D01*
X160466569Y-107004000D01*
X160091431Y-107004000D01*
X160082641Y-107007641D01*
X160079000Y-107016431D01*
X160079000Y-107466568D01*
X159571000Y-107466568D01*
X159571000Y-107016431D01*
X159567359Y-107007641D01*
X159558569Y-107004000D01*
X159183432Y-107004000D01*
X159174642Y-107007641D01*
X159171001Y-107016431D01*
X159171001Y-107077772D01*
X158700605Y-107077772D01*
X158702233Y-107065407D01*
X158702233Y-107065399D01*
X158702500Y-107063375D01*
X158702499Y-106483569D01*
X159171000Y-106483569D01*
X159174641Y-106492359D01*
X159183431Y-106496000D01*
X159558569Y-106496000D01*
X159567359Y-106492359D01*
X159571000Y-106483569D01*
X160079000Y-106483569D01*
X160082641Y-106492359D01*
X160091431Y-106496000D01*
X160466568Y-106496000D01*
X160475358Y-106492359D01*
X160478999Y-106483569D01*
X160478999Y-106422228D01*
X160478860Y-106419280D01*
X160476355Y-106392762D01*
X160474734Y-106385374D01*
X160432307Y-106264560D01*
X160427991Y-106256409D01*
X160352425Y-106154100D01*
X160345900Y-106147575D01*
X160243591Y-106072009D01*
X160235440Y-106067693D01*
X160114621Y-106025264D01*
X160107244Y-106023646D01*
X160089168Y-106021937D01*
X160082641Y-106024641D01*
X160079000Y-106033431D01*
X160079000Y-106483569D01*
X159571000Y-106483569D01*
X159571000Y-106033432D01*
X159567359Y-106024642D01*
X159560831Y-106021938D01*
X159542762Y-106023645D01*
X159535374Y-106025266D01*
X159414560Y-106067693D01*
X159406409Y-106072009D01*
X159304100Y-106147575D01*
X159297575Y-106154100D01*
X159222009Y-106256409D01*
X159217693Y-106264560D01*
X159175264Y-106385379D01*
X159173646Y-106392756D01*
X159171139Y-106419283D01*
X159171000Y-106422225D01*
X159171000Y-106483569D01*
X158702499Y-106483569D01*
X158702499Y-106436626D01*
X158702232Y-106434593D01*
X158696845Y-106393669D01*
X158696845Y-106393668D01*
X158696221Y-106388929D01*
X158684054Y-106362837D01*
X158649723Y-106289213D01*
X158649721Y-106289211D01*
X158647411Y-106284256D01*
X158565744Y-106202589D01*
X158560789Y-106200279D01*
X158560787Y-106200277D01*
X158511985Y-106177521D01*
X158461071Y-106153779D01*
X158456329Y-106153155D01*
X158451740Y-106151817D01*
X158452124Y-106150499D01*
X158415413Y-106129302D01*
X158402500Y-106091257D01*
X158402500Y-105908743D01*
X158420806Y-105864549D01*
X158452021Y-105849158D01*
X158451737Y-105848184D01*
X158456331Y-105846845D01*
X158461071Y-105846221D01*
X158468198Y-105842898D01*
X158560787Y-105799723D01*
X158560789Y-105799721D01*
X158565744Y-105797411D01*
X158647411Y-105715744D01*
X158649721Y-105710789D01*
X158649723Y-105710787D01*
X158681686Y-105642241D01*
X158696221Y-105611071D01*
X158698716Y-105592120D01*
X158702233Y-105565407D01*
X158702233Y-105565399D01*
X158702500Y-105563375D01*
X158702500Y-105250000D01*
X158702499Y-104938662D01*
X158702499Y-104936626D01*
X158702232Y-104934593D01*
X158696845Y-104893669D01*
X158696845Y-104893668D01*
X158696221Y-104888929D01*
X158678012Y-104849880D01*
X158649723Y-104789213D01*
X158649721Y-104789211D01*
X158647411Y-104784256D01*
X158565744Y-104702589D01*
X158539637Y-104690415D01*
X158513586Y-104678267D01*
X158481269Y-104642999D01*
X158477500Y-104621623D01*
X158477500Y-104454337D01*
X158495806Y-104410143D01*
X158540000Y-104391837D01*
X158584194Y-104410143D01*
X158590473Y-104417494D01*
X158590512Y-104417529D01*
X158594372Y-104422842D01*
X158600059Y-104426125D01*
X158600063Y-104426129D01*
X158603188Y-104427933D01*
X158616132Y-104437865D01*
X158833772Y-104655506D01*
X158836024Y-104657879D01*
X158854382Y-104678267D01*
X158863292Y-104688163D01*
X158869290Y-104690833D01*
X158869292Y-104690835D01*
X158886615Y-104698547D01*
X158895236Y-104703228D01*
X158909474Y-104712474D01*
X158916650Y-104717134D01*
X158926702Y-104718726D01*
X158942340Y-104723358D01*
X158951643Y-104727500D01*
X158977177Y-104727500D01*
X158986954Y-104728269D01*
X159005686Y-104731236D01*
X159005687Y-104731236D01*
X159012172Y-104732263D01*
X159022005Y-104729628D01*
X159038175Y-104727500D01*
X159280949Y-104727500D01*
X159325143Y-104745806D01*
X159343449Y-104790000D01*
X159337593Y-104816413D01*
X159314823Y-104865245D01*
X159303779Y-104888929D01*
X159303155Y-104893669D01*
X159303155Y-104893670D01*
X159297767Y-104934593D01*
X159297767Y-104934601D01*
X159297500Y-104936625D01*
X159297500Y-104938672D01*
X159297501Y-105250843D01*
X159297501Y-105563374D01*
X159297766Y-105565385D01*
X159297766Y-105565390D01*
X159301597Y-105594493D01*
X159303779Y-105611071D01*
X159305800Y-105615404D01*
X159305800Y-105615405D01*
X159350277Y-105710787D01*
X159350279Y-105710789D01*
X159352589Y-105715744D01*
X159434256Y-105797411D01*
X159439211Y-105799721D01*
X159439213Y-105799723D01*
X159465840Y-105812139D01*
X159538929Y-105846221D01*
X159552295Y-105847981D01*
X159584593Y-105852233D01*
X159584601Y-105852233D01*
X159586625Y-105852500D01*
X159588672Y-105852500D01*
X159825642Y-105852499D01*
X160063374Y-105852499D01*
X160065385Y-105852234D01*
X160065390Y-105852234D01*
X160106331Y-105846845D01*
X160106332Y-105846845D01*
X160111071Y-105846221D01*
X160118198Y-105842898D01*
X160210787Y-105799723D01*
X160210789Y-105799721D01*
X160215744Y-105797411D01*
X160297411Y-105715744D01*
X160307326Y-105694481D01*
X160342594Y-105662163D01*
X160382607Y-105661238D01*
X160426692Y-105675011D01*
X160426696Y-105675012D01*
X160430948Y-105676340D01*
X160435398Y-105676422D01*
X160435401Y-105676422D01*
X160485074Y-105677332D01*
X160553383Y-105678584D01*
X160617009Y-105661238D01*
X160667226Y-105647548D01*
X160667229Y-105647547D01*
X160671527Y-105646375D01*
X160675323Y-105644044D01*
X160675326Y-105644043D01*
X160772083Y-105584633D01*
X160775881Y-105582301D01*
X160858058Y-105491513D01*
X160911451Y-105381311D01*
X160912198Y-105376875D01*
X160927268Y-105287293D01*
X160931767Y-105260552D01*
X160931896Y-105250000D01*
X160914536Y-105128781D01*
X160871174Y-105033411D01*
X160865696Y-105021362D01*
X160865695Y-105021360D01*
X160863852Y-105017307D01*
X160783918Y-104924539D01*
X160681160Y-104857935D01*
X160672711Y-104855408D01*
X160654226Y-104849880D01*
X160617130Y-104819678D01*
X160612254Y-104772092D01*
X160642456Y-104734996D01*
X160672134Y-104727500D01*
X161317427Y-104727500D01*
X161320698Y-104727586D01*
X161361384Y-104729718D01*
X161385231Y-104720565D01*
X161394619Y-104717784D01*
X161419600Y-104712474D01*
X161424916Y-104708612D01*
X161424918Y-104708611D01*
X161427835Y-104706492D01*
X161442168Y-104698709D01*
X161445541Y-104697414D01*
X161451673Y-104695060D01*
X161469727Y-104677006D01*
X161477185Y-104670636D01*
X161492528Y-104659489D01*
X161492528Y-104659488D01*
X161497842Y-104655628D01*
X161501125Y-104649941D01*
X161501129Y-104649937D01*
X161502933Y-104646812D01*
X161512865Y-104633868D01*
X161525927Y-104620806D01*
X161570121Y-104602500D01*
X162025522Y-104602499D01*
X162063374Y-104602499D01*
X162065385Y-104602234D01*
X162065390Y-104602234D01*
X162106331Y-104596845D01*
X162106332Y-104596845D01*
X162111071Y-104596221D01*
X162135132Y-104585001D01*
X162210787Y-104549723D01*
X162210789Y-104549721D01*
X162215744Y-104547411D01*
X162297411Y-104465744D01*
X162299721Y-104460789D01*
X162299723Y-104460787D01*
X162328840Y-104398344D01*
X162346221Y-104361071D01*
X162349759Y-104334194D01*
X162352233Y-104315407D01*
X162352233Y-104315399D01*
X162352500Y-104313375D01*
X162352499Y-103836626D01*
X162350933Y-103824723D01*
X162346845Y-103793669D01*
X162346845Y-103793668D01*
X162346221Y-103788929D01*
X162336332Y-103767722D01*
X162299723Y-103689213D01*
X162299721Y-103689211D01*
X162297411Y-103684256D01*
X162215744Y-103602589D01*
X162210789Y-103600279D01*
X162210787Y-103600277D01*
X162150077Y-103571968D01*
X162111071Y-103553779D01*
X162097705Y-103552019D01*
X162065407Y-103547767D01*
X162065399Y-103547767D01*
X162063375Y-103547500D01*
X162061328Y-103547500D01*
X161749156Y-103547501D01*
X161436626Y-103547501D01*
X161434617Y-103547765D01*
X161434608Y-103547766D01*
X161432159Y-103548089D01*
X161385953Y-103535711D01*
X161362033Y-103494285D01*
X161374411Y-103448079D01*
X161379804Y-103441930D01*
X161850929Y-102970805D01*
X161895123Y-102952499D01*
X162063374Y-102952499D01*
X162065385Y-102952234D01*
X162065390Y-102952234D01*
X162106331Y-102946845D01*
X162106332Y-102946845D01*
X162111071Y-102946221D01*
X162118198Y-102942898D01*
X162210787Y-102899723D01*
X162210789Y-102899721D01*
X162215744Y-102897411D01*
X162297411Y-102815744D01*
X162299721Y-102810789D01*
X162299723Y-102810787D01*
X162344200Y-102715404D01*
X162346221Y-102711071D01*
X162352098Y-102666431D01*
X162352233Y-102665407D01*
X162352233Y-102665399D01*
X162352500Y-102663375D01*
X162352500Y-102562500D01*
X162370806Y-102518306D01*
X162415000Y-102500000D01*
X162929165Y-102500000D01*
X162973359Y-102518306D01*
X162991665Y-102562500D01*
X162990465Y-102574686D01*
X162940848Y-102824124D01*
X162919109Y-102933414D01*
X162918360Y-102936711D01*
X162823011Y-103309422D01*
X162743779Y-103619134D01*
X162741570Y-103627767D01*
X162740645Y-103631014D01*
X162671107Y-103852234D01*
X162526736Y-104311517D01*
X162525635Y-104314714D01*
X162482655Y-104429364D01*
X162280972Y-104967359D01*
X162275246Y-104982632D01*
X162273974Y-104985765D01*
X161987824Y-105639182D01*
X161986384Y-105642241D01*
X161837227Y-105938163D01*
X161667542Y-106274814D01*
X161665325Y-106279212D01*
X161663729Y-106282177D01*
X161308679Y-106900876D01*
X161306936Y-106903732D01*
X160927697Y-107488827D01*
X160918940Y-107502337D01*
X160917026Y-107505121D01*
X160497248Y-108081836D01*
X160495195Y-108084502D01*
X160044826Y-108637694D01*
X160042622Y-108640257D01*
X159563007Y-109168272D01*
X159560666Y-109170712D01*
X159053228Y-109671987D01*
X159050760Y-109674298D01*
X158822139Y-109876921D01*
X158519601Y-110145056D01*
X158516904Y-110147446D01*
X158514322Y-110149611D01*
X158073033Y-110500000D01*
X157955697Y-110593166D01*
X157952995Y-110595195D01*
X157371170Y-111007913D01*
X157368384Y-111009778D01*
X157154437Y-111144769D01*
X156765102Y-111390421D01*
X156762195Y-111392147D01*
X156139226Y-111739599D01*
X156136229Y-111741166D01*
X155495371Y-112054426D01*
X155492294Y-112055828D01*
X154934038Y-112292219D01*
X154886205Y-112292595D01*
X154852115Y-112259036D01*
X154851739Y-112211203D01*
X154854899Y-112204557D01*
X154906175Y-112111286D01*
X154906177Y-112111281D01*
X154908072Y-112107834D01*
X154947500Y-111954272D01*
X154947500Y-111235524D01*
X154942970Y-111199661D01*
X154933109Y-111121612D01*
X154932616Y-111117707D01*
X154874253Y-110970297D01*
X154846442Y-110932018D01*
X154783376Y-110845216D01*
X154783374Y-110845214D01*
X154781063Y-110842033D01*
X154778034Y-110839527D01*
X154778032Y-110839525D01*
X154709219Y-110782599D01*
X154658903Y-110740974D01*
X154515449Y-110673469D01*
X154511591Y-110672733D01*
X154363579Y-110644498D01*
X154363577Y-110644498D01*
X154359714Y-110643761D01*
X154355788Y-110644008D01*
X154205408Y-110653469D01*
X154205407Y-110653469D01*
X154201484Y-110653716D01*
X154197746Y-110654931D01*
X154197744Y-110654931D01*
X154135545Y-110675141D01*
X154050700Y-110702709D01*
X153916838Y-110787660D01*
X153914149Y-110790524D01*
X153914146Y-110790526D01*
X153811002Y-110900363D01*
X153808307Y-110903233D01*
X153731928Y-111042166D01*
X153692500Y-111195728D01*
X153692500Y-111914476D01*
X153692747Y-111916428D01*
X153692747Y-111916434D01*
X153697527Y-111954272D01*
X153707384Y-112032293D01*
X153765747Y-112179703D01*
X153768056Y-112182881D01*
X153768057Y-112182883D01*
X153856624Y-112304784D01*
X153858937Y-112307967D01*
X153861966Y-112310473D01*
X153861968Y-112310475D01*
X153921199Y-112359474D01*
X153981097Y-112409026D01*
X154122279Y-112475462D01*
X154154472Y-112510842D01*
X154152219Y-112558624D01*
X154113679Y-112591861D01*
X153475109Y-112784049D01*
X153471846Y-112784936D01*
X152778657Y-112953276D01*
X152775351Y-112953984D01*
X152546354Y-112996633D01*
X152191553Y-113062712D01*
X152074109Y-113084585D01*
X152070774Y-113085113D01*
X151363469Y-113177604D01*
X151360131Y-113177950D01*
X150648845Y-113232056D01*
X150645468Y-113232221D01*
X150598336Y-113233249D01*
X149932319Y-113247781D01*
X149928938Y-113247763D01*
X149424202Y-113231460D01*
X149216006Y-113224736D01*
X149212637Y-113224536D01*
X149110266Y-113215670D01*
X148501963Y-113162985D01*
X148498604Y-113162602D01*
X148140943Y-113112018D01*
X147792307Y-113062710D01*
X147789001Y-113062150D01*
X147089136Y-112924209D01*
X147085854Y-112923470D01*
X146693581Y-112823845D01*
X146394462Y-112747878D01*
X146391209Y-112746957D01*
X145882951Y-112588166D01*
X145846227Y-112557514D01*
X145841933Y-112509872D01*
X145872585Y-112473148D01*
X145882275Y-112469069D01*
X145945564Y-112448505D01*
X145945565Y-112448505D01*
X145949300Y-112447291D01*
X146083162Y-112362340D01*
X146085851Y-112359476D01*
X146085854Y-112359474D01*
X146188998Y-112249637D01*
X146188998Y-112249636D01*
X146191693Y-112246767D01*
X146268072Y-112107834D01*
X146307500Y-111954272D01*
X146307500Y-111235524D01*
X146302970Y-111199661D01*
X146293109Y-111121612D01*
X146292616Y-111117707D01*
X146234253Y-110970297D01*
X146206442Y-110932018D01*
X146143376Y-110845216D01*
X146143374Y-110845214D01*
X146141063Y-110842033D01*
X146138034Y-110839527D01*
X146138032Y-110839525D01*
X146069219Y-110782599D01*
X146018903Y-110740974D01*
X145875449Y-110673469D01*
X145871591Y-110672733D01*
X145723579Y-110644498D01*
X145723577Y-110644498D01*
X145719714Y-110643761D01*
X145715788Y-110644008D01*
X145565408Y-110653469D01*
X145565407Y-110653469D01*
X145561484Y-110653716D01*
X145557746Y-110654931D01*
X145557744Y-110654931D01*
X145495545Y-110675141D01*
X145410700Y-110702709D01*
X145276838Y-110787660D01*
X145274149Y-110790524D01*
X145274146Y-110790526D01*
X145171002Y-110900363D01*
X145168307Y-110903233D01*
X145091928Y-111042166D01*
X145052500Y-111195728D01*
X145052500Y-111914476D01*
X145052747Y-111916428D01*
X145052747Y-111916434D01*
X145057527Y-111954272D01*
X145067384Y-112032293D01*
X145125747Y-112179703D01*
X145128056Y-112182881D01*
X145128057Y-112182883D01*
X145140045Y-112199382D01*
X145151213Y-112245895D01*
X145126219Y-112286682D01*
X145079706Y-112297850D01*
X145067646Y-112294680D01*
X145038792Y-112283921D01*
X145035656Y-112282654D01*
X144959904Y-112249637D01*
X144642467Y-112111282D01*
X144381762Y-111997653D01*
X144378700Y-111996219D01*
X143741157Y-111676266D01*
X143738177Y-111674668D01*
X143118887Y-111320714D01*
X143115998Y-111318958D01*
X142516733Y-110932018D01*
X142513944Y-110930108D01*
X142198707Y-110701495D01*
X141936486Y-110511329D01*
X141933812Y-110509277D01*
X141932411Y-110508140D01*
X141379853Y-110059889D01*
X141377291Y-110057693D01*
X141307823Y-109994813D01*
X141186854Y-109885318D01*
X140848449Y-109579008D01*
X140846004Y-109576672D01*
X140343807Y-109070073D01*
X140341493Y-109067608D01*
X139867449Y-108534618D01*
X139865271Y-108532032D01*
X139510344Y-108086625D01*
X141397500Y-108086625D01*
X141397501Y-108563374D01*
X141397766Y-108565385D01*
X141397766Y-108565390D01*
X141398409Y-108570273D01*
X141403779Y-108611071D01*
X141405800Y-108615405D01*
X141450277Y-108710787D01*
X141450279Y-108710789D01*
X141452589Y-108715744D01*
X141534256Y-108797411D01*
X141539211Y-108799721D01*
X141539213Y-108799723D01*
X141588015Y-108822479D01*
X141638929Y-108846221D01*
X141652295Y-108847981D01*
X141684593Y-108852233D01*
X141684601Y-108852233D01*
X141686625Y-108852500D01*
X141724666Y-108852500D01*
X142179878Y-108852499D01*
X142224072Y-108870805D01*
X143508754Y-110155487D01*
X143511007Y-110157860D01*
X143538292Y-110188163D01*
X143544293Y-110190835D01*
X143561621Y-110198550D01*
X143570239Y-110203229D01*
X143586142Y-110213557D01*
X143586144Y-110213558D01*
X143591651Y-110217134D01*
X143601702Y-110218726D01*
X143617344Y-110223360D01*
X143620643Y-110224829D01*
X143620645Y-110224829D01*
X143626643Y-110227500D01*
X143652178Y-110227500D01*
X143661957Y-110228270D01*
X143687172Y-110232264D01*
X143697008Y-110229628D01*
X143713179Y-110227500D01*
X151734800Y-110227500D01*
X151741333Y-110227842D01*
X151767782Y-110230622D01*
X151767783Y-110230622D01*
X151774311Y-110231308D01*
X151805855Y-110221059D01*
X151812167Y-110219368D01*
X151817850Y-110218160D01*
X151844600Y-110212474D01*
X151849916Y-110208612D01*
X151855115Y-110206297D01*
X151860042Y-110203452D01*
X151866291Y-110201422D01*
X151890933Y-110179235D01*
X151896015Y-110175119D01*
X151917529Y-110159488D01*
X151922842Y-110155628D01*
X151926126Y-110149940D01*
X151930523Y-110145056D01*
X151931521Y-110145955D01*
X151945339Y-110131754D01*
X152025881Y-110082301D01*
X152108058Y-109991513D01*
X152161451Y-109881311D01*
X152181767Y-109760552D01*
X152181896Y-109750000D01*
X152164536Y-109628781D01*
X152113852Y-109517307D01*
X152113233Y-109516589D01*
X155897500Y-109516589D01*
X155897501Y-110033410D01*
X155907699Y-110102695D01*
X155959419Y-110208036D01*
X155963071Y-110211682D01*
X155963072Y-110211683D01*
X156038816Y-110287295D01*
X156038818Y-110287297D01*
X156042472Y-110290944D01*
X156047114Y-110293213D01*
X156055867Y-110297492D01*
X156087532Y-110333346D01*
X156088176Y-110371169D01*
X156086976Y-110373726D01*
X156068136Y-110494724D01*
X156068713Y-110499137D01*
X156068713Y-110499138D01*
X156073255Y-110533870D01*
X156084014Y-110616145D01*
X156085807Y-110620220D01*
X156123030Y-110704814D01*
X156133333Y-110728230D01*
X156212127Y-110821968D01*
X156215832Y-110824434D01*
X156215834Y-110824436D01*
X156227650Y-110832301D01*
X156314064Y-110889823D01*
X156430948Y-110926340D01*
X156435398Y-110926422D01*
X156435401Y-110926422D01*
X156485074Y-110927332D01*
X156553383Y-110928584D01*
X156606088Y-110914215D01*
X156667226Y-110897548D01*
X156667229Y-110897547D01*
X156671527Y-110896375D01*
X156675323Y-110894044D01*
X156675326Y-110894043D01*
X156772083Y-110834633D01*
X156775881Y-110832301D01*
X156858058Y-110741513D01*
X156911451Y-110631311D01*
X156914003Y-110616145D01*
X156931367Y-110512928D01*
X156931767Y-110510552D01*
X156931896Y-110500000D01*
X156914536Y-110378781D01*
X156912692Y-110374725D01*
X156911627Y-110371083D01*
X156916793Y-110323528D01*
X156944070Y-110297438D01*
X156958036Y-110290581D01*
X156993114Y-110255442D01*
X157037296Y-110211183D01*
X157037298Y-110211181D01*
X157040944Y-110207528D01*
X157077985Y-110131751D01*
X157090349Y-110106458D01*
X157090349Y-110106457D01*
X157092480Y-110102098D01*
X157102500Y-110033411D01*
X157102499Y-109516590D01*
X157092301Y-109447305D01*
X157082781Y-109427914D01*
X157078267Y-109418721D01*
X157040581Y-109341964D01*
X157022710Y-109324124D01*
X156961183Y-109262704D01*
X156961181Y-109262702D01*
X156957528Y-109259056D01*
X156884238Y-109223231D01*
X156856458Y-109209651D01*
X156856457Y-109209651D01*
X156852098Y-109207520D01*
X156847295Y-109206819D01*
X156847294Y-109206819D01*
X156825341Y-109203617D01*
X156783411Y-109197500D01*
X156500749Y-109197500D01*
X156216590Y-109197501D01*
X156147305Y-109207699D01*
X156041964Y-109259419D01*
X156038318Y-109263071D01*
X156038317Y-109263072D01*
X155962704Y-109338817D01*
X155962702Y-109338819D01*
X155959056Y-109342472D01*
X155942217Y-109376921D01*
X155909943Y-109442946D01*
X155907520Y-109447902D01*
X155897500Y-109516589D01*
X152113233Y-109516589D01*
X152091627Y-109491513D01*
X152036826Y-109427914D01*
X152033918Y-109424539D01*
X151931160Y-109357935D01*
X151813838Y-109322848D01*
X151752612Y-109322474D01*
X151695838Y-109322127D01*
X151695837Y-109322127D01*
X151691385Y-109322100D01*
X151573644Y-109355751D01*
X151470080Y-109421095D01*
X151467137Y-109424427D01*
X151467135Y-109424429D01*
X151391965Y-109509542D01*
X151389018Y-109512879D01*
X151387126Y-109516909D01*
X151338868Y-109619695D01*
X151338867Y-109619698D01*
X151336976Y-109623726D01*
X151336291Y-109628126D01*
X151322045Y-109719616D01*
X151297157Y-109760467D01*
X151260289Y-109772500D01*
X144425766Y-109772500D01*
X144381572Y-109754194D01*
X144363266Y-109710000D01*
X144381572Y-109665806D01*
X144409327Y-109649701D01*
X144417226Y-109647548D01*
X144417229Y-109647547D01*
X144421527Y-109646375D01*
X144425323Y-109644044D01*
X144425326Y-109644043D01*
X144522083Y-109584633D01*
X144525881Y-109582301D01*
X144608058Y-109491513D01*
X144661451Y-109381311D01*
X144664003Y-109366145D01*
X144681367Y-109262928D01*
X144681767Y-109260552D01*
X144681896Y-109250000D01*
X144664536Y-109128781D01*
X144613852Y-109017307D01*
X144533918Y-108924539D01*
X144431160Y-108857935D01*
X144426895Y-108856660D01*
X144426892Y-108856658D01*
X144337156Y-108829821D01*
X144310870Y-108814136D01*
X144119362Y-108622628D01*
X144101056Y-108578434D01*
X144101590Y-108570288D01*
X144102500Y-108563375D01*
X144102499Y-108086626D01*
X144102232Y-108084593D01*
X144096845Y-108043669D01*
X144096845Y-108043668D01*
X144096221Y-108038929D01*
X144087552Y-108020339D01*
X144070829Y-107984476D01*
X145052500Y-107984476D01*
X145052747Y-107986428D01*
X145052747Y-107986434D01*
X145057160Y-108021362D01*
X145067384Y-108102293D01*
X145068831Y-108105949D01*
X145068832Y-108105951D01*
X145075870Y-108123726D01*
X145125747Y-108249703D01*
X145128056Y-108252881D01*
X145128057Y-108252883D01*
X145213308Y-108370220D01*
X145218937Y-108377967D01*
X145221966Y-108380473D01*
X145221968Y-108380475D01*
X145275804Y-108425011D01*
X145341097Y-108479026D01*
X145484551Y-108546531D01*
X145488409Y-108547267D01*
X145636421Y-108575502D01*
X145636423Y-108575502D01*
X145640286Y-108576239D01*
X145644212Y-108575992D01*
X145794592Y-108566531D01*
X145794593Y-108566531D01*
X145798516Y-108566284D01*
X145802254Y-108565069D01*
X145802256Y-108565069D01*
X145945564Y-108518505D01*
X145945565Y-108518505D01*
X145949300Y-108517291D01*
X146083162Y-108432340D01*
X146085851Y-108429476D01*
X146085854Y-108429474D01*
X146188998Y-108319637D01*
X146188998Y-108319636D01*
X146191693Y-108316767D01*
X146268072Y-108177834D01*
X146307500Y-108024272D01*
X146307500Y-107545534D01*
X146325806Y-107501340D01*
X146370000Y-107483034D01*
X146407092Y-107498398D01*
X146408078Y-107496922D01*
X146450252Y-107525102D01*
X146456285Y-107526302D01*
X146456287Y-107526303D01*
X146482384Y-107531494D01*
X146487442Y-107532500D01*
X146543698Y-107532500D01*
X146587892Y-107550806D01*
X146606198Y-107595000D01*
X146601440Y-107618918D01*
X146551981Y-107738323D01*
X146549313Y-107744764D01*
X146548778Y-107748826D01*
X146548778Y-107748827D01*
X146535085Y-107852835D01*
X146529534Y-107895000D01*
X146530069Y-107899064D01*
X146543358Y-108000000D01*
X146549313Y-108045236D01*
X146550881Y-108049020D01*
X146550881Y-108049022D01*
X146605732Y-108181444D01*
X146605734Y-108181447D01*
X146607302Y-108185233D01*
X146699549Y-108305451D01*
X146819767Y-108397698D01*
X146823553Y-108399266D01*
X146823556Y-108399268D01*
X146955978Y-108454119D01*
X146955980Y-108454119D01*
X146959764Y-108455687D01*
X146963826Y-108456222D01*
X146963827Y-108456222D01*
X147070249Y-108470233D01*
X147070255Y-108470233D01*
X147072280Y-108470500D01*
X147147720Y-108470500D01*
X147149745Y-108470233D01*
X147149751Y-108470233D01*
X147256173Y-108456222D01*
X147256174Y-108456222D01*
X147260236Y-108455687D01*
X147264020Y-108454119D01*
X147264022Y-108454119D01*
X147396444Y-108399268D01*
X147396447Y-108399266D01*
X147400233Y-108397698D01*
X147520451Y-108305451D01*
X147612698Y-108185233D01*
X147614266Y-108181447D01*
X147614268Y-108181444D01*
X147669119Y-108049022D01*
X147669119Y-108049020D01*
X147670687Y-108045236D01*
X147676643Y-108000000D01*
X147689931Y-107899064D01*
X147690466Y-107895000D01*
X147684915Y-107852835D01*
X147671222Y-107748827D01*
X147671222Y-107748826D01*
X147670687Y-107744764D01*
X147668019Y-107738323D01*
X147614267Y-107608554D01*
X147614266Y-107608552D01*
X147612698Y-107604767D01*
X147610203Y-107601515D01*
X147608374Y-107598348D01*
X147600000Y-107567097D01*
X147600000Y-106992431D01*
X147596359Y-106983641D01*
X147587569Y-106980000D01*
X147362500Y-106980000D01*
X147318306Y-106961694D01*
X147300000Y-106917500D01*
X147300000Y-106013432D01*
X147296359Y-106004642D01*
X147287569Y-106001001D01*
X147278055Y-106001001D01*
X147271970Y-106001600D01*
X147206932Y-106014536D01*
X147195776Y-106019157D01*
X147121993Y-106068457D01*
X147113457Y-106076993D01*
X147098269Y-106099723D01*
X147058495Y-106126299D01*
X147046302Y-106127500D01*
X146487442Y-106127500D01*
X146484431Y-106128099D01*
X146456287Y-106133697D01*
X146456285Y-106133698D01*
X146450252Y-106134898D01*
X146408078Y-106163078D01*
X146379898Y-106205252D01*
X146378698Y-106211285D01*
X146378697Y-106211287D01*
X146376274Y-106223469D01*
X146372500Y-106242442D01*
X146372500Y-106440000D01*
X146354194Y-106484194D01*
X146310000Y-106502500D01*
X146262025Y-106502500D01*
X146256578Y-106502262D01*
X146249932Y-106501681D01*
X146231601Y-106500077D01*
X146186486Y-106474552D01*
X146143376Y-106415216D01*
X146143374Y-106415214D01*
X146141063Y-106412033D01*
X146138034Y-106409527D01*
X146138032Y-106409525D01*
X146056364Y-106341964D01*
X146018903Y-106310974D01*
X145875449Y-106243469D01*
X145871591Y-106242733D01*
X145723579Y-106214498D01*
X145723577Y-106214498D01*
X145719714Y-106213761D01*
X145715788Y-106214008D01*
X145565408Y-106223469D01*
X145565407Y-106223469D01*
X145561484Y-106223716D01*
X145557746Y-106224931D01*
X145557744Y-106224931D01*
X145452719Y-106259056D01*
X145410700Y-106272709D01*
X145276838Y-106357660D01*
X145274149Y-106360524D01*
X145274146Y-106360526D01*
X145188143Y-106452110D01*
X145168307Y-106473233D01*
X145091928Y-106612166D01*
X145052500Y-106765728D01*
X145052500Y-107984476D01*
X144070829Y-107984476D01*
X144049723Y-107939213D01*
X144049721Y-107939211D01*
X144047411Y-107934256D01*
X143965744Y-107852589D01*
X143960789Y-107850279D01*
X143960787Y-107850277D01*
X143890903Y-107817690D01*
X143858586Y-107782422D01*
X143861071Y-107733795D01*
X143891218Y-107671572D01*
X143911451Y-107629811D01*
X143914003Y-107614645D01*
X143927620Y-107533701D01*
X143931767Y-107509052D01*
X143931896Y-107498500D01*
X143914536Y-107377281D01*
X143863852Y-107265807D01*
X143865642Y-107264993D01*
X143858430Y-107224534D01*
X143885794Y-107185299D01*
X143893060Y-107181304D01*
X143960787Y-107149723D01*
X143960789Y-107149721D01*
X143965744Y-107147411D01*
X144047411Y-107065744D01*
X144049721Y-107060789D01*
X144049723Y-107060787D01*
X144076203Y-107004000D01*
X144096221Y-106961071D01*
X144101957Y-106917500D01*
X144102233Y-106915407D01*
X144102233Y-106915399D01*
X144102500Y-106913375D01*
X144102499Y-106436626D01*
X144102232Y-106434593D01*
X144096845Y-106393669D01*
X144096845Y-106393668D01*
X144096221Y-106388929D01*
X144084054Y-106362837D01*
X144049723Y-106289213D01*
X144049721Y-106289211D01*
X144047411Y-106284256D01*
X143965744Y-106202589D01*
X143960789Y-106200279D01*
X143960787Y-106200277D01*
X143911985Y-106177521D01*
X143861071Y-106153779D01*
X143847705Y-106152019D01*
X143815407Y-106147767D01*
X143815399Y-106147767D01*
X143813375Y-106147500D01*
X143811328Y-106147500D01*
X143499156Y-106147501D01*
X143186626Y-106147501D01*
X143184615Y-106147766D01*
X143184610Y-106147766D01*
X143143669Y-106153155D01*
X143143668Y-106153155D01*
X143138929Y-106153779D01*
X143134595Y-106155800D01*
X143039213Y-106200277D01*
X143039211Y-106200279D01*
X143034256Y-106202589D01*
X142952589Y-106284256D01*
X142950279Y-106289211D01*
X142950277Y-106289213D01*
X142940130Y-106310974D01*
X142903779Y-106388929D01*
X142903155Y-106393669D01*
X142903155Y-106393670D01*
X142897767Y-106434593D01*
X142897767Y-106434601D01*
X142897500Y-106436625D01*
X142897501Y-106913374D01*
X142897766Y-106915385D01*
X142897766Y-106915390D01*
X142897865Y-106916139D01*
X142903779Y-106961071D01*
X142905800Y-106965404D01*
X142905800Y-106965405D01*
X142950277Y-107060787D01*
X142950279Y-107060789D01*
X142952589Y-107065744D01*
X143034256Y-107147411D01*
X143039213Y-107149722D01*
X143039215Y-107149724D01*
X143107306Y-107181475D01*
X143139624Y-107216743D01*
X143137468Y-107264680D01*
X143136939Y-107265807D01*
X143088868Y-107368195D01*
X143088867Y-107368198D01*
X143086976Y-107372226D01*
X143068136Y-107493224D01*
X143068713Y-107497637D01*
X143068713Y-107497638D01*
X143072305Y-107525102D01*
X143084014Y-107614645D01*
X143133333Y-107726730D01*
X143135170Y-107728916D01*
X143142885Y-107775527D01*
X143115038Y-107814421D01*
X143108426Y-107818003D01*
X143039213Y-107850277D01*
X143039211Y-107850279D01*
X143034256Y-107852589D01*
X142952589Y-107934256D01*
X142950279Y-107939211D01*
X142950277Y-107939213D01*
X142929171Y-107984476D01*
X142903779Y-108038929D01*
X142903155Y-108043669D01*
X142903155Y-108043670D01*
X142897767Y-108084593D01*
X142897767Y-108084601D01*
X142897500Y-108086625D01*
X142897501Y-108563374D01*
X142897766Y-108565385D01*
X142897766Y-108565390D01*
X142898409Y-108570273D01*
X142903779Y-108611071D01*
X142905800Y-108615405D01*
X142950277Y-108710787D01*
X142950279Y-108710789D01*
X142952589Y-108715744D01*
X143034256Y-108797411D01*
X143039211Y-108799721D01*
X143039213Y-108799723D01*
X143088015Y-108822479D01*
X143138929Y-108846221D01*
X143152295Y-108847981D01*
X143184593Y-108852233D01*
X143184601Y-108852233D01*
X143186625Y-108852500D01*
X143224666Y-108852500D01*
X143679878Y-108852499D01*
X143724072Y-108870805D01*
X143850679Y-108997413D01*
X143868985Y-109041607D01*
X143863060Y-109068168D01*
X143836976Y-109123726D01*
X143818136Y-109244724D01*
X143818713Y-109249137D01*
X143818713Y-109249138D01*
X143820535Y-109263072D01*
X143834014Y-109366145D01*
X143835807Y-109370220D01*
X143869726Y-109447305D01*
X143883333Y-109478230D01*
X143962127Y-109571968D01*
X143965832Y-109574434D01*
X143965834Y-109574436D01*
X143977650Y-109582301D01*
X144064064Y-109639823D01*
X144095682Y-109649701D01*
X144097740Y-109650344D01*
X144134464Y-109680995D01*
X144138758Y-109728638D01*
X144108107Y-109765362D01*
X144079102Y-109772500D01*
X143795122Y-109772500D01*
X143750928Y-109754194D01*
X142619362Y-108622628D01*
X142601056Y-108578434D01*
X142601590Y-108570288D01*
X142602500Y-108563375D01*
X142602499Y-108086626D01*
X142602232Y-108084593D01*
X142596845Y-108043669D01*
X142596845Y-108043668D01*
X142596221Y-108038929D01*
X142587552Y-108020339D01*
X142549723Y-107939213D01*
X142549721Y-107939211D01*
X142547411Y-107934256D01*
X142465744Y-107852589D01*
X142460789Y-107850279D01*
X142460787Y-107850277D01*
X142390903Y-107817690D01*
X142358586Y-107782422D01*
X142361071Y-107733795D01*
X142391218Y-107671572D01*
X142411451Y-107629811D01*
X142414003Y-107614645D01*
X142427620Y-107533701D01*
X142431767Y-107509052D01*
X142431896Y-107498500D01*
X142414536Y-107377281D01*
X142363852Y-107265807D01*
X142365642Y-107264993D01*
X142358430Y-107224534D01*
X142385794Y-107185299D01*
X142393060Y-107181304D01*
X142460787Y-107149723D01*
X142460789Y-107149721D01*
X142465744Y-107147411D01*
X142547411Y-107065744D01*
X142549721Y-107060789D01*
X142549723Y-107060787D01*
X142576203Y-107004000D01*
X142596221Y-106961071D01*
X142601957Y-106917500D01*
X142602233Y-106915407D01*
X142602233Y-106915399D01*
X142602500Y-106913375D01*
X142602499Y-106436626D01*
X142602232Y-106434593D01*
X142596845Y-106393669D01*
X142596845Y-106393668D01*
X142596221Y-106388929D01*
X142584054Y-106362837D01*
X142549723Y-106289213D01*
X142549721Y-106289211D01*
X142547411Y-106284256D01*
X142465744Y-106202589D01*
X142460789Y-106200279D01*
X142460787Y-106200277D01*
X142411985Y-106177521D01*
X142361071Y-106153779D01*
X142347705Y-106152019D01*
X142315407Y-106147767D01*
X142315399Y-106147767D01*
X142313375Y-106147500D01*
X142311328Y-106147500D01*
X141999156Y-106147501D01*
X141686626Y-106147501D01*
X141684615Y-106147766D01*
X141684610Y-106147766D01*
X141643669Y-106153155D01*
X141643668Y-106153155D01*
X141638929Y-106153779D01*
X141634595Y-106155800D01*
X141539213Y-106200277D01*
X141539211Y-106200279D01*
X141534256Y-106202589D01*
X141452589Y-106284256D01*
X141450279Y-106289211D01*
X141450277Y-106289213D01*
X141440130Y-106310974D01*
X141403779Y-106388929D01*
X141403155Y-106393669D01*
X141403155Y-106393670D01*
X141397767Y-106434593D01*
X141397767Y-106434601D01*
X141397500Y-106436625D01*
X141397501Y-106913374D01*
X141397766Y-106915385D01*
X141397766Y-106915390D01*
X141397865Y-106916139D01*
X141403779Y-106961071D01*
X141405800Y-106965404D01*
X141405800Y-106965405D01*
X141450277Y-107060787D01*
X141450279Y-107060789D01*
X141452589Y-107065744D01*
X141534256Y-107147411D01*
X141539213Y-107149722D01*
X141539215Y-107149724D01*
X141607306Y-107181475D01*
X141639624Y-107216743D01*
X141637468Y-107264680D01*
X141636939Y-107265807D01*
X141588868Y-107368195D01*
X141588867Y-107368198D01*
X141586976Y-107372226D01*
X141568136Y-107493224D01*
X141568713Y-107497637D01*
X141568713Y-107497638D01*
X141572305Y-107525102D01*
X141584014Y-107614645D01*
X141633333Y-107726730D01*
X141635170Y-107728916D01*
X141642885Y-107775527D01*
X141615038Y-107814421D01*
X141608426Y-107818003D01*
X141539213Y-107850277D01*
X141539211Y-107850279D01*
X141534256Y-107852589D01*
X141452589Y-107934256D01*
X141450279Y-107939211D01*
X141450277Y-107939213D01*
X141429171Y-107984476D01*
X141403779Y-108038929D01*
X141403155Y-108043669D01*
X141403155Y-108043670D01*
X141397767Y-108084593D01*
X141397767Y-108084601D01*
X141397500Y-108086625D01*
X139510344Y-108086625D01*
X139420735Y-107974172D01*
X139418700Y-107971472D01*
X139004976Y-107390382D01*
X139003090Y-107387575D01*
X138621403Y-106784971D01*
X138619672Y-106782067D01*
X138575723Y-106703591D01*
X139419922Y-106703591D01*
X139420099Y-106706972D01*
X139420099Y-106706976D01*
X139423385Y-106769661D01*
X139429321Y-106882921D01*
X139430218Y-106886179D01*
X139430219Y-106886183D01*
X139456061Y-106980000D01*
X139477008Y-107056049D01*
X139560760Y-107214898D01*
X139603093Y-107264993D01*
X139674482Y-107349472D01*
X139674485Y-107349475D01*
X139676668Y-107352058D01*
X139679356Y-107354113D01*
X139679357Y-107354114D01*
X139810981Y-107454748D01*
X139819326Y-107461128D01*
X139910729Y-107503750D01*
X139966045Y-107529544D01*
X139982077Y-107537020D01*
X139985377Y-107537758D01*
X139985378Y-107537758D01*
X140032796Y-107548357D01*
X140157328Y-107576193D01*
X140160667Y-107576380D01*
X140161955Y-107576452D01*
X140161966Y-107576452D01*
X140162819Y-107576500D01*
X140294866Y-107576500D01*
X140402456Y-107564812D01*
X140425157Y-107562346D01*
X140425158Y-107562346D01*
X140428525Y-107561980D01*
X140431730Y-107560901D01*
X140431732Y-107560901D01*
X140548777Y-107521511D01*
X140598722Y-107504703D01*
X140609046Y-107498500D01*
X140643226Y-107477962D01*
X140752648Y-107412214D01*
X140883123Y-107288830D01*
X140898770Y-107265807D01*
X140953483Y-107185299D01*
X140984060Y-107140306D01*
X141050748Y-106973573D01*
X141080078Y-106796409D01*
X141079327Y-106782067D01*
X141070856Y-106620459D01*
X141070679Y-106617079D01*
X141045710Y-106526427D01*
X141031421Y-106474552D01*
X141022992Y-106443951D01*
X140939240Y-106285102D01*
X140876763Y-106211170D01*
X140825518Y-106150528D01*
X140825515Y-106150525D01*
X140823332Y-106147942D01*
X140819843Y-106145274D01*
X140683358Y-106040924D01*
X140680674Y-106038872D01*
X140540183Y-105973360D01*
X140520990Y-105964410D01*
X140520989Y-105964410D01*
X140517923Y-105962980D01*
X140514623Y-105962242D01*
X140514622Y-105962242D01*
X140400487Y-105936730D01*
X140342672Y-105923807D01*
X140339333Y-105923620D01*
X140338045Y-105923548D01*
X140338034Y-105923548D01*
X140337181Y-105923500D01*
X140205134Y-105923500D01*
X140115080Y-105933283D01*
X140074843Y-105937654D01*
X140074842Y-105937654D01*
X140071475Y-105938020D01*
X140068270Y-105939099D01*
X140068268Y-105939099D01*
X139995417Y-105963616D01*
X139901278Y-105995297D01*
X139747352Y-106087786D01*
X139616877Y-106211170D01*
X139614975Y-106213969D01*
X139614974Y-106213970D01*
X139595427Y-106242733D01*
X139515940Y-106359694D01*
X139449252Y-106526427D01*
X139419922Y-106703591D01*
X138575723Y-106703591D01*
X138425077Y-106434593D01*
X138271130Y-106159699D01*
X138269560Y-106156710D01*
X138263945Y-106145274D01*
X137955175Y-105516385D01*
X137953775Y-105513326D01*
X137946321Y-105495806D01*
X137810386Y-105176340D01*
X137674489Y-104856960D01*
X137673250Y-104853814D01*
X137467283Y-104286384D01*
X137429871Y-104183315D01*
X137428805Y-104180114D01*
X137416561Y-104139688D01*
X137222029Y-103497394D01*
X137221139Y-103494140D01*
X137051592Y-102801256D01*
X137050880Y-102797963D01*
X137049848Y-102792472D01*
X136919053Y-102096934D01*
X136918520Y-102093605D01*
X136824798Y-101386479D01*
X136824444Y-101383116D01*
X136794218Y-100994724D01*
X141818136Y-100994724D01*
X141818713Y-100999137D01*
X141818713Y-100999138D01*
X141821463Y-101020167D01*
X141834014Y-101116145D01*
X141883333Y-101228230D01*
X141962127Y-101321968D01*
X141965832Y-101324434D01*
X141965834Y-101324436D01*
X142039882Y-101373726D01*
X142064064Y-101389823D01*
X142180948Y-101426340D01*
X142185398Y-101426422D01*
X142185401Y-101426422D01*
X142235074Y-101427332D01*
X142303383Y-101428584D01*
X142367064Y-101411223D01*
X142417226Y-101397548D01*
X142417229Y-101397547D01*
X142421527Y-101396375D01*
X142425323Y-101394044D01*
X142425326Y-101394043D01*
X142522083Y-101334633D01*
X142525881Y-101332301D01*
X142551712Y-101303763D01*
X142578873Y-101273757D01*
X142622103Y-101253276D01*
X142667152Y-101269362D01*
X142673051Y-101275481D01*
X142712127Y-101321968D01*
X142715832Y-101324434D01*
X142715834Y-101324436D01*
X142789882Y-101373726D01*
X142814064Y-101389823D01*
X142930948Y-101426340D01*
X142935398Y-101426422D01*
X142935401Y-101426422D01*
X142985074Y-101427332D01*
X143053383Y-101428584D01*
X143117064Y-101411223D01*
X143167226Y-101397548D01*
X143167229Y-101397547D01*
X143171527Y-101396375D01*
X143175323Y-101394044D01*
X143175326Y-101394043D01*
X143272083Y-101334633D01*
X143275881Y-101332301D01*
X143301712Y-101303763D01*
X143328873Y-101273757D01*
X143372103Y-101253276D01*
X143417152Y-101269362D01*
X143423051Y-101275481D01*
X143462127Y-101321968D01*
X143465832Y-101324434D01*
X143465834Y-101324436D01*
X143539882Y-101373726D01*
X143564064Y-101389823D01*
X143680948Y-101426340D01*
X143685398Y-101426422D01*
X143685401Y-101426422D01*
X143735074Y-101427332D01*
X143803383Y-101428584D01*
X143867064Y-101411223D01*
X143917226Y-101397548D01*
X143917229Y-101397547D01*
X143921527Y-101396375D01*
X143925323Y-101394044D01*
X143925326Y-101394043D01*
X144022083Y-101334633D01*
X144025881Y-101332301D01*
X144108058Y-101241513D01*
X144161451Y-101131311D01*
X144164003Y-101116145D01*
X144181367Y-101012928D01*
X144181767Y-101010552D01*
X144181896Y-101000000D01*
X144164536Y-100878781D01*
X144139194Y-100823044D01*
X144115696Y-100771362D01*
X144115695Y-100771360D01*
X144113852Y-100767307D01*
X144092652Y-100742703D01*
X144077500Y-100701906D01*
X144077500Y-100630534D01*
X144093153Y-100592745D01*
X144091922Y-100591922D01*
X144107531Y-100568561D01*
X144120102Y-100549748D01*
X144125633Y-100521946D01*
X144126901Y-100515569D01*
X144127500Y-100512558D01*
X144127500Y-98487442D01*
X144125633Y-98478055D01*
X144121303Y-98456287D01*
X144121302Y-98456285D01*
X144120102Y-98450252D01*
X144091922Y-98408078D01*
X144049748Y-98379898D01*
X144043715Y-98378698D01*
X144043713Y-98378697D01*
X144015569Y-98373099D01*
X144012558Y-98372500D01*
X141987442Y-98372500D01*
X141984431Y-98373099D01*
X141956287Y-98378697D01*
X141956285Y-98378698D01*
X141950252Y-98379898D01*
X141908078Y-98408078D01*
X141879898Y-98450252D01*
X141878698Y-98456285D01*
X141878697Y-98456287D01*
X141874367Y-98478055D01*
X141872500Y-98487442D01*
X141872500Y-100512558D01*
X141873099Y-100515569D01*
X141874368Y-100521946D01*
X141879898Y-100549748D01*
X141892469Y-100568561D01*
X141908078Y-100591922D01*
X141906847Y-100592745D01*
X141922500Y-100630534D01*
X141922500Y-100701320D01*
X141906845Y-100742693D01*
X141891968Y-100759538D01*
X141891966Y-100759541D01*
X141889018Y-100762879D01*
X141887126Y-100766909D01*
X141838868Y-100869695D01*
X141838867Y-100869698D01*
X141836976Y-100873726D01*
X141818136Y-100994724D01*
X136794218Y-100994724D01*
X136777791Y-100783649D01*
X136769097Y-100671935D01*
X136768926Y-100668563D01*
X136768319Y-100642781D01*
X136765471Y-100521945D01*
X138246001Y-100521945D01*
X138246600Y-100528030D01*
X138259536Y-100593068D01*
X138264157Y-100604224D01*
X138313457Y-100678007D01*
X138321993Y-100686543D01*
X138395775Y-100735843D01*
X138406933Y-100740464D01*
X138471970Y-100753401D01*
X138478054Y-100754000D01*
X139233569Y-100754000D01*
X139242359Y-100750359D01*
X139246000Y-100741569D01*
X139246000Y-100741568D01*
X139754000Y-100741568D01*
X139757641Y-100750358D01*
X139766431Y-100753999D01*
X140521945Y-100753999D01*
X140528030Y-100753400D01*
X140593068Y-100740464D01*
X140604224Y-100735843D01*
X140678007Y-100686543D01*
X140686543Y-100678007D01*
X140735843Y-100604225D01*
X140740464Y-100593067D01*
X140753401Y-100528030D01*
X140754000Y-100521946D01*
X140754000Y-99766431D01*
X140750359Y-99757641D01*
X140741569Y-99754000D01*
X139766431Y-99754000D01*
X139757641Y-99757641D01*
X139754000Y-99766431D01*
X139754000Y-100741568D01*
X139246000Y-100741568D01*
X139246000Y-99766431D01*
X139242359Y-99757641D01*
X139233569Y-99754000D01*
X138258432Y-99754000D01*
X138249642Y-99757641D01*
X138246001Y-99766431D01*
X138246001Y-100521945D01*
X136765471Y-100521945D01*
X136759276Y-100259052D01*
X136752121Y-99955443D01*
X136752133Y-99952062D01*
X136773917Y-99239075D01*
X136774112Y-99235700D01*
X136774293Y-99233569D01*
X138246000Y-99233569D01*
X138249641Y-99242359D01*
X138258431Y-99246000D01*
X139233569Y-99246000D01*
X139242359Y-99242359D01*
X139246000Y-99233569D01*
X139754000Y-99233569D01*
X139757641Y-99242359D01*
X139766431Y-99246000D01*
X140741568Y-99246000D01*
X140750358Y-99242359D01*
X140753999Y-99233569D01*
X140753999Y-98478055D01*
X140753400Y-98471970D01*
X140740464Y-98406932D01*
X140735843Y-98395776D01*
X140686543Y-98321993D01*
X140678007Y-98313457D01*
X140604225Y-98264157D01*
X140593067Y-98259536D01*
X140528030Y-98246599D01*
X140521946Y-98246000D01*
X139766431Y-98246000D01*
X139757641Y-98249641D01*
X139754000Y-98258431D01*
X139754000Y-99233569D01*
X139246000Y-99233569D01*
X139246000Y-98258432D01*
X139242359Y-98249642D01*
X139233569Y-98246001D01*
X138478055Y-98246001D01*
X138471970Y-98246600D01*
X138406932Y-98259536D01*
X138395776Y-98264157D01*
X138321993Y-98313457D01*
X138313457Y-98321993D01*
X138264157Y-98395775D01*
X138259536Y-98406933D01*
X138246599Y-98471970D01*
X138246000Y-98478054D01*
X138246000Y-99233569D01*
X136774293Y-99233569D01*
X136818244Y-98715584D01*
X136834421Y-98524936D01*
X136834797Y-98521583D01*
X136837932Y-98499138D01*
X136897285Y-98074124D01*
X136933454Y-97815126D01*
X136934012Y-97811790D01*
X136936213Y-97800520D01*
X136962650Y-97760654D01*
X136997554Y-97750000D01*
X146152913Y-97750000D01*
X146197107Y-97768306D01*
G37*
%TD.AperFunction*%
%TD*%
%TA.AperFunction,Conductor*%
%TO.N,VCC*%
G36*
X150024815Y-86752069D02*
G01*
X150253038Y-86758643D01*
X150737857Y-86772609D01*
X150741193Y-86772796D01*
X151354316Y-86823742D01*
X151452074Y-86831865D01*
X151455434Y-86832236D01*
X151702702Y-86866327D01*
X152162076Y-86929662D01*
X152165384Y-86930210D01*
X152865750Y-87065712D01*
X152869021Y-87066438D01*
X153361125Y-87189589D01*
X153561003Y-87239610D01*
X153564260Y-87240519D01*
X153841130Y-87325960D01*
X154245876Y-87450863D01*
X154249063Y-87451942D01*
X154268158Y-87458986D01*
X154918295Y-87698835D01*
X154921435Y-87700091D01*
X155150524Y-87798989D01*
X155576327Y-87982810D01*
X155579379Y-87984226D01*
X155895240Y-88141364D01*
X156218057Y-88301963D01*
X156221042Y-88303551D01*
X156492074Y-88457206D01*
X156832109Y-88649980D01*
X156841558Y-88655337D01*
X156844447Y-88657079D01*
X156940859Y-88718856D01*
X157445059Y-89041926D01*
X157447856Y-89043827D01*
X158026768Y-89460584D01*
X158029457Y-89462633D01*
X158584970Y-89910076D01*
X158587540Y-89912263D01*
X159118055Y-90389102D01*
X159120507Y-90391428D01*
X159185941Y-90456976D01*
X159624471Y-90896273D01*
X159626794Y-90898730D01*
X160102703Y-91430071D01*
X160104890Y-91432650D01*
X160551370Y-91988953D01*
X160553414Y-91991646D01*
X160705864Y-92204194D01*
X160964945Y-92565407D01*
X160969155Y-92571277D01*
X160971045Y-92574068D01*
X161165883Y-92879314D01*
X161354845Y-93175355D01*
X161356585Y-93178252D01*
X161685926Y-93761545D01*
X161707296Y-93799394D01*
X161708876Y-93802379D01*
X161777387Y-93940696D01*
X162025489Y-94441591D01*
X162026907Y-94444661D01*
X162308473Y-95100025D01*
X162309724Y-95103166D01*
X162555457Y-95772849D01*
X162556535Y-95776053D01*
X162755411Y-96424523D01*
X162765678Y-96458001D01*
X162766579Y-96461247D01*
X162826602Y-96702887D01*
X162938546Y-97153545D01*
X162939272Y-97156847D01*
X163073548Y-97857420D01*
X163074094Y-97860757D01*
X163170284Y-98567552D01*
X163170649Y-98570913D01*
X163185934Y-98758828D01*
X163220730Y-99186626D01*
X163228477Y-99281875D01*
X163228659Y-99285238D01*
X163247892Y-99996000D01*
X163247974Y-99999029D01*
X163247997Y-100000939D01*
X163247680Y-100091540D01*
X163247644Y-100093448D01*
X163223347Y-100807091D01*
X163223140Y-100810466D01*
X163207585Y-100986496D01*
X163161275Y-101510552D01*
X163160352Y-101520993D01*
X163159965Y-101524340D01*
X163079323Y-102087442D01*
X163058839Y-102230478D01*
X163058269Y-102233811D01*
X163039235Y-102329505D01*
X163038916Y-102331107D01*
X163012340Y-102370881D01*
X162965423Y-102380213D01*
X162929165Y-102373000D01*
X162414999Y-102373000D01*
X162370805Y-102354694D01*
X162352499Y-102310500D01*
X162352499Y-102186626D01*
X162346221Y-102138929D01*
X162320808Y-102084431D01*
X162299723Y-102039213D01*
X162299721Y-102039211D01*
X162297411Y-102034256D01*
X162215744Y-101952589D01*
X162210789Y-101950279D01*
X162210787Y-101950277D01*
X162161985Y-101927521D01*
X162111071Y-101903779D01*
X162097705Y-101902019D01*
X162065407Y-101897767D01*
X162065399Y-101897767D01*
X162063375Y-101897500D01*
X162061328Y-101897500D01*
X161749156Y-101897501D01*
X161436626Y-101897501D01*
X161434615Y-101897766D01*
X161434610Y-101897766D01*
X161393669Y-101903155D01*
X161393668Y-101903155D01*
X161388929Y-101903779D01*
X161384594Y-101905800D01*
X161384592Y-101905801D01*
X161316413Y-101937593D01*
X161268624Y-101939680D01*
X161233356Y-101907362D01*
X161227500Y-101880949D01*
X161227500Y-101619051D01*
X161245806Y-101574857D01*
X161290000Y-101556551D01*
X161316413Y-101562407D01*
X161378801Y-101591498D01*
X161388929Y-101596221D01*
X161402295Y-101597981D01*
X161434593Y-101602233D01*
X161434601Y-101602233D01*
X161436625Y-101602500D01*
X161438672Y-101602500D01*
X161750844Y-101602499D01*
X162063374Y-101602499D01*
X162065385Y-101602234D01*
X162065390Y-101602234D01*
X162106331Y-101596845D01*
X162106332Y-101596845D01*
X162111071Y-101596221D01*
X162121124Y-101591533D01*
X162210787Y-101549723D01*
X162210789Y-101549721D01*
X162215744Y-101547411D01*
X162297411Y-101465744D01*
X162299721Y-101460789D01*
X162299723Y-101460787D01*
X162324266Y-101408153D01*
X162346221Y-101361071D01*
X162347981Y-101347705D01*
X162352233Y-101315407D01*
X162352233Y-101315399D01*
X162352500Y-101313375D01*
X162352499Y-100836626D01*
X162350914Y-100824580D01*
X162346845Y-100793669D01*
X162346845Y-100793668D01*
X162346221Y-100788929D01*
X162336997Y-100769148D01*
X162299723Y-100689213D01*
X162299721Y-100689211D01*
X162297411Y-100684256D01*
X162215744Y-100602589D01*
X162210789Y-100600279D01*
X162210787Y-100600277D01*
X162140903Y-100567690D01*
X162108586Y-100532422D01*
X162111071Y-100483795D01*
X162146824Y-100410000D01*
X162161451Y-100379811D01*
X162164003Y-100364645D01*
X162181367Y-100261428D01*
X162181767Y-100259052D01*
X162181896Y-100248500D01*
X162164536Y-100127281D01*
X162113852Y-100015807D01*
X162115642Y-100014993D01*
X162108430Y-99974534D01*
X162135794Y-99935299D01*
X162143060Y-99931304D01*
X162210787Y-99899723D01*
X162210789Y-99899721D01*
X162215744Y-99897411D01*
X162297411Y-99815744D01*
X162299721Y-99810789D01*
X162299723Y-99810787D01*
X162329567Y-99746786D01*
X162346221Y-99711071D01*
X162350698Y-99677063D01*
X162352233Y-99665407D01*
X162352233Y-99665399D01*
X162352500Y-99663375D01*
X162352499Y-99186626D01*
X162352232Y-99184593D01*
X162346845Y-99143669D01*
X162346845Y-99143668D01*
X162346221Y-99138929D01*
X162334033Y-99112792D01*
X162299723Y-99039213D01*
X162299721Y-99039211D01*
X162297411Y-99034256D01*
X162215744Y-98952589D01*
X162210789Y-98950279D01*
X162210787Y-98950277D01*
X162161985Y-98927521D01*
X162111071Y-98903779D01*
X162097705Y-98902019D01*
X162065407Y-98897767D01*
X162065399Y-98897767D01*
X162063375Y-98897500D01*
X162061328Y-98897500D01*
X161749156Y-98897501D01*
X161436626Y-98897501D01*
X161434615Y-98897766D01*
X161434610Y-98897766D01*
X161393669Y-98903155D01*
X161393668Y-98903155D01*
X161388929Y-98903779D01*
X161296124Y-98947055D01*
X161248335Y-98949142D01*
X161213067Y-98916825D01*
X161210980Y-98869035D01*
X161225517Y-98846217D01*
X161405506Y-98666228D01*
X161407879Y-98663976D01*
X161433282Y-98641103D01*
X161438163Y-98636708D01*
X161440833Y-98630710D01*
X161440835Y-98630708D01*
X161448547Y-98613385D01*
X161453228Y-98604764D01*
X161463554Y-98588863D01*
X161463554Y-98588862D01*
X161467134Y-98583350D01*
X161468726Y-98573298D01*
X161473358Y-98557660D01*
X161474569Y-98554939D01*
X161477500Y-98548357D01*
X161477500Y-98522823D01*
X161478269Y-98513046D01*
X161481236Y-98494314D01*
X161481236Y-98494313D01*
X161482263Y-98487828D01*
X161479628Y-98477995D01*
X161477500Y-98461825D01*
X161477500Y-98343203D01*
X161495806Y-98299009D01*
X161531897Y-98281231D01*
X161652698Y-98265435D01*
X161688200Y-98255522D01*
X161690233Y-98254627D01*
X161690237Y-98254626D01*
X161817254Y-98198736D01*
X161819293Y-98197839D01*
X161850584Y-98178363D01*
X161960219Y-98086206D01*
X161984786Y-98058728D01*
X162035270Y-97982887D01*
X162062914Y-97941359D01*
X162062917Y-97941354D01*
X162064149Y-97939503D01*
X162080017Y-97906235D01*
X162090529Y-97872588D01*
X162122065Y-97771649D01*
X162122066Y-97771645D01*
X162122727Y-97769529D01*
X162123152Y-97766909D01*
X162128264Y-97735342D01*
X162128620Y-97733146D01*
X162128867Y-97719705D01*
X162130158Y-97649264D01*
X162131245Y-97589947D01*
X162130477Y-97583780D01*
X162129998Y-97576056D01*
X162129998Y-97150000D01*
X162126654Y-97133190D01*
X162121303Y-97106287D01*
X162121302Y-97106285D01*
X162120102Y-97100252D01*
X162091922Y-97058078D01*
X162082776Y-97051967D01*
X162056200Y-97012194D01*
X162065532Y-96965277D01*
X162082776Y-96948033D01*
X162086805Y-96945341D01*
X162091922Y-96941922D01*
X162120102Y-96899748D01*
X162121302Y-96893715D01*
X162121303Y-96893713D01*
X162129399Y-96853011D01*
X162129998Y-96850000D01*
X162129998Y-96358573D01*
X162130008Y-96357427D01*
X162131204Y-96292167D01*
X162131245Y-96289947D01*
X162126689Y-96253370D01*
X162125869Y-96250359D01*
X162099727Y-96154475D01*
X162089016Y-96115190D01*
X162074378Y-96081364D01*
X162068101Y-96071141D01*
X162000599Y-95961202D01*
X162000595Y-95961197D01*
X161999438Y-95959312D01*
X161975895Y-95930953D01*
X161869711Y-95834839D01*
X161839153Y-95814228D01*
X161837161Y-95813263D01*
X161837156Y-95813260D01*
X161721330Y-95757144D01*
X161710261Y-95751781D01*
X161688396Y-95744803D01*
X161677264Y-95741250D01*
X161677260Y-95741249D01*
X161675148Y-95740575D01*
X161533910Y-95716813D01*
X161532715Y-95716706D01*
X161532018Y-95716616D01*
X161490524Y-95692816D01*
X161477500Y-95654628D01*
X161477500Y-95257573D01*
X161477586Y-95254302D01*
X161479130Y-95224829D01*
X161479718Y-95213616D01*
X161470567Y-95189774D01*
X161467784Y-95180380D01*
X161463840Y-95161824D01*
X161463839Y-95161822D01*
X161462474Y-95155400D01*
X161458614Y-95150088D01*
X161458613Y-95150085D01*
X161456493Y-95147167D01*
X161448708Y-95132829D01*
X161447415Y-95129460D01*
X161447413Y-95129458D01*
X161445060Y-95123326D01*
X161427003Y-95105269D01*
X161420640Y-95097820D01*
X161405628Y-95077158D01*
X161396811Y-95072067D01*
X161383873Y-95062139D01*
X161166227Y-94844493D01*
X161163993Y-94842141D01*
X161136708Y-94811837D01*
X161130710Y-94809167D01*
X161130708Y-94809165D01*
X161113385Y-94801453D01*
X161104764Y-94796772D01*
X161088863Y-94786446D01*
X161088862Y-94786446D01*
X161083350Y-94782866D01*
X161073298Y-94781274D01*
X161057660Y-94776642D01*
X161048357Y-94772500D01*
X161022823Y-94772500D01*
X161013046Y-94771731D01*
X160994314Y-94768764D01*
X160994313Y-94768764D01*
X160987828Y-94767737D01*
X160977995Y-94770372D01*
X160961825Y-94772500D01*
X159370122Y-94772500D01*
X159325928Y-94754194D01*
X159305928Y-94734194D01*
X159287622Y-94690000D01*
X159305928Y-94645806D01*
X159350122Y-94627500D01*
X160012558Y-94627500D01*
X160017616Y-94626494D01*
X160043713Y-94621303D01*
X160043715Y-94621302D01*
X160049748Y-94620102D01*
X160091922Y-94591922D01*
X160120102Y-94549748D01*
X160127500Y-94512558D01*
X160127500Y-92487442D01*
X160120102Y-92450252D01*
X160091922Y-92408078D01*
X160049748Y-92379898D01*
X160043715Y-92378698D01*
X160043713Y-92378697D01*
X160015569Y-92373099D01*
X160012558Y-92372500D01*
X158220121Y-92372500D01*
X158175927Y-92354194D01*
X157225369Y-91403636D01*
X157207063Y-91359442D01*
X157225369Y-91315248D01*
X157269563Y-91296942D01*
X157283197Y-91298447D01*
X157364930Y-91316716D01*
X157407328Y-91326193D01*
X157410667Y-91326380D01*
X157411955Y-91326452D01*
X157411966Y-91326452D01*
X157412819Y-91326500D01*
X157544866Y-91326500D01*
X157648443Y-91315248D01*
X157675157Y-91312346D01*
X157675158Y-91312346D01*
X157678525Y-91311980D01*
X157681730Y-91310901D01*
X157681732Y-91310901D01*
X157787902Y-91275171D01*
X157848722Y-91254703D01*
X158002648Y-91162214D01*
X158133123Y-91038830D01*
X158234060Y-90890306D01*
X158300748Y-90723573D01*
X158330078Y-90546409D01*
X158320679Y-90367079D01*
X158319236Y-90361837D01*
X158273892Y-90197219D01*
X158272992Y-90193951D01*
X158189240Y-90035102D01*
X158095663Y-89924367D01*
X158075518Y-89900528D01*
X158075515Y-89900525D01*
X158073332Y-89897942D01*
X157930674Y-89788872D01*
X157767923Y-89712980D01*
X157764623Y-89712242D01*
X157764622Y-89712242D01*
X157595177Y-89674367D01*
X157595178Y-89674367D01*
X157592672Y-89673807D01*
X157589333Y-89673620D01*
X157588045Y-89673548D01*
X157588034Y-89673548D01*
X157587181Y-89673500D01*
X157455134Y-89673500D01*
X157363607Y-89683443D01*
X157324843Y-89687654D01*
X157324842Y-89687654D01*
X157321475Y-89688020D01*
X157318270Y-89689099D01*
X157318268Y-89689099D01*
X157249500Y-89712242D01*
X157151278Y-89745297D01*
X156997352Y-89837786D01*
X156866877Y-89961170D01*
X156765940Y-90109694D01*
X156764683Y-90112837D01*
X156707259Y-90256409D01*
X156699252Y-90276427D01*
X156681216Y-90385374D01*
X156672015Y-90440951D01*
X156669922Y-90453591D01*
X156670099Y-90456972D01*
X156670099Y-90456976D01*
X156674609Y-90543024D01*
X156679321Y-90632921D01*
X156680218Y-90636179D01*
X156680219Y-90636183D01*
X156701912Y-90714938D01*
X156695999Y-90762407D01*
X156658253Y-90791791D01*
X156610784Y-90785878D01*
X156597462Y-90775729D01*
X155991742Y-90170008D01*
X153791227Y-87969493D01*
X153788993Y-87967141D01*
X153761708Y-87936837D01*
X153755710Y-87934167D01*
X153755708Y-87934165D01*
X153738385Y-87926453D01*
X153729764Y-87921772D01*
X153713863Y-87911446D01*
X153713862Y-87911446D01*
X153708350Y-87907866D01*
X153698298Y-87906274D01*
X153682660Y-87901642D01*
X153673357Y-87897500D01*
X153647823Y-87897500D01*
X153638046Y-87896731D01*
X153619314Y-87893764D01*
X153619313Y-87893764D01*
X153612828Y-87892737D01*
X153602995Y-87895372D01*
X153586825Y-87897500D01*
X146132573Y-87897500D01*
X146129302Y-87897414D01*
X146126135Y-87897248D01*
X146088616Y-87895282D01*
X146064769Y-87904435D01*
X146055381Y-87907216D01*
X146030400Y-87912526D01*
X146025084Y-87916388D01*
X146025082Y-87916389D01*
X146022165Y-87918508D01*
X146007832Y-87926291D01*
X146004459Y-87927586D01*
X145998327Y-87929940D01*
X145980273Y-87947994D01*
X145972816Y-87954363D01*
X145952158Y-87969372D01*
X145948875Y-87975059D01*
X145948871Y-87975063D01*
X145947067Y-87978188D01*
X145937135Y-87991132D01*
X145642975Y-88285292D01*
X145640601Y-88287545D01*
X145615200Y-88310415D01*
X145615199Y-88310416D01*
X145610317Y-88314812D01*
X145607645Y-88320814D01*
X145607644Y-88320815D01*
X145599933Y-88338135D01*
X145595252Y-88346756D01*
X145591522Y-88352500D01*
X145581346Y-88368170D01*
X145579754Y-88378222D01*
X145575122Y-88393860D01*
X145570980Y-88403163D01*
X145570980Y-88428697D01*
X145570211Y-88438474D01*
X145566217Y-88463692D01*
X145568852Y-88473525D01*
X145570980Y-88489695D01*
X145570980Y-91044097D01*
X145570894Y-91047368D01*
X145568762Y-91088054D01*
X145577915Y-91111901D01*
X145580696Y-91121289D01*
X145586006Y-91146270D01*
X145589868Y-91151586D01*
X145589869Y-91151588D01*
X145591988Y-91154505D01*
X145599771Y-91168838D01*
X145603420Y-91178343D01*
X145621474Y-91196397D01*
X145627843Y-91203854D01*
X145642852Y-91224512D01*
X145648539Y-91227795D01*
X145648543Y-91227799D01*
X145651668Y-91229603D01*
X145664612Y-91239535D01*
X145774548Y-91349472D01*
X145882102Y-91457026D01*
X145884354Y-91459399D01*
X145911622Y-91489683D01*
X145917620Y-91492353D01*
X145917622Y-91492355D01*
X145934945Y-91500067D01*
X145943566Y-91504748D01*
X145952504Y-91510552D01*
X145964980Y-91518654D01*
X145975032Y-91520246D01*
X145990670Y-91524878D01*
X145999973Y-91529020D01*
X146025507Y-91529020D01*
X146035284Y-91529789D01*
X146054016Y-91532756D01*
X146054017Y-91532756D01*
X146060502Y-91533783D01*
X146070335Y-91531148D01*
X146086505Y-91529020D01*
X146681399Y-91529020D01*
X146725593Y-91547326D01*
X146870196Y-91691929D01*
X146888502Y-91736123D01*
X146870196Y-91780317D01*
X146826002Y-91798623D01*
X146817849Y-91798089D01*
X146815404Y-91797767D01*
X146815402Y-91797767D01*
X146813375Y-91797500D01*
X146811328Y-91797500D01*
X146499156Y-91797501D01*
X146186626Y-91797501D01*
X146184615Y-91797766D01*
X146184610Y-91797766D01*
X146143669Y-91803155D01*
X146143668Y-91803155D01*
X146138929Y-91803779D01*
X146134595Y-91805800D01*
X146039213Y-91850277D01*
X146039211Y-91850279D01*
X146034256Y-91852589D01*
X145952589Y-91934256D01*
X145950279Y-91939211D01*
X145950277Y-91939213D01*
X145943622Y-91953485D01*
X145903779Y-92038929D01*
X145903155Y-92043669D01*
X145903155Y-92043670D01*
X145897767Y-92084593D01*
X145897767Y-92084601D01*
X145897500Y-92086625D01*
X145897501Y-92563374D01*
X145897766Y-92565385D01*
X145897766Y-92565390D01*
X145899483Y-92578434D01*
X145903779Y-92611071D01*
X145905800Y-92615404D01*
X145905800Y-92615405D01*
X145950277Y-92710787D01*
X145950279Y-92710789D01*
X145952589Y-92715744D01*
X146034256Y-92797411D01*
X146039211Y-92799721D01*
X146039213Y-92799723D01*
X146069940Y-92814051D01*
X146138929Y-92846221D01*
X146152295Y-92847981D01*
X146184593Y-92852233D01*
X146184601Y-92852233D01*
X146186625Y-92852500D01*
X146224666Y-92852500D01*
X146679878Y-92852499D01*
X146724072Y-92870805D01*
X147335237Y-93481970D01*
X147353543Y-93526164D01*
X147335237Y-93570358D01*
X147307443Y-93585923D01*
X147304000Y-93591541D01*
X147304000Y-94296069D01*
X147307641Y-94304859D01*
X147316431Y-94308500D01*
X147591568Y-94308500D01*
X147600358Y-94304859D01*
X147603999Y-94296069D01*
X147603999Y-93945666D01*
X147603614Y-93940777D01*
X147597869Y-93904497D01*
X147609037Y-93857983D01*
X147649824Y-93832990D01*
X147696338Y-93844158D01*
X147703794Y-93850527D01*
X148504194Y-94650927D01*
X148522500Y-94695121D01*
X148522500Y-95191230D01*
X148525379Y-95215424D01*
X148527283Y-95219710D01*
X148527283Y-95219711D01*
X148558382Y-95289725D01*
X148567343Y-95309900D01*
X148640506Y-95382935D01*
X148685576Y-95402861D01*
X148730756Y-95422835D01*
X148730759Y-95422836D01*
X148735055Y-95424735D01*
X148739722Y-95425279D01*
X148739725Y-95425280D01*
X148751038Y-95426599D01*
X148758770Y-95427500D01*
X149141230Y-95427500D01*
X149143060Y-95427282D01*
X149143064Y-95427282D01*
X149149647Y-95426498D01*
X149165424Y-95424621D01*
X149169711Y-95422717D01*
X149254628Y-95384999D01*
X149254629Y-95384998D01*
X149259900Y-95382657D01*
X149266508Y-95376038D01*
X149328859Y-95313577D01*
X149332935Y-95309494D01*
X149357469Y-95254000D01*
X149372835Y-95219244D01*
X149372836Y-95219241D01*
X149374735Y-95214945D01*
X149375279Y-95210278D01*
X149375280Y-95210275D01*
X149377288Y-95193046D01*
X149377500Y-95191230D01*
X149377500Y-93933770D01*
X149374621Y-93909576D01*
X149372365Y-93904497D01*
X149334999Y-93820372D01*
X149334998Y-93820371D01*
X149332657Y-93815100D01*
X149316924Y-93799394D01*
X149263577Y-93746141D01*
X149259494Y-93742065D01*
X149214424Y-93722139D01*
X149169244Y-93702165D01*
X149169241Y-93702164D01*
X149164945Y-93700265D01*
X149160278Y-93699721D01*
X149160275Y-93699720D01*
X149148962Y-93698401D01*
X149141230Y-93697500D01*
X148758770Y-93697500D01*
X148756940Y-93697718D01*
X148756936Y-93697718D01*
X148750353Y-93698502D01*
X148734576Y-93700379D01*
X148730290Y-93702283D01*
X148730289Y-93702283D01*
X148645372Y-93740001D01*
X148645371Y-93740002D01*
X148640100Y-93742343D01*
X148567065Y-93815506D01*
X148564733Y-93820780D01*
X148564732Y-93820782D01*
X148525817Y-93908805D01*
X148491204Y-93941823D01*
X148443382Y-93940696D01*
X148424460Y-93927727D01*
X147119362Y-92622628D01*
X147101056Y-92578434D01*
X147101590Y-92570288D01*
X147102500Y-92563375D01*
X147102499Y-92086626D01*
X147102234Y-92084610D01*
X147102234Y-92084608D01*
X147101911Y-92082159D01*
X147114289Y-92035953D01*
X147155715Y-92012033D01*
X147201921Y-92024411D01*
X147208070Y-92029804D01*
X147504194Y-92325928D01*
X147522500Y-92370122D01*
X147522500Y-92599870D01*
X147537150Y-92673521D01*
X147592957Y-92757043D01*
X147676479Y-92812850D01*
X147709163Y-92819351D01*
X147747117Y-92826901D01*
X147747120Y-92826901D01*
X147750130Y-92827500D01*
X148974870Y-92827500D01*
X148977880Y-92826901D01*
X148977883Y-92826901D01*
X149015837Y-92819351D01*
X149048521Y-92812850D01*
X149132043Y-92757043D01*
X149187850Y-92673521D01*
X149202500Y-92599870D01*
X149202500Y-92300130D01*
X149187850Y-92226479D01*
X149132043Y-92142957D01*
X149062558Y-92096529D01*
X149035982Y-92056755D01*
X149045314Y-92009839D01*
X149069736Y-91988459D01*
X149169041Y-91939702D01*
X149177323Y-91933774D01*
X149259169Y-91851785D01*
X149265085Y-91843490D01*
X149305325Y-91761168D01*
X149305914Y-91751671D01*
X149304640Y-91750229D01*
X149303650Y-91750000D01*
X148175000Y-91750000D01*
X148130806Y-91731694D01*
X148112500Y-91687500D01*
X148112500Y-91312500D01*
X148130806Y-91268306D01*
X148175000Y-91250000D01*
X149298444Y-91250000D01*
X149307234Y-91246359D01*
X149307959Y-91244608D01*
X149307718Y-91243570D01*
X149264703Y-91155959D01*
X149258774Y-91147677D01*
X149176785Y-91065831D01*
X149168490Y-91059915D01*
X149069746Y-91011648D01*
X149038080Y-90975794D01*
X149041042Y-90928050D01*
X149062470Y-90903530D01*
X149126926Y-90860462D01*
X149132043Y-90857043D01*
X149187850Y-90773521D01*
X149202500Y-90699870D01*
X149202500Y-90400130D01*
X149201149Y-90393335D01*
X149192419Y-90349451D01*
X149187850Y-90326479D01*
X149132043Y-90242957D01*
X149048521Y-90187150D01*
X149015837Y-90180649D01*
X148977883Y-90173099D01*
X148977880Y-90173099D01*
X148974870Y-90172500D01*
X147750130Y-90172500D01*
X147747120Y-90173099D01*
X147747117Y-90173099D01*
X147709163Y-90180649D01*
X147676479Y-90187150D01*
X147592957Y-90242957D01*
X147537150Y-90326479D01*
X147532581Y-90349451D01*
X147523084Y-90397193D01*
X147496508Y-90436967D01*
X147461785Y-90447500D01*
X147158743Y-90447500D01*
X147114549Y-90429194D01*
X147099158Y-90397979D01*
X147098184Y-90398263D01*
X147096845Y-90393669D01*
X147096221Y-90388929D01*
X147083588Y-90361837D01*
X147049723Y-90289213D01*
X147049721Y-90289211D01*
X147047411Y-90284256D01*
X146965744Y-90202589D01*
X146960789Y-90200279D01*
X146960787Y-90200277D01*
X146889582Y-90167074D01*
X146861071Y-90153779D01*
X146847705Y-90152019D01*
X146815407Y-90147767D01*
X146815399Y-90147767D01*
X146813375Y-90147500D01*
X146811328Y-90147500D01*
X146499156Y-90147501D01*
X146186626Y-90147501D01*
X146184615Y-90147766D01*
X146184610Y-90147766D01*
X146143669Y-90153155D01*
X146143668Y-90153155D01*
X146138929Y-90153779D01*
X146114893Y-90164987D01*
X146067104Y-90167074D01*
X146031836Y-90134757D01*
X146025980Y-90108343D01*
X146025980Y-89293657D01*
X148021000Y-89293657D01*
X148021183Y-89297025D01*
X148026940Y-89350020D01*
X148028738Y-89357584D01*
X148073962Y-89478222D01*
X148078197Y-89485957D01*
X148155145Y-89588627D01*
X148161373Y-89594855D01*
X148264043Y-89671803D01*
X148271778Y-89676038D01*
X148392416Y-89721262D01*
X148399980Y-89723060D01*
X148452975Y-89728817D01*
X148456343Y-89729000D01*
X148458569Y-89729000D01*
X148467359Y-89725359D01*
X148471000Y-89716569D01*
X148979000Y-89716569D01*
X148982641Y-89725359D01*
X148991431Y-89729000D01*
X148993657Y-89729000D01*
X148997025Y-89728817D01*
X149050020Y-89723060D01*
X149057584Y-89721262D01*
X149178222Y-89676038D01*
X149185957Y-89671803D01*
X149288627Y-89594855D01*
X149294855Y-89588627D01*
X149371803Y-89485957D01*
X149376038Y-89478222D01*
X149421262Y-89357584D01*
X149423060Y-89350020D01*
X149428817Y-89297025D01*
X149429000Y-89293657D01*
X149429000Y-89266431D01*
X149425359Y-89257641D01*
X149416569Y-89254000D01*
X148991431Y-89254000D01*
X148982641Y-89257641D01*
X148979000Y-89266431D01*
X148979000Y-89716569D01*
X148471000Y-89716569D01*
X148471000Y-89266431D01*
X148467359Y-89257641D01*
X148458569Y-89254000D01*
X148033431Y-89254000D01*
X148024641Y-89257641D01*
X148021000Y-89266431D01*
X148021000Y-89293657D01*
X146025980Y-89293657D01*
X146025980Y-88571641D01*
X146044286Y-88527447D01*
X146200928Y-88370806D01*
X146245122Y-88352500D01*
X148074321Y-88352500D01*
X148118515Y-88370806D01*
X148136821Y-88415000D01*
X148124334Y-88452483D01*
X148078197Y-88514043D01*
X148073962Y-88521778D01*
X148028738Y-88642416D01*
X148026940Y-88649980D01*
X148021183Y-88702975D01*
X148021000Y-88706343D01*
X148021000Y-88733569D01*
X148024641Y-88742359D01*
X148033431Y-88746000D01*
X149416569Y-88746000D01*
X149425359Y-88742359D01*
X149429000Y-88733569D01*
X149429000Y-88706343D01*
X149428817Y-88702975D01*
X149423060Y-88649980D01*
X149421262Y-88642416D01*
X149376038Y-88521778D01*
X149371803Y-88514043D01*
X149325666Y-88452483D01*
X149313810Y-88406140D01*
X149338196Y-88364987D01*
X149375679Y-88352500D01*
X149798098Y-88352500D01*
X149842292Y-88370806D01*
X149860598Y-88415000D01*
X149842292Y-88459194D01*
X149842113Y-88459346D01*
X149841964Y-88459419D01*
X149841620Y-88459764D01*
X149841616Y-88459767D01*
X149762704Y-88538817D01*
X149762702Y-88538819D01*
X149759056Y-88542472D01*
X149744221Y-88572821D01*
X149709943Y-88642946D01*
X149707520Y-88647902D01*
X149697500Y-88716589D01*
X149697501Y-89283410D01*
X149707699Y-89352695D01*
X149759419Y-89458036D01*
X149763071Y-89461682D01*
X149763072Y-89461683D01*
X149838817Y-89537296D01*
X149838819Y-89537298D01*
X149842472Y-89540944D01*
X149915762Y-89576769D01*
X149943158Y-89590161D01*
X149947902Y-89592480D01*
X149952705Y-89593181D01*
X149952706Y-89593181D01*
X149974659Y-89596383D01*
X150016589Y-89602500D01*
X150274317Y-89602500D01*
X150533410Y-89602499D01*
X150602695Y-89592301D01*
X150708036Y-89540581D01*
X150762565Y-89485957D01*
X150787296Y-89461183D01*
X150787298Y-89461181D01*
X150790944Y-89457528D01*
X150826769Y-89384238D01*
X150840349Y-89356458D01*
X150840349Y-89356457D01*
X150842480Y-89352098D01*
X150843820Y-89342910D01*
X150868311Y-89301822D01*
X150914684Y-89290085D01*
X150953507Y-89311714D01*
X150959262Y-89318560D01*
X150962127Y-89321968D01*
X150965832Y-89324434D01*
X150965834Y-89324436D01*
X151014836Y-89357054D01*
X151064064Y-89389823D01*
X151180948Y-89426340D01*
X151185398Y-89426422D01*
X151185401Y-89426422D01*
X151235074Y-89427332D01*
X151303383Y-89428584D01*
X151356088Y-89414215D01*
X151417226Y-89397548D01*
X151417229Y-89397547D01*
X151421527Y-89396375D01*
X151425323Y-89394044D01*
X151425326Y-89394043D01*
X151522083Y-89334633D01*
X151525881Y-89332301D01*
X151608058Y-89241513D01*
X151661451Y-89131311D01*
X151681767Y-89010552D01*
X151681896Y-89000000D01*
X151664536Y-88878781D01*
X151613852Y-88767307D01*
X151584782Y-88733569D01*
X151536826Y-88677914D01*
X151533918Y-88674539D01*
X151431160Y-88607935D01*
X151313838Y-88572848D01*
X151252611Y-88572474D01*
X151195838Y-88572127D01*
X151195837Y-88572127D01*
X151191385Y-88572100D01*
X151073644Y-88605751D01*
X150970080Y-88671095D01*
X150967137Y-88674427D01*
X150967135Y-88674429D01*
X150952639Y-88690843D01*
X150909663Y-88711850D01*
X150864420Y-88696316D01*
X150843959Y-88658570D01*
X150843008Y-88652110D01*
X150842301Y-88647305D01*
X150790581Y-88541964D01*
X150770360Y-88521778D01*
X150707706Y-88459233D01*
X150689361Y-88415055D01*
X150707628Y-88370845D01*
X150751861Y-88352500D01*
X153504879Y-88352500D01*
X153549073Y-88370806D01*
X157854194Y-92675928D01*
X157872500Y-92720122D01*
X157872500Y-94512558D01*
X157879898Y-94549748D01*
X157908078Y-94591922D01*
X157950252Y-94620102D01*
X157956285Y-94621302D01*
X157956287Y-94621303D01*
X157982384Y-94626494D01*
X157987442Y-94627500D01*
X158710000Y-94627500D01*
X158754194Y-94645806D01*
X158772500Y-94690000D01*
X158772500Y-94742427D01*
X158772414Y-94745698D01*
X158770282Y-94786384D01*
X158772196Y-94791372D01*
X158761183Y-94837237D01*
X158720396Y-94862230D01*
X158673883Y-94851061D01*
X158666427Y-94844693D01*
X158666227Y-94844493D01*
X158663993Y-94842141D01*
X158636708Y-94811837D01*
X158630710Y-94809167D01*
X158630708Y-94809165D01*
X158613385Y-94801453D01*
X158604764Y-94796772D01*
X158588863Y-94786446D01*
X158588862Y-94786446D01*
X158583350Y-94782866D01*
X158573298Y-94781274D01*
X158557660Y-94776642D01*
X158548357Y-94772500D01*
X158522823Y-94772500D01*
X158513046Y-94771731D01*
X158494314Y-94768764D01*
X158494313Y-94768764D01*
X158487828Y-94767737D01*
X158477995Y-94770372D01*
X158461825Y-94772500D01*
X155870122Y-94772500D01*
X155825928Y-94754194D01*
X155805928Y-94734194D01*
X155787622Y-94690000D01*
X155805928Y-94645806D01*
X155850122Y-94627500D01*
X156512558Y-94627500D01*
X156517616Y-94626494D01*
X156543713Y-94621303D01*
X156543715Y-94621302D01*
X156549748Y-94620102D01*
X156591922Y-94591922D01*
X156620102Y-94549748D01*
X156627500Y-94512558D01*
X156627500Y-92487442D01*
X156620102Y-92450252D01*
X156591922Y-92408078D01*
X156549748Y-92379898D01*
X156543715Y-92378698D01*
X156543713Y-92378697D01*
X156515569Y-92373099D01*
X156512558Y-92372500D01*
X155790000Y-92372500D01*
X155745806Y-92354194D01*
X155727500Y-92310000D01*
X155727500Y-91757573D01*
X155727586Y-91754302D01*
X155729374Y-91720180D01*
X155729718Y-91713616D01*
X155720567Y-91689774D01*
X155717784Y-91680380D01*
X155713840Y-91661824D01*
X155713839Y-91661822D01*
X155712474Y-91655400D01*
X155708614Y-91650088D01*
X155708613Y-91650085D01*
X155706493Y-91647167D01*
X155698708Y-91632829D01*
X155697415Y-91629460D01*
X155697413Y-91629458D01*
X155695060Y-91623326D01*
X155677003Y-91605269D01*
X155670640Y-91597820D01*
X155655628Y-91577158D01*
X155646811Y-91572067D01*
X155633873Y-91562139D01*
X155416227Y-91344493D01*
X155413993Y-91342141D01*
X155386708Y-91311837D01*
X155380710Y-91309167D01*
X155380708Y-91309165D01*
X155363385Y-91301453D01*
X155354764Y-91296772D01*
X155338863Y-91286446D01*
X155338862Y-91286446D01*
X155333350Y-91282866D01*
X155323298Y-91281274D01*
X155307660Y-91276642D01*
X155307294Y-91276479D01*
X155298357Y-91272500D01*
X155272823Y-91272500D01*
X155263046Y-91271731D01*
X155244314Y-91268764D01*
X155244313Y-91268764D01*
X155237828Y-91267737D01*
X155227995Y-91270372D01*
X155211825Y-91272500D01*
X153419711Y-91272500D01*
X153375517Y-91254194D01*
X153357211Y-91210000D01*
X153369438Y-91172867D01*
X153427989Y-91093596D01*
X153432307Y-91085440D01*
X153474736Y-90964621D01*
X153476354Y-90957244D01*
X153478063Y-90939168D01*
X153475359Y-90932641D01*
X153466569Y-90929000D01*
X152558500Y-90929000D01*
X152514306Y-90910694D01*
X152496000Y-90866500D01*
X152496000Y-90408569D01*
X153004000Y-90408569D01*
X153007641Y-90417359D01*
X153016431Y-90421000D01*
X153466568Y-90421000D01*
X153475358Y-90417359D01*
X153478062Y-90410831D01*
X153476355Y-90392762D01*
X153474734Y-90385374D01*
X153432307Y-90264560D01*
X153427991Y-90256409D01*
X153352425Y-90154100D01*
X153345900Y-90147575D01*
X153243591Y-90072009D01*
X153235440Y-90067693D01*
X153114621Y-90025264D01*
X153107244Y-90023646D01*
X153080717Y-90021139D01*
X153077775Y-90021000D01*
X153016431Y-90021000D01*
X153007641Y-90024641D01*
X153004000Y-90033431D01*
X153004000Y-90408569D01*
X152496000Y-90408569D01*
X152496000Y-90033432D01*
X152492359Y-90024642D01*
X152483569Y-90021001D01*
X152422228Y-90021001D01*
X152419280Y-90021140D01*
X152392762Y-90023645D01*
X152385374Y-90025266D01*
X152264560Y-90067693D01*
X152256409Y-90072009D01*
X152154100Y-90147575D01*
X152147575Y-90154100D01*
X152072009Y-90256409D01*
X152067693Y-90264560D01*
X152025264Y-90385379D01*
X152023646Y-90392756D01*
X152021139Y-90419283D01*
X152021000Y-90422225D01*
X152021000Y-90551568D01*
X152002694Y-90595762D01*
X151958500Y-90614068D01*
X151914306Y-90595762D01*
X151713037Y-90394493D01*
X151710803Y-90392141D01*
X151683518Y-90361837D01*
X151677520Y-90359167D01*
X151677518Y-90359165D01*
X151660195Y-90351453D01*
X151651574Y-90346772D01*
X151635673Y-90336446D01*
X151635672Y-90336446D01*
X151630160Y-90332866D01*
X151620108Y-90331274D01*
X151604470Y-90326642D01*
X151604104Y-90326479D01*
X151595167Y-90322500D01*
X151569633Y-90322500D01*
X151559856Y-90321731D01*
X151541124Y-90318764D01*
X151541123Y-90318764D01*
X151534638Y-90317737D01*
X151524805Y-90320372D01*
X151508635Y-90322500D01*
X151493598Y-90322500D01*
X151449404Y-90304194D01*
X151441631Y-90294722D01*
X151410464Y-90248076D01*
X151410462Y-90248074D01*
X151407043Y-90242957D01*
X151323521Y-90187150D01*
X151290837Y-90180649D01*
X151252883Y-90173099D01*
X151252880Y-90173099D01*
X151249870Y-90172500D01*
X150025130Y-90172500D01*
X150022120Y-90173099D01*
X150022117Y-90173099D01*
X149984163Y-90180649D01*
X149951479Y-90187150D01*
X149867957Y-90242957D01*
X149812150Y-90326479D01*
X149807581Y-90349451D01*
X149798852Y-90393335D01*
X149797500Y-90400130D01*
X149797500Y-90699870D01*
X149812150Y-90773521D01*
X149867957Y-90857043D01*
X149951479Y-90912850D01*
X149984163Y-90919351D01*
X150022117Y-90926901D01*
X150022120Y-90926901D01*
X150025130Y-90927500D01*
X151249870Y-90927500D01*
X151252880Y-90926901D01*
X151252883Y-90926901D01*
X151290837Y-90919351D01*
X151323521Y-90912850D01*
X151378345Y-90876218D01*
X151401925Y-90860463D01*
X151401926Y-90860462D01*
X151407043Y-90857043D01*
X151414831Y-90845387D01*
X151454604Y-90818810D01*
X151501520Y-90828142D01*
X151510992Y-90835915D01*
X151659674Y-90984597D01*
X151677980Y-91028791D01*
X151659674Y-91072985D01*
X151632655Y-91088885D01*
X151611160Y-91095029D01*
X151573644Y-91105751D01*
X151525783Y-91135949D01*
X151484156Y-91162214D01*
X151470080Y-91171095D01*
X151467131Y-91174434D01*
X151464477Y-91176693D01*
X151418957Y-91191397D01*
X151389245Y-91181065D01*
X151375994Y-91172211D01*
X151323521Y-91137150D01*
X151290837Y-91130649D01*
X151252883Y-91123099D01*
X151252880Y-91123099D01*
X151249870Y-91122500D01*
X150025130Y-91122500D01*
X150022120Y-91123099D01*
X150022117Y-91123099D01*
X149984163Y-91130649D01*
X149951479Y-91137150D01*
X149867957Y-91192957D01*
X149812150Y-91276479D01*
X149808080Y-91296942D01*
X149798852Y-91343335D01*
X149797500Y-91350130D01*
X149797500Y-91649870D01*
X149798099Y-91652880D01*
X149798099Y-91652883D01*
X149799089Y-91657860D01*
X149812150Y-91723521D01*
X149867957Y-91807043D01*
X149951479Y-91862850D01*
X149984163Y-91869351D01*
X150022117Y-91876901D01*
X150022120Y-91876901D01*
X150025130Y-91877500D01*
X151249870Y-91877500D01*
X151252880Y-91876901D01*
X151252883Y-91876901D01*
X151290837Y-91869351D01*
X151323521Y-91862850D01*
X151389284Y-91818909D01*
X151436200Y-91809577D01*
X151461852Y-91822381D01*
X151462127Y-91821968D01*
X151465433Y-91824169D01*
X151465435Y-91824170D01*
X151465839Y-91824439D01*
X151477650Y-91832301D01*
X151564064Y-91889823D01*
X151680948Y-91926340D01*
X151685398Y-91926422D01*
X151685401Y-91926422D01*
X151735074Y-91927332D01*
X151803383Y-91928584D01*
X151856088Y-91914215D01*
X151917226Y-91897548D01*
X151917229Y-91897547D01*
X151921527Y-91896375D01*
X151925323Y-91894044D01*
X151925326Y-91894043D01*
X152022083Y-91834633D01*
X152025881Y-91832301D01*
X152108058Y-91741513D01*
X152161451Y-91631311D01*
X152162212Y-91626787D01*
X152162253Y-91626721D01*
X152163544Y-91622677D01*
X152164579Y-91623007D01*
X152187597Y-91586243D01*
X152234216Y-91575523D01*
X152268040Y-91592963D01*
X152330564Y-91655487D01*
X152332817Y-91657860D01*
X152360102Y-91688163D01*
X152366102Y-91690834D01*
X152366104Y-91690836D01*
X152376398Y-91695419D01*
X152409326Y-91730117D01*
X152408073Y-91777936D01*
X152377391Y-91809159D01*
X152303769Y-91843490D01*
X152284256Y-91852589D01*
X152202589Y-91934256D01*
X152200279Y-91939211D01*
X152200277Y-91939213D01*
X152193622Y-91953485D01*
X152153779Y-92038929D01*
X152153155Y-92043669D01*
X152153155Y-92043670D01*
X152147767Y-92084593D01*
X152147767Y-92084601D01*
X152147500Y-92086625D01*
X152147500Y-92160000D01*
X152129194Y-92204194D01*
X152085000Y-92222500D01*
X151493598Y-92222500D01*
X151449404Y-92204194D01*
X151441631Y-92194722D01*
X151410464Y-92148076D01*
X151410462Y-92148074D01*
X151407043Y-92142957D01*
X151323521Y-92087150D01*
X151290837Y-92080649D01*
X151252883Y-92073099D01*
X151252880Y-92073099D01*
X151249870Y-92072500D01*
X150025130Y-92072500D01*
X150022120Y-92073099D01*
X150022117Y-92073099D01*
X149984163Y-92080649D01*
X149951479Y-92087150D01*
X149867957Y-92142957D01*
X149812150Y-92226479D01*
X149797500Y-92300130D01*
X149797500Y-92599870D01*
X149812150Y-92673521D01*
X149867957Y-92757043D01*
X149951479Y-92812850D01*
X149984163Y-92819351D01*
X150022117Y-92826901D01*
X150022120Y-92826901D01*
X150025130Y-92827500D01*
X150667379Y-92827500D01*
X150711573Y-92845806D01*
X150816694Y-92950927D01*
X150835000Y-92995121D01*
X150835000Y-95010000D01*
X150816694Y-95054194D01*
X150772500Y-95072500D01*
X150433770Y-95072500D01*
X150431940Y-95072718D01*
X150431936Y-95072718D01*
X150425353Y-95073502D01*
X150409576Y-95075379D01*
X150405290Y-95077283D01*
X150405289Y-95077283D01*
X150320372Y-95115001D01*
X150320371Y-95115002D01*
X150315100Y-95117343D01*
X150311024Y-95121426D01*
X150285328Y-95147167D01*
X150242065Y-95190506D01*
X150237625Y-95200549D01*
X150202165Y-95280756D01*
X150202164Y-95280759D01*
X150200265Y-95285055D01*
X150199721Y-95289722D01*
X150199720Y-95289725D01*
X150199122Y-95294855D01*
X150197500Y-95308770D01*
X150197500Y-95691230D01*
X150200379Y-95715424D01*
X150202283Y-95719710D01*
X150202283Y-95719711D01*
X150233382Y-95789725D01*
X150242343Y-95809900D01*
X150246426Y-95813976D01*
X150267326Y-95834839D01*
X150315506Y-95882935D01*
X150360576Y-95902861D01*
X150405756Y-95922835D01*
X150405759Y-95922836D01*
X150410055Y-95924735D01*
X150414722Y-95925279D01*
X150414725Y-95925280D01*
X150426038Y-95926599D01*
X150433770Y-95927500D01*
X151691230Y-95927500D01*
X151693060Y-95927282D01*
X151693064Y-95927282D01*
X151699647Y-95926498D01*
X151715424Y-95924621D01*
X151719711Y-95922717D01*
X151804628Y-95884999D01*
X151804629Y-95884998D01*
X151809900Y-95882657D01*
X151882935Y-95809494D01*
X151908749Y-95751104D01*
X151922835Y-95719244D01*
X151922836Y-95719241D01*
X151924735Y-95714945D01*
X151925279Y-95710278D01*
X151925280Y-95710275D01*
X151927288Y-95693046D01*
X151927500Y-95691230D01*
X151927500Y-95308770D01*
X151924621Y-95284576D01*
X151918831Y-95271540D01*
X151884999Y-95195372D01*
X151884998Y-95195371D01*
X151882657Y-95190100D01*
X151877736Y-95185187D01*
X151813577Y-95121141D01*
X151809494Y-95117065D01*
X151764424Y-95097139D01*
X151719244Y-95077165D01*
X151719241Y-95077164D01*
X151714945Y-95075265D01*
X151710278Y-95074721D01*
X151710275Y-95074720D01*
X151698962Y-95073401D01*
X151691230Y-95072500D01*
X151352500Y-95072500D01*
X151308306Y-95054194D01*
X151290000Y-95010000D01*
X151290000Y-94788682D01*
X151308306Y-94744488D01*
X151352500Y-94726182D01*
X151396694Y-94744488D01*
X151400343Y-94748466D01*
X151444883Y-94801453D01*
X151462127Y-94821968D01*
X151465832Y-94824434D01*
X151465834Y-94824436D01*
X151530030Y-94867168D01*
X151564064Y-94889823D01*
X151680948Y-94926340D01*
X151685398Y-94926422D01*
X151685401Y-94926422D01*
X151735074Y-94927332D01*
X151803383Y-94928584D01*
X151856088Y-94914215D01*
X151917226Y-94897548D01*
X151917229Y-94897547D01*
X151921527Y-94896375D01*
X151925323Y-94894044D01*
X151925326Y-94894043D01*
X152025881Y-94832301D01*
X152027048Y-94834202D01*
X152065664Y-94822257D01*
X152107973Y-94844576D01*
X152111398Y-94850099D01*
X152111731Y-94849870D01*
X152115002Y-94854629D01*
X152117343Y-94859900D01*
X152121426Y-94863976D01*
X152144845Y-94887354D01*
X152190506Y-94932935D01*
X152235576Y-94952861D01*
X152280756Y-94972835D01*
X152280759Y-94972836D01*
X152285055Y-94974735D01*
X152289722Y-94975279D01*
X152289725Y-94975280D01*
X152301038Y-94976599D01*
X152308770Y-94977500D01*
X153566230Y-94977500D01*
X153568060Y-94977282D01*
X153568064Y-94977282D01*
X153574647Y-94976498D01*
X153590424Y-94974621D01*
X153594711Y-94972717D01*
X153679628Y-94934999D01*
X153679629Y-94934998D01*
X153684900Y-94932657D01*
X153757935Y-94859494D01*
X153784480Y-94799451D01*
X153797835Y-94769244D01*
X153797836Y-94769241D01*
X153799735Y-94764945D01*
X153800279Y-94760278D01*
X153800280Y-94760275D01*
X153802288Y-94743046D01*
X153802500Y-94741230D01*
X153802500Y-94358770D01*
X153799621Y-94334576D01*
X153788039Y-94308500D01*
X153759999Y-94245372D01*
X153759998Y-94245371D01*
X153757657Y-94240100D01*
X153684494Y-94167065D01*
X153639424Y-94147139D01*
X153594244Y-94127165D01*
X153594241Y-94127164D01*
X153589945Y-94125265D01*
X153585278Y-94124721D01*
X153585275Y-94124720D01*
X153573962Y-94123401D01*
X153566230Y-94122500D01*
X152308770Y-94122500D01*
X152306940Y-94122718D01*
X152306936Y-94122718D01*
X152300353Y-94123502D01*
X152284576Y-94125379D01*
X152280290Y-94127283D01*
X152280289Y-94127283D01*
X152195372Y-94165001D01*
X152195371Y-94165002D01*
X152190100Y-94167343D01*
X152150546Y-94206966D01*
X152106368Y-94225310D01*
X152058967Y-94203608D01*
X152036825Y-94177911D01*
X152036819Y-94177906D01*
X152033918Y-94174539D01*
X152028676Y-94171141D01*
X151957056Y-94124720D01*
X151931160Y-94107935D01*
X151813838Y-94072848D01*
X151752611Y-94072474D01*
X151695838Y-94072127D01*
X151695837Y-94072127D01*
X151691385Y-94072100D01*
X151573644Y-94105751D01*
X151470080Y-94171095D01*
X151467137Y-94174427D01*
X151467135Y-94174429D01*
X151399346Y-94251185D01*
X151356370Y-94272192D01*
X151311127Y-94256658D01*
X151290000Y-94209812D01*
X151290000Y-92882584D01*
X151290086Y-92879314D01*
X151290910Y-92863585D01*
X151311502Y-92820409D01*
X151323465Y-92812861D01*
X151323521Y-92812850D01*
X151407043Y-92757043D01*
X151410462Y-92751926D01*
X151410464Y-92751924D01*
X151441631Y-92705278D01*
X151481404Y-92678701D01*
X151493598Y-92677500D01*
X152144939Y-92677500D01*
X152189133Y-92695806D01*
X152196702Y-92706617D01*
X152197142Y-92706309D01*
X152200277Y-92710786D01*
X152202589Y-92715744D01*
X152284256Y-92797411D01*
X152289211Y-92799721D01*
X152289213Y-92799723D01*
X152319940Y-92814051D01*
X152388929Y-92846221D01*
X152402295Y-92847981D01*
X152434593Y-92852233D01*
X152434601Y-92852233D01*
X152436625Y-92852500D01*
X152438672Y-92852500D01*
X152750844Y-92852499D01*
X153063374Y-92852499D01*
X153065385Y-92852234D01*
X153065390Y-92852234D01*
X153106331Y-92846845D01*
X153106332Y-92846845D01*
X153111071Y-92846221D01*
X153127380Y-92838616D01*
X153210787Y-92799723D01*
X153210789Y-92799721D01*
X153215744Y-92797411D01*
X153297411Y-92715744D01*
X153299721Y-92710789D01*
X153299723Y-92710787D01*
X153322479Y-92661985D01*
X153346221Y-92611071D01*
X153351091Y-92574077D01*
X153352233Y-92565407D01*
X153352234Y-92565398D01*
X153352500Y-92563375D01*
X153352499Y-92086626D01*
X153352234Y-92084608D01*
X153346845Y-92043669D01*
X153346845Y-92043668D01*
X153346221Y-92038929D01*
X153332656Y-92009839D01*
X153299723Y-91939213D01*
X153299721Y-91939211D01*
X153297411Y-91934256D01*
X153215744Y-91852589D01*
X153210789Y-91850279D01*
X153210787Y-91850277D01*
X153202995Y-91846644D01*
X153170678Y-91811376D01*
X153172765Y-91763586D01*
X153208033Y-91731269D01*
X153229409Y-91727500D01*
X155129879Y-91727500D01*
X155174073Y-91745806D01*
X155254194Y-91825928D01*
X155272500Y-91870122D01*
X155272500Y-92310000D01*
X155254194Y-92354194D01*
X155210000Y-92372500D01*
X154487442Y-92372500D01*
X154484431Y-92373099D01*
X154456287Y-92378697D01*
X154456285Y-92378698D01*
X154450252Y-92379898D01*
X154408078Y-92408078D01*
X154379898Y-92450252D01*
X154372500Y-92487442D01*
X154372500Y-94512558D01*
X154379898Y-94549748D01*
X154408078Y-94591922D01*
X154450252Y-94620102D01*
X154456285Y-94621302D01*
X154456287Y-94621303D01*
X154482384Y-94626494D01*
X154487442Y-94627500D01*
X155210000Y-94627500D01*
X155254194Y-94645806D01*
X155272500Y-94690000D01*
X155272500Y-94742427D01*
X155272414Y-94745698D01*
X155270282Y-94786384D01*
X155279435Y-94810231D01*
X155282216Y-94819619D01*
X155287526Y-94844600D01*
X155291388Y-94849916D01*
X155291389Y-94849918D01*
X155293508Y-94852835D01*
X155301291Y-94867168D01*
X155304940Y-94876673D01*
X155322994Y-94894727D01*
X155329363Y-94902184D01*
X155344372Y-94922842D01*
X155350059Y-94926125D01*
X155350063Y-94926129D01*
X155353188Y-94927933D01*
X155366132Y-94937865D01*
X155583772Y-95155506D01*
X155586024Y-95157879D01*
X155613292Y-95188163D01*
X155619290Y-95190833D01*
X155619292Y-95190835D01*
X155636615Y-95198547D01*
X155645236Y-95203228D01*
X155661137Y-95213554D01*
X155666650Y-95217134D01*
X155676702Y-95218726D01*
X155692340Y-95223358D01*
X155701643Y-95227500D01*
X155727177Y-95227500D01*
X155736954Y-95228269D01*
X155755686Y-95231236D01*
X155755687Y-95231236D01*
X155762172Y-95232263D01*
X155772005Y-95229628D01*
X155788175Y-95227500D01*
X158379879Y-95227500D01*
X158424073Y-95245806D01*
X158504194Y-95325928D01*
X158522500Y-95370122D01*
X158522500Y-95656124D01*
X158504194Y-95700318D01*
X158468860Y-95717993D01*
X158391773Y-95729033D01*
X158339794Y-95736477D01*
X158304417Y-95746822D01*
X158302396Y-95747741D01*
X158302393Y-95747742D01*
X158176061Y-95805182D01*
X158174038Y-95806102D01*
X158142987Y-95825960D01*
X158034486Y-95919450D01*
X158033023Y-95921127D01*
X158033020Y-95921130D01*
X158029400Y-95925280D01*
X158010256Y-95947225D01*
X157932356Y-96067410D01*
X157916895Y-96100870D01*
X157875859Y-96238088D01*
X157870411Y-96274541D01*
X157869536Y-96417762D01*
X157869837Y-96419963D01*
X157869870Y-96420463D01*
X157870002Y-96424523D01*
X157870002Y-96850000D01*
X157870601Y-96853011D01*
X157878697Y-96893713D01*
X157878698Y-96893715D01*
X157879898Y-96899748D01*
X157908078Y-96941922D01*
X157913195Y-96945341D01*
X157917224Y-96948033D01*
X157943800Y-96987806D01*
X157934468Y-97034723D01*
X157917225Y-97051966D01*
X157908078Y-97058078D01*
X157879898Y-97100252D01*
X157878698Y-97106285D01*
X157878697Y-97106287D01*
X157873346Y-97133190D01*
X157870002Y-97150000D01*
X157870002Y-97641268D01*
X157870001Y-97641649D01*
X157869536Y-97717762D01*
X157874539Y-97754279D01*
X157913896Y-97891988D01*
X157928946Y-97925634D01*
X158005372Y-98046762D01*
X158029261Y-98074831D01*
X158136612Y-98169639D01*
X158167418Y-98189875D01*
X158169431Y-98190820D01*
X158295051Y-98249800D01*
X158295059Y-98249803D01*
X158297063Y-98250744D01*
X158299190Y-98251394D01*
X158299192Y-98251395D01*
X158330181Y-98260869D01*
X158330187Y-98260870D01*
X158332312Y-98261520D01*
X158414006Y-98274240D01*
X158469615Y-98282898D01*
X158510467Y-98307785D01*
X158522500Y-98344654D01*
X158522500Y-99818213D01*
X158504194Y-99862407D01*
X158460000Y-99880713D01*
X158447809Y-99879512D01*
X158412558Y-99872500D01*
X158087442Y-99872500D01*
X158084431Y-99873099D01*
X158056287Y-99878697D01*
X158056285Y-99878698D01*
X158050252Y-99879898D01*
X158045135Y-99883317D01*
X158034723Y-99890274D01*
X157987806Y-99899606D01*
X157965277Y-99890274D01*
X157954865Y-99883317D01*
X157949748Y-99879898D01*
X157943715Y-99878698D01*
X157943713Y-99878697D01*
X157915569Y-99873099D01*
X157912558Y-99872500D01*
X157689500Y-99872500D01*
X157645306Y-99854194D01*
X157627000Y-99810000D01*
X157627000Y-97312500D01*
X157617332Y-97263899D01*
X157616159Y-97261066D01*
X157616157Y-97261061D01*
X157599668Y-97221255D01*
X157599026Y-97219705D01*
X157586015Y-97195876D01*
X157576958Y-97188577D01*
X157552386Y-97168776D01*
X157530295Y-97150974D01*
X157512786Y-97143721D01*
X157488939Y-97133843D01*
X157488934Y-97133841D01*
X157486101Y-97132668D01*
X157483093Y-97132070D01*
X157483091Y-97132069D01*
X157461800Y-97127834D01*
X157437500Y-97123000D01*
X157168709Y-97123000D01*
X157124515Y-97104694D01*
X157116742Y-97095224D01*
X157091922Y-97058078D01*
X157049748Y-97029898D01*
X157043715Y-97028698D01*
X157043713Y-97028697D01*
X157003011Y-97020601D01*
X157000000Y-97020002D01*
X156558087Y-97020002D01*
X156547718Y-97019136D01*
X156536846Y-97017307D01*
X156533910Y-97016813D01*
X156532727Y-97016707D01*
X156532720Y-97016706D01*
X156515127Y-97015128D01*
X156515122Y-97015128D01*
X156513932Y-97015021D01*
X156512736Y-97015006D01*
X156512729Y-97015006D01*
X156507536Y-97014943D01*
X156501590Y-97014870D01*
X156481571Y-97016173D01*
X156480386Y-97016343D01*
X156480383Y-97016343D01*
X156459240Y-97019371D01*
X156450380Y-97020002D01*
X156058087Y-97020002D01*
X156047718Y-97019136D01*
X156036846Y-97017307D01*
X156033910Y-97016813D01*
X156032727Y-97016707D01*
X156032720Y-97016706D01*
X156015127Y-97015128D01*
X156015122Y-97015128D01*
X156013932Y-97015021D01*
X156012736Y-97015006D01*
X156012729Y-97015006D01*
X156007536Y-97014943D01*
X156001590Y-97014870D01*
X155981571Y-97016173D01*
X155980386Y-97016343D01*
X155980383Y-97016343D01*
X155959240Y-97019371D01*
X155950380Y-97020002D01*
X155500000Y-97020002D01*
X155496989Y-97020601D01*
X155456287Y-97028697D01*
X155456285Y-97028698D01*
X155450252Y-97029898D01*
X155408078Y-97058078D01*
X155383258Y-97095224D01*
X155343484Y-97121799D01*
X155331291Y-97123000D01*
X154562500Y-97123000D01*
X154538199Y-97127834D01*
X154516909Y-97132069D01*
X154516907Y-97132070D01*
X154513899Y-97132668D01*
X154511066Y-97133841D01*
X154511061Y-97133843D01*
X154479340Y-97146983D01*
X154469705Y-97150974D01*
X154445876Y-97163985D01*
X154400974Y-97219705D01*
X154399264Y-97223834D01*
X154383843Y-97261061D01*
X154383841Y-97261066D01*
X154382668Y-97263899D01*
X154373000Y-97312500D01*
X154373000Y-98471180D01*
X154354694Y-98515374D01*
X154310500Y-98533680D01*
X154266306Y-98515374D01*
X154250668Y-98489245D01*
X154205452Y-98339484D01*
X154204568Y-98336556D01*
X154127079Y-98190820D01*
X154111403Y-98161337D01*
X154111401Y-98161334D01*
X154109968Y-98158639D01*
X153982612Y-98002485D01*
X153827351Y-97874042D01*
X153824667Y-97872591D01*
X153824663Y-97872588D01*
X153652784Y-97779654D01*
X153650099Y-97778202D01*
X153553853Y-97748409D01*
X153460522Y-97719518D01*
X153460519Y-97719517D01*
X153457607Y-97718616D01*
X153454574Y-97718297D01*
X153454573Y-97718297D01*
X153404780Y-97713064D01*
X153257208Y-97697553D01*
X153254175Y-97697829D01*
X153254170Y-97697829D01*
X153233164Y-97699741D01*
X153187493Y-97685516D01*
X153165257Y-97643162D01*
X153165000Y-97637498D01*
X153165000Y-96940000D01*
X153183306Y-96895806D01*
X153227500Y-96877500D01*
X153566230Y-96877500D01*
X153568060Y-96877282D01*
X153568064Y-96877282D01*
X153574647Y-96876498D01*
X153590424Y-96874621D01*
X153603964Y-96868607D01*
X153679628Y-96834999D01*
X153679629Y-96834998D01*
X153684900Y-96832657D01*
X153757935Y-96759494D01*
X153782961Y-96702887D01*
X153797835Y-96669244D01*
X153797836Y-96669241D01*
X153799735Y-96664945D01*
X153800279Y-96660278D01*
X153800280Y-96660275D01*
X153802288Y-96643046D01*
X153802500Y-96641230D01*
X153802500Y-96258770D01*
X153802121Y-96255580D01*
X153800453Y-96241568D01*
X153799621Y-96234576D01*
X153778286Y-96186543D01*
X153759999Y-96145372D01*
X153759998Y-96145371D01*
X153757657Y-96140100D01*
X153684494Y-96067065D01*
X153639424Y-96047139D01*
X153594244Y-96027165D01*
X153594241Y-96027164D01*
X153589945Y-96025265D01*
X153585278Y-96024721D01*
X153585275Y-96024720D01*
X153573962Y-96023401D01*
X153566230Y-96022500D01*
X152308770Y-96022500D01*
X152306940Y-96022718D01*
X152306936Y-96022718D01*
X152300353Y-96023502D01*
X152284576Y-96025379D01*
X152280290Y-96027283D01*
X152280289Y-96027283D01*
X152195372Y-96065001D01*
X152195371Y-96065002D01*
X152190100Y-96067343D01*
X152186024Y-96071426D01*
X152174076Y-96083395D01*
X152117065Y-96140506D01*
X152100486Y-96178007D01*
X152077165Y-96230756D01*
X152077164Y-96230759D01*
X152075265Y-96235055D01*
X152074721Y-96239722D01*
X152074720Y-96239725D01*
X152073481Y-96250358D01*
X152072500Y-96258770D01*
X152072500Y-96641230D01*
X152075379Y-96665424D01*
X152077283Y-96669710D01*
X152077283Y-96669711D01*
X152094081Y-96707528D01*
X152117343Y-96759900D01*
X152190506Y-96832935D01*
X152213680Y-96843180D01*
X152280756Y-96872835D01*
X152280759Y-96872836D01*
X152285055Y-96874735D01*
X152289722Y-96875279D01*
X152289725Y-96875280D01*
X152301038Y-96876599D01*
X152308770Y-96877500D01*
X152647500Y-96877500D01*
X152691694Y-96895806D01*
X152710000Y-96940000D01*
X152710000Y-97816042D01*
X152691694Y-97860236D01*
X152684603Y-97865998D01*
X152684656Y-97866064D01*
X152527617Y-97992327D01*
X152398093Y-98146687D01*
X152375022Y-98188654D01*
X152346733Y-98240110D01*
X152309401Y-98270018D01*
X152291964Y-98272500D01*
X151414999Y-98272500D01*
X151370805Y-98254194D01*
X151352499Y-98210000D01*
X151352499Y-98186626D01*
X151352232Y-98184593D01*
X151346845Y-98143669D01*
X151346845Y-98143668D01*
X151346221Y-98138929D01*
X151308823Y-98058728D01*
X151299723Y-98039213D01*
X151299721Y-98039211D01*
X151297411Y-98034256D01*
X151215744Y-97952589D01*
X151210789Y-97950279D01*
X151210787Y-97950277D01*
X151153596Y-97923609D01*
X151111071Y-97903779D01*
X151097705Y-97902019D01*
X151065407Y-97897767D01*
X151065399Y-97897767D01*
X151063375Y-97897500D01*
X151061328Y-97897500D01*
X150824358Y-97897501D01*
X150586626Y-97897501D01*
X150584615Y-97897766D01*
X150584610Y-97897766D01*
X150543669Y-97903155D01*
X150543668Y-97903155D01*
X150538929Y-97903779D01*
X150534595Y-97905800D01*
X150439213Y-97950277D01*
X150439211Y-97950279D01*
X150434256Y-97952589D01*
X150352589Y-98034256D01*
X150350279Y-98039211D01*
X150350277Y-98039213D01*
X150341177Y-98058728D01*
X150303779Y-98138929D01*
X150303155Y-98143669D01*
X150303155Y-98143670D01*
X150297767Y-98184593D01*
X150297767Y-98184601D01*
X150297500Y-98186625D01*
X150297501Y-98813374D01*
X150297766Y-98815385D01*
X150297766Y-98815390D01*
X150300515Y-98836274D01*
X150303779Y-98861071D01*
X150305800Y-98865404D01*
X150305800Y-98865405D01*
X150350277Y-98960787D01*
X150350279Y-98960789D01*
X150352589Y-98965744D01*
X150434256Y-99047411D01*
X150439211Y-99049721D01*
X150439213Y-99049723D01*
X150488015Y-99072479D01*
X150538929Y-99096221D01*
X150552295Y-99097981D01*
X150584593Y-99102233D01*
X150584601Y-99102233D01*
X150586625Y-99102500D01*
X150588672Y-99102500D01*
X150825642Y-99102499D01*
X151063374Y-99102499D01*
X151065385Y-99102234D01*
X151065390Y-99102234D01*
X151106331Y-99096845D01*
X151106332Y-99096845D01*
X151111071Y-99096221D01*
X151132934Y-99086026D01*
X151210787Y-99049723D01*
X151210789Y-99049721D01*
X151215744Y-99047411D01*
X151297411Y-98965744D01*
X151299721Y-98960789D01*
X151299723Y-98960787D01*
X151326597Y-98903155D01*
X151346221Y-98861071D01*
X151348176Y-98846217D01*
X151352233Y-98815407D01*
X151352233Y-98815399D01*
X151352500Y-98813375D01*
X151352500Y-98790000D01*
X151370806Y-98745806D01*
X151415000Y-98727500D01*
X152161158Y-98727500D01*
X152205352Y-98745806D01*
X152223439Y-98784770D01*
X152234490Y-98916381D01*
X152235332Y-98919317D01*
X152286059Y-99096221D01*
X152290032Y-99110078D01*
X152382139Y-99289299D01*
X152507302Y-99447215D01*
X152509626Y-99449193D01*
X152509628Y-99449195D01*
X152656228Y-99573962D01*
X152660754Y-99577814D01*
X152836651Y-99676119D01*
X152839555Y-99677063D01*
X152839556Y-99677063D01*
X153025379Y-99737441D01*
X153025384Y-99737442D01*
X153028292Y-99738387D01*
X153228378Y-99762246D01*
X153231420Y-99762012D01*
X153231423Y-99762012D01*
X153426236Y-99747021D01*
X153426238Y-99747021D01*
X153429287Y-99746786D01*
X153623367Y-99692598D01*
X153626090Y-99691223D01*
X153626094Y-99691221D01*
X153800506Y-99603119D01*
X153803226Y-99601745D01*
X153805624Y-99599872D01*
X153805628Y-99599869D01*
X153898972Y-99526940D01*
X153962013Y-99477687D01*
X154093679Y-99325150D01*
X154163841Y-99201643D01*
X154191698Y-99152606D01*
X154191699Y-99152604D01*
X154193210Y-99149944D01*
X154251195Y-98975634D01*
X154282515Y-98939477D01*
X154330228Y-98936057D01*
X154366385Y-98967377D01*
X154373000Y-98995362D01*
X154373000Y-100096591D01*
X154354694Y-100140785D01*
X154310500Y-100159091D01*
X154275777Y-100148558D01*
X154254225Y-100134157D01*
X154243067Y-100129536D01*
X154178030Y-100116599D01*
X154171946Y-100116000D01*
X153516431Y-100116000D01*
X153507641Y-100119641D01*
X153504000Y-100128431D01*
X153504000Y-101461500D01*
X153485694Y-101505694D01*
X153441500Y-101524000D01*
X152108432Y-101524000D01*
X152099642Y-101527641D01*
X152096001Y-101536431D01*
X152096001Y-102191945D01*
X152096600Y-102198030D01*
X152109536Y-102263068D01*
X152114157Y-102274224D01*
X152119746Y-102282589D01*
X152129078Y-102329505D01*
X152102502Y-102369279D01*
X152055585Y-102378611D01*
X152036492Y-102374813D01*
X152027378Y-102373000D01*
X151560000Y-102373000D01*
X151515806Y-102354694D01*
X151497500Y-102310500D01*
X151497500Y-101687442D01*
X151490102Y-101650252D01*
X151461922Y-101608078D01*
X151419748Y-101579898D01*
X151413715Y-101578698D01*
X151413713Y-101578697D01*
X151385569Y-101573099D01*
X151382558Y-101572500D01*
X151244278Y-101572500D01*
X151200084Y-101554194D01*
X151181783Y-101509235D01*
X151181826Y-101505694D01*
X151181896Y-101500000D01*
X151164536Y-101378781D01*
X151123340Y-101288175D01*
X151115696Y-101271362D01*
X151115695Y-101271360D01*
X151113852Y-101267307D01*
X151033918Y-101174539D01*
X150931160Y-101107935D01*
X150926899Y-101106661D01*
X150926891Y-101106657D01*
X150909242Y-101101379D01*
X150872146Y-101071178D01*
X150867271Y-101023592D01*
X150883572Y-101003569D01*
X152096000Y-101003569D01*
X152099641Y-101012359D01*
X152108431Y-101016000D01*
X152983569Y-101016000D01*
X152992359Y-101012359D01*
X152996000Y-101003569D01*
X152996000Y-100128432D01*
X152992359Y-100119642D01*
X152983569Y-100116001D01*
X152328055Y-100116001D01*
X152321970Y-100116600D01*
X152256932Y-100129536D01*
X152245776Y-100134157D01*
X152171993Y-100183457D01*
X152163457Y-100191993D01*
X152114157Y-100265775D01*
X152109536Y-100276933D01*
X152096599Y-100341970D01*
X152096000Y-100348054D01*
X152096000Y-101003569D01*
X150883572Y-101003569D01*
X150897472Y-100986496D01*
X150927150Y-100979000D01*
X151043657Y-100979000D01*
X151047025Y-100978817D01*
X151100020Y-100973060D01*
X151107584Y-100971262D01*
X151228222Y-100926038D01*
X151235957Y-100921803D01*
X151338627Y-100844855D01*
X151344855Y-100838627D01*
X151421803Y-100735957D01*
X151426038Y-100728222D01*
X151471262Y-100607584D01*
X151473060Y-100600020D01*
X151478817Y-100547025D01*
X151479000Y-100543657D01*
X151479000Y-100516431D01*
X151475359Y-100507641D01*
X151466569Y-100504000D01*
X150083431Y-100504000D01*
X150074641Y-100507641D01*
X150071000Y-100516431D01*
X150071000Y-100543657D01*
X150071183Y-100547025D01*
X150076940Y-100600020D01*
X150078738Y-100607584D01*
X150123962Y-100728222D01*
X150128197Y-100735957D01*
X150205145Y-100838627D01*
X150211373Y-100844855D01*
X150314043Y-100921803D01*
X150321778Y-100926038D01*
X150442416Y-100971262D01*
X150449980Y-100973060D01*
X150502975Y-100978817D01*
X150506343Y-100979000D01*
X150571014Y-100979000D01*
X150615208Y-100997306D01*
X150633514Y-101041500D01*
X150615208Y-101085694D01*
X150588189Y-101101594D01*
X150573644Y-101105751D01*
X150470080Y-101171095D01*
X150467137Y-101174427D01*
X150467135Y-101174429D01*
X150420549Y-101227177D01*
X150389018Y-101262879D01*
X150387126Y-101266909D01*
X150338868Y-101369695D01*
X150338867Y-101369698D01*
X150336976Y-101373726D01*
X150318136Y-101494724D01*
X150318713Y-101499136D01*
X150318713Y-101499137D01*
X150319074Y-101501895D01*
X150318661Y-101503431D01*
X150318659Y-101503590D01*
X150318618Y-101503590D01*
X150306654Y-101548090D01*
X150265207Y-101571972D01*
X150257102Y-101572500D01*
X150157442Y-101572500D01*
X150154431Y-101573099D01*
X150126287Y-101578697D01*
X150126285Y-101578698D01*
X150120252Y-101579898D01*
X150078078Y-101608078D01*
X150049898Y-101650252D01*
X150042500Y-101687442D01*
X150042500Y-102310500D01*
X150024194Y-102354694D01*
X149980000Y-102373000D01*
X149866500Y-102373000D01*
X149842199Y-102377834D01*
X149820909Y-102382069D01*
X149820907Y-102382070D01*
X149817899Y-102382668D01*
X149815066Y-102383841D01*
X149815061Y-102383843D01*
X149777914Y-102399231D01*
X149773705Y-102400974D01*
X149772237Y-102401775D01*
X149772236Y-102401776D01*
X149769950Y-102403024D01*
X149722388Y-102408134D01*
X149685143Y-102378117D01*
X149677500Y-102348167D01*
X149677500Y-101687442D01*
X149673289Y-101666271D01*
X149682621Y-101619355D01*
X149722395Y-101592779D01*
X149727907Y-101591936D01*
X149731658Y-101591533D01*
X149731660Y-101591532D01*
X149736101Y-101591055D01*
X149780295Y-101572749D01*
X149804124Y-101559738D01*
X149849026Y-101504018D01*
X149864880Y-101465744D01*
X149866157Y-101462662D01*
X149866159Y-101462657D01*
X149867332Y-101459824D01*
X149868319Y-101454865D01*
X149876401Y-101414233D01*
X149877000Y-101411223D01*
X149877000Y-100845310D01*
X149875954Y-100838627D01*
X149871295Y-100808885D01*
X149870919Y-100806484D01*
X149859236Y-100770099D01*
X149858132Y-100767307D01*
X149855092Y-100759625D01*
X149853064Y-100754499D01*
X149849395Y-100750387D01*
X149849394Y-100750385D01*
X149808402Y-100704441D01*
X149805423Y-100701102D01*
X149801624Y-100698737D01*
X149799017Y-100696544D01*
X149776987Y-100654083D01*
X149783107Y-100621273D01*
X149790348Y-100606460D01*
X149790349Y-100606457D01*
X149792480Y-100602098D01*
X149802500Y-100533411D01*
X149802499Y-99983569D01*
X150071000Y-99983569D01*
X150074641Y-99992359D01*
X150083431Y-99996000D01*
X150508569Y-99996000D01*
X150517359Y-99992359D01*
X150521000Y-99983569D01*
X151029000Y-99983569D01*
X151032641Y-99992359D01*
X151041431Y-99996000D01*
X151466569Y-99996000D01*
X151475359Y-99992359D01*
X151479000Y-99983569D01*
X151479000Y-99956343D01*
X151478817Y-99952975D01*
X151473060Y-99899980D01*
X151471262Y-99892416D01*
X151426038Y-99771778D01*
X151421803Y-99764043D01*
X151344855Y-99661373D01*
X151338627Y-99655145D01*
X151235957Y-99578197D01*
X151228222Y-99573962D01*
X151107584Y-99528738D01*
X151100020Y-99526940D01*
X151047025Y-99521183D01*
X151043657Y-99521000D01*
X151041431Y-99521000D01*
X151032641Y-99524641D01*
X151029000Y-99533431D01*
X151029000Y-99983569D01*
X150521000Y-99983569D01*
X150521000Y-99533431D01*
X150517359Y-99524641D01*
X150508569Y-99521000D01*
X150506343Y-99521000D01*
X150502975Y-99521183D01*
X150449980Y-99526940D01*
X150442416Y-99528738D01*
X150321778Y-99573962D01*
X150314043Y-99578197D01*
X150211373Y-99655145D01*
X150205145Y-99661373D01*
X150128197Y-99764043D01*
X150123962Y-99771778D01*
X150078738Y-99892416D01*
X150076940Y-99899980D01*
X150071183Y-99952975D01*
X150071000Y-99956343D01*
X150071000Y-99983569D01*
X149802499Y-99983569D01*
X149802499Y-99966590D01*
X149792301Y-99897305D01*
X149790161Y-99892947D01*
X149790160Y-99892943D01*
X149784066Y-99880532D01*
X149781020Y-99832794D01*
X149799653Y-99805662D01*
X149804124Y-99803221D01*
X149807985Y-99798429D01*
X149807987Y-99798428D01*
X149829462Y-99771778D01*
X149849026Y-99747501D01*
X149862321Y-99715405D01*
X149866157Y-99706145D01*
X149866159Y-99706140D01*
X149867332Y-99703307D01*
X149877000Y-99654706D01*
X149877000Y-99014043D01*
X149870172Y-98979718D01*
X149867931Y-98968452D01*
X149867930Y-98968450D01*
X149867332Y-98965442D01*
X149866159Y-98962609D01*
X149866157Y-98962604D01*
X149849668Y-98922798D01*
X149849026Y-98921248D01*
X149836015Y-98897419D01*
X149826422Y-98889688D01*
X149818152Y-98883024D01*
X149780295Y-98852517D01*
X149755833Y-98842385D01*
X149741082Y-98836274D01*
X149707257Y-98802449D01*
X149702500Y-98778532D01*
X149702499Y-98221468D01*
X149720805Y-98177274D01*
X149741081Y-98163726D01*
X149759077Y-98156272D01*
X149780295Y-98147483D01*
X149804124Y-98134472D01*
X149849026Y-98078752D01*
X149865404Y-98039213D01*
X149866157Y-98037396D01*
X149866159Y-98037391D01*
X149867332Y-98034558D01*
X149877000Y-97985957D01*
X149877000Y-97812500D01*
X149868452Y-97769529D01*
X149867931Y-97766909D01*
X149867930Y-97766907D01*
X149867332Y-97763899D01*
X149866159Y-97761066D01*
X149866157Y-97761061D01*
X149849668Y-97721255D01*
X149849666Y-97721251D01*
X149849026Y-97719705D01*
X149836015Y-97695876D01*
X149780295Y-97650974D01*
X149757785Y-97641650D01*
X149738939Y-97633843D01*
X149738934Y-97633841D01*
X149736101Y-97632668D01*
X149733093Y-97632070D01*
X149733091Y-97632069D01*
X149711801Y-97627834D01*
X149687500Y-97623000D01*
X148281604Y-97623000D01*
X148237410Y-97604694D01*
X148219104Y-97560500D01*
X148224508Y-97535078D01*
X148224829Y-97534357D01*
X148224829Y-97534355D01*
X148227500Y-97528357D01*
X148227500Y-97502822D01*
X148228269Y-97493045D01*
X148231236Y-97474312D01*
X148232263Y-97467828D01*
X148229629Y-97457997D01*
X148227500Y-97441822D01*
X148227500Y-97334884D01*
X148245806Y-97290690D01*
X148264628Y-97277766D01*
X148309900Y-97257657D01*
X148319927Y-97247613D01*
X148349249Y-97218239D01*
X148382935Y-97184494D01*
X148405328Y-97133843D01*
X148422835Y-97094244D01*
X148422836Y-97094241D01*
X148424735Y-97089945D01*
X148425279Y-97085278D01*
X148425280Y-97085275D01*
X148427288Y-97068046D01*
X148427500Y-97066230D01*
X148427500Y-95808770D01*
X148424621Y-95784576D01*
X148419412Y-95772849D01*
X148384999Y-95695372D01*
X148384998Y-95695371D01*
X148382657Y-95690100D01*
X148309494Y-95617065D01*
X148264424Y-95597139D01*
X148219244Y-95577165D01*
X148219241Y-95577164D01*
X148214945Y-95575265D01*
X148210278Y-95574721D01*
X148210275Y-95574720D01*
X148198962Y-95573401D01*
X148191230Y-95572500D01*
X147808770Y-95572500D01*
X147806940Y-95572718D01*
X147806936Y-95572718D01*
X147800353Y-95573502D01*
X147784576Y-95575379D01*
X147780290Y-95577283D01*
X147780289Y-95577283D01*
X147695372Y-95615001D01*
X147695371Y-95615002D01*
X147690100Y-95617343D01*
X147617065Y-95690506D01*
X147609853Y-95706819D01*
X147577165Y-95780756D01*
X147577164Y-95780759D01*
X147575265Y-95785055D01*
X147574721Y-95789722D01*
X147574720Y-95789725D01*
X147573401Y-95801038D01*
X147572500Y-95808770D01*
X147572500Y-97066230D01*
X147575379Y-97090424D01*
X147577283Y-97094710D01*
X147577283Y-97094711D01*
X147606744Y-97161037D01*
X147617343Y-97184900D01*
X147690506Y-97257935D01*
X147695784Y-97260268D01*
X147695785Y-97260269D01*
X147697577Y-97261061D01*
X147735272Y-97277726D01*
X147768290Y-97312337D01*
X147772500Y-97334888D01*
X147772500Y-97359879D01*
X147754194Y-97404073D01*
X147332301Y-97825966D01*
X147288107Y-97844272D01*
X147258383Y-97836751D01*
X147150099Y-97778202D01*
X147065712Y-97752080D01*
X146960522Y-97719518D01*
X146960519Y-97719517D01*
X146957607Y-97718616D01*
X146954574Y-97718297D01*
X146954573Y-97718297D01*
X146904780Y-97713064D01*
X146757208Y-97697553D01*
X146754175Y-97697829D01*
X146754171Y-97697829D01*
X146666987Y-97705764D01*
X146556534Y-97715816D01*
X146553606Y-97716678D01*
X146553605Y-97716678D01*
X146402805Y-97761061D01*
X146393200Y-97763888D01*
X146345636Y-97758805D01*
X146317812Y-97727848D01*
X146314439Y-97719705D01*
X146301428Y-97695876D01*
X146245708Y-97650974D01*
X146223198Y-97641650D01*
X146204352Y-97633843D01*
X146204347Y-97633841D01*
X146201514Y-97632668D01*
X146198506Y-97632070D01*
X146198504Y-97632069D01*
X146177214Y-97627834D01*
X146152913Y-97623000D01*
X145879915Y-97623000D01*
X145835721Y-97604694D01*
X145817415Y-97560500D01*
X145833578Y-97518558D01*
X145855071Y-97494813D01*
X145858058Y-97491513D01*
X145911451Y-97381311D01*
X145914003Y-97366145D01*
X145928878Y-97277725D01*
X145931767Y-97260552D01*
X145931896Y-97250000D01*
X145914536Y-97128781D01*
X145871771Y-97034723D01*
X145865696Y-97021362D01*
X145865695Y-97021360D01*
X145863852Y-97017307D01*
X145802947Y-96946623D01*
X145787968Y-96901196D01*
X145809498Y-96858480D01*
X145841193Y-96843994D01*
X145846723Y-96843180D01*
X145852695Y-96842301D01*
X145867568Y-96834999D01*
X145880073Y-96828859D01*
X145958036Y-96790581D01*
X145984993Y-96763577D01*
X146037296Y-96711183D01*
X146037298Y-96711181D01*
X146040944Y-96707528D01*
X146076769Y-96634238D01*
X146090349Y-96606458D01*
X146090349Y-96606457D01*
X146092480Y-96602098D01*
X146102500Y-96533411D01*
X146102499Y-96016590D01*
X146092301Y-95947305D01*
X146040581Y-95841964D01*
X146036928Y-95838317D01*
X145961183Y-95762704D01*
X145961181Y-95762702D01*
X145957528Y-95759056D01*
X145877038Y-95719711D01*
X145856458Y-95709651D01*
X145856457Y-95709651D01*
X145852098Y-95707520D01*
X145847295Y-95706819D01*
X145847294Y-95706819D01*
X145825341Y-95703617D01*
X145783411Y-95697500D01*
X145500749Y-95697500D01*
X145216590Y-95697501D01*
X145147305Y-95707699D01*
X145142947Y-95709839D01*
X145142946Y-95709839D01*
X145129143Y-95716616D01*
X145041964Y-95759419D01*
X145038318Y-95763071D01*
X145038317Y-95763072D01*
X144962704Y-95838817D01*
X144962702Y-95838819D01*
X144959056Y-95842472D01*
X144939413Y-95882657D01*
X144909943Y-95942946D01*
X144907520Y-95947902D01*
X144906819Y-95952705D01*
X144906819Y-95952706D01*
X144905580Y-95961202D01*
X144897500Y-96016589D01*
X144897501Y-96533410D01*
X144907699Y-96602695D01*
X144959419Y-96708036D01*
X144963071Y-96711682D01*
X144963072Y-96711683D01*
X145038817Y-96787296D01*
X145038819Y-96787298D01*
X145042472Y-96790944D01*
X145115762Y-96826769D01*
X145143158Y-96840161D01*
X145147902Y-96842480D01*
X145158637Y-96844046D01*
X145159089Y-96844112D01*
X145200176Y-96868607D01*
X145211909Y-96914982D01*
X145196909Y-96947330D01*
X145141968Y-97009538D01*
X145141966Y-97009541D01*
X145139018Y-97012879D01*
X145137126Y-97016909D01*
X145088868Y-97119695D01*
X145088867Y-97119698D01*
X145086976Y-97123726D01*
X145068136Y-97244724D01*
X145068713Y-97249137D01*
X145068713Y-97249138D01*
X145070643Y-97263899D01*
X145084014Y-97366145D01*
X145133333Y-97478230D01*
X145154005Y-97502822D01*
X145168683Y-97520284D01*
X145183107Y-97565893D01*
X145161056Y-97608343D01*
X145120840Y-97623000D01*
X137046766Y-97623000D01*
X137002572Y-97604694D01*
X136984266Y-97560500D01*
X136985425Y-97548521D01*
X136988051Y-97535078D01*
X137042969Y-97253857D01*
X137070729Y-97111709D01*
X137071466Y-97108409D01*
X137245847Y-96416724D01*
X137246762Y-96413469D01*
X137368333Y-96021945D01*
X141746001Y-96021945D01*
X141746600Y-96028030D01*
X141759536Y-96093068D01*
X141764157Y-96104224D01*
X141813457Y-96178007D01*
X141821993Y-96186543D01*
X141895775Y-96235843D01*
X141906933Y-96240464D01*
X141971970Y-96253401D01*
X141978054Y-96254000D01*
X142733569Y-96254000D01*
X142742359Y-96250359D01*
X142746000Y-96241569D01*
X142746000Y-96241568D01*
X143254000Y-96241568D01*
X143257641Y-96250358D01*
X143266431Y-96253999D01*
X144021945Y-96253999D01*
X144028030Y-96253400D01*
X144093068Y-96240464D01*
X144104224Y-96235843D01*
X144178007Y-96186543D01*
X144186543Y-96178007D01*
X144235843Y-96104225D01*
X144240464Y-96093067D01*
X144253401Y-96028030D01*
X144254000Y-96021946D01*
X144254000Y-95266431D01*
X144250359Y-95257641D01*
X144241569Y-95254000D01*
X143266431Y-95254000D01*
X143257641Y-95257641D01*
X143254000Y-95266431D01*
X143254000Y-96241568D01*
X142746000Y-96241568D01*
X142746000Y-95266431D01*
X142742359Y-95257641D01*
X142733569Y-95254000D01*
X141758432Y-95254000D01*
X141749642Y-95257641D01*
X141746001Y-95266431D01*
X141746001Y-96021945D01*
X137368333Y-96021945D01*
X137451920Y-95752752D01*
X137458292Y-95732231D01*
X137459381Y-95729033D01*
X137463914Y-95716813D01*
X137517440Y-95572500D01*
X137707437Y-95060245D01*
X137708698Y-95057108D01*
X137736221Y-94993657D01*
X144771000Y-94993657D01*
X144771183Y-94997025D01*
X144776940Y-95050020D01*
X144778738Y-95057584D01*
X144823962Y-95178222D01*
X144828197Y-95185957D01*
X144905145Y-95288627D01*
X144911373Y-95294855D01*
X145014043Y-95371803D01*
X145021778Y-95376038D01*
X145142416Y-95421262D01*
X145149980Y-95423060D01*
X145202975Y-95428817D01*
X145206343Y-95429000D01*
X145233569Y-95429000D01*
X145242359Y-95425359D01*
X145246000Y-95416569D01*
X145754000Y-95416569D01*
X145757641Y-95425359D01*
X145766431Y-95429000D01*
X145793657Y-95429000D01*
X145797025Y-95428817D01*
X145850020Y-95423060D01*
X145857584Y-95421262D01*
X145978222Y-95376038D01*
X145985957Y-95371803D01*
X146088627Y-95294855D01*
X146094855Y-95288627D01*
X146171803Y-95185957D01*
X146175429Y-95179334D01*
X146496001Y-95179334D01*
X146496385Y-95184221D01*
X146510214Y-95271540D01*
X146513218Y-95280784D01*
X146566850Y-95386042D01*
X146572561Y-95393903D01*
X146656097Y-95477439D01*
X146663958Y-95483150D01*
X146769219Y-95536783D01*
X146778460Y-95539786D01*
X146783721Y-95540619D01*
X146792973Y-95538398D01*
X146796000Y-95533459D01*
X146796000Y-95530132D01*
X147304000Y-95530132D01*
X147307641Y-95538922D01*
X147312993Y-95541139D01*
X147321542Y-95539785D01*
X147330781Y-95536783D01*
X147436042Y-95483150D01*
X147443903Y-95477439D01*
X147527439Y-95393903D01*
X147533150Y-95386042D01*
X147586782Y-95280784D01*
X147589786Y-95271540D01*
X147603616Y-95184222D01*
X147604000Y-95179335D01*
X147604000Y-94828931D01*
X147600359Y-94820141D01*
X147591569Y-94816500D01*
X147316431Y-94816500D01*
X147307641Y-94820141D01*
X147304000Y-94828931D01*
X147304000Y-95530132D01*
X146796000Y-95530132D01*
X146796000Y-94828931D01*
X146792359Y-94820141D01*
X146783569Y-94816500D01*
X146508432Y-94816500D01*
X146499642Y-94820141D01*
X146496001Y-94828931D01*
X146496001Y-95179334D01*
X146175429Y-95179334D01*
X146176038Y-95178222D01*
X146221262Y-95057584D01*
X146223060Y-95050020D01*
X146228817Y-94997025D01*
X146229000Y-94993657D01*
X146229000Y-94991431D01*
X146225359Y-94982641D01*
X146216569Y-94979000D01*
X145766431Y-94979000D01*
X145757641Y-94982641D01*
X145754000Y-94991431D01*
X145754000Y-95416569D01*
X145246000Y-95416569D01*
X145246000Y-94991431D01*
X145242359Y-94982641D01*
X145233569Y-94979000D01*
X144783431Y-94979000D01*
X144774641Y-94982641D01*
X144771000Y-94991431D01*
X144771000Y-94993657D01*
X137736221Y-94993657D01*
X137849041Y-94733569D01*
X141746000Y-94733569D01*
X141749641Y-94742359D01*
X141758431Y-94746000D01*
X142733569Y-94746000D01*
X142742359Y-94742359D01*
X142746000Y-94733569D01*
X143254000Y-94733569D01*
X143257641Y-94742359D01*
X143266431Y-94746000D01*
X144241568Y-94746000D01*
X144250358Y-94742359D01*
X144253999Y-94733569D01*
X144253999Y-94458569D01*
X144771000Y-94458569D01*
X144774641Y-94467359D01*
X144783431Y-94471000D01*
X145233569Y-94471000D01*
X145242359Y-94467359D01*
X145246000Y-94458569D01*
X145754000Y-94458569D01*
X145757641Y-94467359D01*
X145766431Y-94471000D01*
X146216569Y-94471000D01*
X146225359Y-94467359D01*
X146229000Y-94458569D01*
X146229000Y-94456343D01*
X146228817Y-94452975D01*
X146223060Y-94399980D01*
X146221262Y-94392416D01*
X146185144Y-94296069D01*
X146496000Y-94296069D01*
X146499641Y-94304859D01*
X146508431Y-94308500D01*
X146783569Y-94308500D01*
X146792359Y-94304859D01*
X146796000Y-94296069D01*
X146796000Y-93594868D01*
X146792359Y-93586078D01*
X146787007Y-93583861D01*
X146778458Y-93585215D01*
X146769219Y-93588217D01*
X146663958Y-93641850D01*
X146656097Y-93647561D01*
X146572561Y-93731097D01*
X146566850Y-93738958D01*
X146513218Y-93844216D01*
X146510214Y-93853460D01*
X146496384Y-93940778D01*
X146496000Y-93945665D01*
X146496000Y-94296069D01*
X146185144Y-94296069D01*
X146176038Y-94271778D01*
X146171803Y-94264043D01*
X146094855Y-94161373D01*
X146088627Y-94155145D01*
X145985957Y-94078197D01*
X145978222Y-94073962D01*
X145857584Y-94028738D01*
X145850020Y-94026940D01*
X145797025Y-94021183D01*
X145793657Y-94021000D01*
X145766431Y-94021000D01*
X145757641Y-94024641D01*
X145754000Y-94033431D01*
X145754000Y-94458569D01*
X145246000Y-94458569D01*
X145246000Y-94033431D01*
X145242359Y-94024641D01*
X145233569Y-94021000D01*
X145206343Y-94021000D01*
X145202975Y-94021183D01*
X145149980Y-94026940D01*
X145142416Y-94028738D01*
X145021778Y-94073962D01*
X145014043Y-94078197D01*
X144911373Y-94155145D01*
X144905145Y-94161373D01*
X144828197Y-94264043D01*
X144823962Y-94271778D01*
X144778738Y-94392416D01*
X144776940Y-94399980D01*
X144771183Y-94452975D01*
X144771000Y-94456343D01*
X144771000Y-94458569D01*
X144253999Y-94458569D01*
X144253999Y-93978055D01*
X144253400Y-93971970D01*
X144240464Y-93906932D01*
X144235843Y-93895776D01*
X144186543Y-93821993D01*
X144178007Y-93813457D01*
X144104225Y-93764157D01*
X144093067Y-93759536D01*
X144028030Y-93746599D01*
X144021946Y-93746000D01*
X143266431Y-93746000D01*
X143257641Y-93749641D01*
X143254000Y-93758431D01*
X143254000Y-94733569D01*
X142746000Y-94733569D01*
X142746000Y-93758432D01*
X142742359Y-93749642D01*
X142733569Y-93746001D01*
X141978055Y-93746001D01*
X141971970Y-93746600D01*
X141906932Y-93759536D01*
X141895776Y-93764157D01*
X141821993Y-93813457D01*
X141813457Y-93821993D01*
X141764157Y-93895775D01*
X141759536Y-93906933D01*
X141746599Y-93971970D01*
X141746000Y-93978054D01*
X141746000Y-94733569D01*
X137849041Y-94733569D01*
X137992563Y-94402701D01*
X137993992Y-94399637D01*
X138312829Y-93761545D01*
X138314422Y-93758562D01*
X138667294Y-93138654D01*
X138669045Y-93135762D01*
X139054933Y-92535833D01*
X139056838Y-92533040D01*
X139474608Y-91954851D01*
X139476662Y-91952165D01*
X139925080Y-91397426D01*
X139927276Y-91394855D01*
X140405037Y-90865178D01*
X140407369Y-90862729D01*
X140567342Y-90703591D01*
X141919922Y-90703591D01*
X141920099Y-90706972D01*
X141920099Y-90706976D01*
X141923587Y-90773521D01*
X141929321Y-90882921D01*
X141930218Y-90886179D01*
X141930219Y-90886183D01*
X141957327Y-90984597D01*
X141977008Y-91056049D01*
X142060760Y-91214898D01*
X142112937Y-91276642D01*
X142174482Y-91349472D01*
X142174485Y-91349475D01*
X142176668Y-91352058D01*
X142319326Y-91461128D01*
X142415083Y-91505780D01*
X142471490Y-91532083D01*
X142482077Y-91537020D01*
X142485377Y-91537758D01*
X142485378Y-91537758D01*
X142588915Y-91560901D01*
X142657328Y-91576193D01*
X142660667Y-91576380D01*
X142661955Y-91576452D01*
X142661966Y-91576452D01*
X142662819Y-91576500D01*
X142794866Y-91576500D01*
X142894903Y-91565632D01*
X142925157Y-91562346D01*
X142925158Y-91562346D01*
X142928525Y-91561980D01*
X142931730Y-91560901D01*
X142931732Y-91560901D01*
X143026465Y-91529020D01*
X143098722Y-91504703D01*
X143131843Y-91484802D01*
X143218637Y-91432650D01*
X143252648Y-91412214D01*
X143383123Y-91288830D01*
X143394744Y-91271731D01*
X143444801Y-91198074D01*
X143484060Y-91140306D01*
X143528663Y-91028791D01*
X143549489Y-90976721D01*
X143549489Y-90976720D01*
X143550748Y-90973573D01*
X143574825Y-90828142D01*
X143579525Y-90799750D01*
X143579525Y-90799749D01*
X143580078Y-90796409D01*
X143579327Y-90782064D01*
X143570856Y-90620459D01*
X143570679Y-90617079D01*
X143564808Y-90595762D01*
X143524727Y-90450250D01*
X143522992Y-90443951D01*
X143439240Y-90285102D01*
X143355450Y-90185949D01*
X143325518Y-90150528D01*
X143325515Y-90150525D01*
X143323332Y-90147942D01*
X143277417Y-90112837D01*
X143183358Y-90040924D01*
X143180674Y-90038872D01*
X143017923Y-89962980D01*
X143014623Y-89962242D01*
X143014622Y-89962242D01*
X142845177Y-89924367D01*
X142845178Y-89924367D01*
X142842672Y-89923807D01*
X142839333Y-89923620D01*
X142838045Y-89923548D01*
X142838034Y-89923548D01*
X142837181Y-89923500D01*
X142705134Y-89923500D01*
X142605097Y-89934368D01*
X142574843Y-89937654D01*
X142574842Y-89937654D01*
X142571475Y-89938020D01*
X142568270Y-89939099D01*
X142568268Y-89939099D01*
X142509597Y-89958844D01*
X142401278Y-89995297D01*
X142247352Y-90087786D01*
X142116877Y-90211170D01*
X142114975Y-90213969D01*
X142114974Y-90213970D01*
X142091797Y-90248074D01*
X142015940Y-90359694D01*
X141949252Y-90526427D01*
X141919922Y-90703591D01*
X140567342Y-90703591D01*
X140720163Y-90551568D01*
X140913084Y-90359654D01*
X140915518Y-90357360D01*
X141217551Y-90087786D01*
X141447724Y-89882349D01*
X141450307Y-89880167D01*
X142007389Y-89434658D01*
X142010086Y-89432619D01*
X142555531Y-89042837D01*
X142590436Y-89017893D01*
X142593235Y-89016005D01*
X143195176Y-88633264D01*
X143198059Y-88631538D01*
X143819847Y-88281894D01*
X143822814Y-88280329D01*
X144424764Y-87983481D01*
X144462595Y-87964825D01*
X144465667Y-87963413D01*
X145121522Y-87682990D01*
X145124666Y-87681745D01*
X145794761Y-87437188D01*
X145797967Y-87436115D01*
X146139130Y-87332136D01*
X146480309Y-87228153D01*
X146483540Y-87227263D01*
X147176137Y-87056503D01*
X147179437Y-87055784D01*
X147880226Y-86922736D01*
X147883564Y-86922195D01*
X148173987Y-86883186D01*
X148590559Y-86827233D01*
X148593889Y-86826878D01*
X149304975Y-86770290D01*
X149308333Y-86770113D01*
X149664887Y-86761088D01*
X150021433Y-86752063D01*
X150024815Y-86752069D01*
G37*
%TD.AperFunction*%
%TD*%
%TA.AperFunction,Conductor*%
%TO.N,+3V3*%
G36*
X154344578Y-104245806D02*
G01*
X154362884Y-104290000D01*
X154358907Y-104311939D01*
X154328738Y-104392416D01*
X154326940Y-104399980D01*
X154321183Y-104452975D01*
X154321000Y-104456343D01*
X154321000Y-104483569D01*
X154324641Y-104492359D01*
X154333431Y-104496000D01*
X154758569Y-104496000D01*
X154767359Y-104492359D01*
X154771000Y-104483569D01*
X154771000Y-104290000D01*
X154789306Y-104245806D01*
X154833500Y-104227500D01*
X155216500Y-104227500D01*
X155260694Y-104245806D01*
X155279000Y-104290000D01*
X155279000Y-104941500D01*
X155260694Y-104985694D01*
X155216500Y-105004000D01*
X154333431Y-105004000D01*
X154324641Y-105007641D01*
X154321000Y-105016431D01*
X154321000Y-105043657D01*
X154321183Y-105047025D01*
X154326940Y-105100020D01*
X154328738Y-105107584D01*
X154350472Y-105165561D01*
X154348844Y-105213369D01*
X154313888Y-105246023D01*
X154291949Y-105250000D01*
X154070302Y-105250000D01*
X154026108Y-105231694D01*
X154007802Y-105187500D01*
X154014151Y-105160053D01*
X154040349Y-105106458D01*
X154040349Y-105106457D01*
X154042480Y-105102098D01*
X154052500Y-105033411D01*
X154052499Y-104466590D01*
X154042301Y-104397305D01*
X154039901Y-104392416D01*
X154003141Y-104317545D01*
X154000096Y-104269807D01*
X154031699Y-104233897D01*
X154059244Y-104227500D01*
X154300384Y-104227500D01*
X154344578Y-104245806D01*
G37*
%TD.AperFunction*%
%TA.AperFunction,Conductor*%
G36*
X156407155Y-102993304D02*
G01*
X156408078Y-102991922D01*
X156450252Y-103020102D01*
X156456285Y-103021302D01*
X156456287Y-103021303D01*
X156482384Y-103026494D01*
X156487442Y-103027500D01*
X156783500Y-103027500D01*
X156827694Y-103045806D01*
X156840382Y-103076438D01*
X156841242Y-103076082D01*
X156849641Y-103096359D01*
X156858431Y-103100000D01*
X157337500Y-103100000D01*
X157381694Y-103118306D01*
X157400000Y-103162500D01*
X157400000Y-103641568D01*
X157403641Y-103650358D01*
X157423918Y-103658757D01*
X157423562Y-103659617D01*
X157454194Y-103672305D01*
X157472500Y-103716499D01*
X157472500Y-104012558D01*
X157479898Y-104049748D01*
X157488830Y-104063116D01*
X157489467Y-104064069D01*
X157500000Y-104098792D01*
X157500000Y-104152378D01*
X157481694Y-104196572D01*
X157446572Y-104231694D01*
X157402378Y-104250000D01*
X155750000Y-104250000D01*
X155750000Y-104255150D01*
X155736295Y-104260827D01*
X155688459Y-104260828D01*
X155654634Y-104227004D01*
X155654633Y-104179168D01*
X155665930Y-104161264D01*
X155667529Y-104159488D01*
X155672842Y-104155628D01*
X155676126Y-104149941D01*
X155676128Y-104149938D01*
X155677933Y-104146812D01*
X155687865Y-104133868D01*
X155905506Y-103916228D01*
X155907879Y-103913976D01*
X155933282Y-103891103D01*
X155938163Y-103886708D01*
X155940833Y-103880710D01*
X155940835Y-103880708D01*
X155948547Y-103863385D01*
X155953228Y-103854764D01*
X155963554Y-103838863D01*
X155963554Y-103838862D01*
X155967134Y-103833350D01*
X155968726Y-103823298D01*
X155973358Y-103807660D01*
X155977500Y-103798357D01*
X155977500Y-103772823D01*
X155978269Y-103763046D01*
X155981236Y-103744314D01*
X155981236Y-103744313D01*
X155982263Y-103737828D01*
X155979628Y-103727995D01*
X155977500Y-103711825D01*
X155977500Y-103421945D01*
X156846001Y-103421945D01*
X156846600Y-103428030D01*
X156859536Y-103493068D01*
X156864157Y-103504224D01*
X156913457Y-103578007D01*
X156921993Y-103586543D01*
X156995775Y-103635843D01*
X157006933Y-103640464D01*
X157071970Y-103653401D01*
X157078054Y-103654000D01*
X157087569Y-103654000D01*
X157096359Y-103650359D01*
X157100000Y-103641569D01*
X157100000Y-103412431D01*
X157096359Y-103403641D01*
X157087569Y-103400000D01*
X156858432Y-103400000D01*
X156849642Y-103403641D01*
X156846001Y-103412431D01*
X156846001Y-103421945D01*
X155977500Y-103421945D01*
X155977500Y-103370121D01*
X155995806Y-103325927D01*
X156325600Y-102996134D01*
X156369794Y-102977828D01*
X156407155Y-102993304D01*
G37*
%TD.AperFunction*%
%TA.AperFunction,Conductor*%
G36*
X154344578Y-102745806D02*
G01*
X154362884Y-102790000D01*
X154358907Y-102811939D01*
X154328738Y-102892416D01*
X154326940Y-102899980D01*
X154321183Y-102952975D01*
X154321000Y-102956343D01*
X154321000Y-102983569D01*
X154324641Y-102992359D01*
X154333431Y-102996000D01*
X155216500Y-102996000D01*
X155260694Y-103014306D01*
X155279000Y-103058500D01*
X155279000Y-103710000D01*
X155260694Y-103754194D01*
X155216500Y-103772500D01*
X154833500Y-103772500D01*
X154789306Y-103754194D01*
X154771000Y-103710000D01*
X154771000Y-103516431D01*
X154767359Y-103507641D01*
X154758569Y-103504000D01*
X154333431Y-103504000D01*
X154324641Y-103507641D01*
X154321000Y-103516431D01*
X154321000Y-103543657D01*
X154321183Y-103547025D01*
X154326940Y-103600020D01*
X154328738Y-103607584D01*
X154358907Y-103688061D01*
X154357279Y-103735869D01*
X154322323Y-103768523D01*
X154300384Y-103772500D01*
X154059303Y-103772500D01*
X154015109Y-103754194D01*
X153996803Y-103710000D01*
X154003151Y-103682555D01*
X154042480Y-103602098D01*
X154052500Y-103533411D01*
X154052499Y-102966590D01*
X154042301Y-102897305D01*
X154039901Y-102892416D01*
X154003141Y-102817545D01*
X154000096Y-102769807D01*
X154031699Y-102733897D01*
X154059244Y-102727500D01*
X154300384Y-102727500D01*
X154344578Y-102745806D01*
G37*
%TD.AperFunction*%
%TA.AperFunction,Conductor*%
G36*
X157481694Y-97268306D02*
G01*
X157500000Y-97312500D01*
X157500000Y-99901208D01*
X157489467Y-99935931D01*
X157479898Y-99950252D01*
X157472500Y-99987442D01*
X157472500Y-100410000D01*
X157454194Y-100454194D01*
X157410000Y-100472500D01*
X157087442Y-100472500D01*
X157084431Y-100473099D01*
X157056287Y-100478697D01*
X157056285Y-100478698D01*
X157050252Y-100479898D01*
X157008078Y-100508078D01*
X156979898Y-100550252D01*
X156972500Y-100587442D01*
X156972500Y-100910000D01*
X156954194Y-100954194D01*
X156910000Y-100972500D01*
X156487442Y-100972500D01*
X156484431Y-100973099D01*
X156456287Y-100978697D01*
X156456285Y-100978698D01*
X156450252Y-100979898D01*
X156408078Y-101008078D01*
X156379898Y-101050252D01*
X156372500Y-101087442D01*
X156372500Y-101412558D01*
X156379898Y-101449748D01*
X156383317Y-101454865D01*
X156390274Y-101465277D01*
X156399606Y-101512194D01*
X156390274Y-101534723D01*
X156379898Y-101550252D01*
X156372500Y-101587442D01*
X156372500Y-101912558D01*
X156373099Y-101915568D01*
X156379512Y-101947806D01*
X156370181Y-101994722D01*
X156330407Y-102021299D01*
X156318213Y-102022500D01*
X156257573Y-102022500D01*
X156254302Y-102022414D01*
X156247478Y-102022056D01*
X156213616Y-102020282D01*
X156189774Y-102029433D01*
X156180382Y-102032215D01*
X156175492Y-102033255D01*
X156161824Y-102036160D01*
X156161822Y-102036161D01*
X156155400Y-102037526D01*
X156150088Y-102041386D01*
X156150085Y-102041387D01*
X156147167Y-102043507D01*
X156132829Y-102051292D01*
X156129460Y-102052585D01*
X156129458Y-102052587D01*
X156123326Y-102054940D01*
X156105269Y-102072997D01*
X156097820Y-102079360D01*
X156077158Y-102094372D01*
X156072067Y-102103189D01*
X156062139Y-102116127D01*
X155924072Y-102254194D01*
X155879878Y-102272500D01*
X154562500Y-102272500D01*
X154518306Y-102254194D01*
X154500000Y-102210000D01*
X154500000Y-97312500D01*
X154518306Y-97268306D01*
X154562500Y-97250000D01*
X157437500Y-97250000D01*
X157481694Y-97268306D01*
G37*
%TD.AperFunction*%
%TD*%
M02*
